<svg xmlns="http://www.w3.org/2000/svg" viewBox="0 0 1462.59 277.49">
  <title>Asset 4</title>
  <g style="isolation: isolate">
    <g id="Layer_2" data-name="Layer 2">
      <g id="woman_happy">
        <g id="desk">
          <g id="cakes_border">
            <g id="cake_12">
              <circle cx="102.62" cy="54.29" r="18.24" transform="translate(-1.23 2.39) rotate(-1.32)" style="fill: #e8c1b0"/>
              <circle cx="102.62" cy="54.29" r="18.24" transform="translate(-1.23 2.39) rotate(-1.32)" style="fill: #e8c1b0"/>
              <circle cx="102.46" cy="54.13" r="18.09" transform="translate(-4.49 98.75) rotate(-50.5)" style="fill: #e8c1b0"/>
              <path d="M106.56,58.41c-4.19,6.17-11.87,8.27-17.15,4.68s-6.15-11.49-2-17.66,11.87-8.27,17.14-4.68S110.75,52.25,106.56,58.41Z" style="fill: #e8c1b0"/>
              <circle cx="127.22" cy="65.44" r="18.09" transform="translate(36.96 176.44) rotate(-78.1)" style="fill: #e8c1b0"/>
              <ellipse cx="121.77" cy="63.23" rx="13.51" ry="11.55" transform="translate(1.02 128.39) rotate(-55.8)" style="fill: #e8c1b0"/>
              <circle cx="151.98" cy="76.75" r="18.09" transform="translate(-8.18 134.53) rotate(-46.63)" style="fill: #e8c1b0"/>
              <path d="M156.08,81c-4.2,6.17-11.88,8.26-17.15,4.68s-6.15-11.5-2-17.67,11.87-8.26,17.15-4.67S160.27,74.86,156.08,81Z" style="fill: #e8c1b0"/>
              <circle cx="176.73" cy="88.06" r="18.09" transform="translate(-8.64 156.07) rotate(-46.63)" style="fill: #e8c1b0"/>
              <ellipse cx="171.28" cy="85.84" rx="13.51" ry="11.55" transform="translate(4 179.24) rotate(-55.79)" style="fill: #e8c1b0"/>
              <path d="M183.78,201.53,14.35,236a10.23,10.23,0,0,1-12.28-9.79L0,136.51l189.81-36.15L192,191.25A10.24,10.24,0,0,1,183.78,201.53Z" style="fill: #70534b"/>
              <path d="M192,191.53c0-.09,0-.18,0-.28l-2.16-90.89L0,136.51.88,174.4l189.8-36.16Z" style="fill: #e7b38e"/>
              <polygon points="190.63 135.67 0.82 171.82 0.88 174.4 190.68 138.24 190.63 135.67" style="fill: #fff3dd"/>
              <path d="M1.67,208.56l.4,17.67A10.23,10.23,0,0,0,14.35,236l169.43-34.49A10.24,10.24,0,0,0,192,191.25l-.51-21.33Z" style="fill: #70534b"/>
              <polygon points="189.81 100.36 84.77 54.14 0 136.51 189.81 100.36" style="fill: #e8c1b0"/>
              <polygon points="191.42 169.92 1.61 206.07 1.67 208.65 191.48 172.49 191.42 169.92" style="fill: #fff3dd"/>
              <path d="M0,136.51s7.93,16.5,20.72,7,19.27-10.2,32.66-6.28,28.3,1.41,38.2-10.74S126,129.25,135,123.42s23.53-16.82,36-9.66,18.89-13.4,18.89-13.4Z" style="fill: #e8c1b0"/>
              <path d="M90,88.9l-11,.25A2.26,2.26,0,0,1,76.74,87h0a2.27,2.27,0,0,1,2.2-2.3l11-.25a2.26,2.26,0,0,1,2.31,2.2h0A2.26,2.26,0,0,1,90,88.9Z" style="fill: #fff3dd"/>
              <path d="M151.27,102.59l-11,.25a2.26,2.26,0,0,1-2.3-2.19h0a2.26,2.26,0,0,1,2.2-2.31l11-.25a2.25,2.25,0,0,1,2.3,2.2h0A2.25,2.25,0,0,1,151.27,102.59Z" style="fill: #fff3dd"/>
              <path d="M88.35,115.74l-11,.25a2.26,2.26,0,0,1-2.3-2.2h0a2.25,2.25,0,0,1,2.2-2.3l11-.26a2.26,2.26,0,0,1,2.3,2.2h0A2.26,2.26,0,0,1,88.35,115.74Z" style="fill: #fff3dd"/>
              <path d="M52.78,120.31l-11,.26a2.26,2.26,0,0,1-2.3-2.2h0a2.26,2.26,0,0,1,2.2-2.31l11-.25A2.25,2.25,0,0,1,55,118h0A2.25,2.25,0,0,1,52.78,120.31Z" style="fill: #fff3dd"/>
              <path d="M102.66,86l-3.19-10.5a2.27,2.27,0,0,1,1.5-2.81h0a2.26,2.26,0,0,1,2.81,1.51L107,84.73a2.27,2.27,0,0,1-1.5,2.81h0A2.27,2.27,0,0,1,102.66,86Z" style="fill: #fff3dd"/>
              <path d="M55,95.75l-5.27,9.62a2.26,2.26,0,0,1-3.06.9h0a2.26,2.26,0,0,1-.89-3.06l5.26-9.62a2.27,2.27,0,0,1,3.06-.9h0A2.26,2.26,0,0,1,55,95.75Z" style="fill: #fff3dd"/>
              <path d="M133.82,86.92l-5.27,9.63a2.24,2.24,0,0,1-3.05.89h0a2.25,2.25,0,0,1-.9-3l5.27-9.63a2.24,2.24,0,0,1,3-.89h0A2.25,2.25,0,0,1,133.82,86.92Z" style="fill: #fff3dd"/>
              <path d="M115.53,94.35,110.26,104a2.26,2.26,0,0,1-3.06.89h0a2.26,2.26,0,0,1-.89-3.05l5.27-9.63a2.25,2.25,0,0,1,3-.9h0A2.27,2.27,0,0,1,115.53,94.35Z" style="fill: #fff3dd"/>
              <path d="M30.44,119.13l-5.27,9.63a2.26,2.26,0,0,1-3.06.89h0a2.25,2.25,0,0,1-.89-3.05L26.48,117a2.27,2.27,0,0,1,3.06-.9h0A2.27,2.27,0,0,1,30.44,119.13Z" style="fill: #fff3dd"/>
              <path d="M81.27,66l10.36-3.6a2.26,2.26,0,0,1,2.87,1.38h0a2.27,2.27,0,0,1-1.39,2.87L82.75,70.3a2.26,2.26,0,0,1-2.87-1.39h0A2.26,2.26,0,0,1,81.27,66Z" style="fill: #fff3dd"/>
              <path d="M65.69,102.77l10.37-3.61a2.26,2.26,0,0,1,2.87,1.38h0a2.27,2.27,0,0,1-1.39,2.87L67.17,107a2.25,2.25,0,0,1-2.86-1.39h0A2.24,2.24,0,0,1,65.69,102.77Z" style="fill: #fff3dd"/>
              <path d="M150,88.61l10.18,4.09a2.25,2.25,0,0,1,1.25,2.92h0a2.25,2.25,0,0,1-2.93,1.25l-10.18-4.09a2.25,2.25,0,0,1-1.25-2.92h0A2.25,2.25,0,0,1,150,88.61Z" style="fill: #fff3dd"/>
              <path d="M174.63,82.69c-1.92,2.4-5,3.11-6.95,1.58s-1.93-4.72,0-7.13,5-3.11,7-1.58S176.54,80.28,174.63,82.69Z" style="fill: #fbf1e2"/>
              <path d="M148.49,72c-1.91,2.41-5,3.12-7,1.58s-1.93-4.72,0-7.12,5-3.11,6.95-1.58S150.4,69.64,148.49,72Z" style="fill: #fbf1e2"/>
              <path d="M124.14,61.22c-1.91,2.41-5,3.11-7,1.58s-1.93-4.72,0-7.12,5-3.11,7-1.58S126.05,58.82,124.14,61.22Z" style="fill: #fbf1e2"/>
              <path d="M99,49.59C97.07,52,94,52.7,92,51.17s-1.94-4.72,0-7.12,5-3.11,6.94-1.58S100.9,47.19,99,49.59Z" style="fill: #fbf1e2"/>
            </g>
            <g id="cake_11">
              <path d="M172.2,159.78l7.64,65.51c-.91,9.32,23.7,19.35,55,22.41s57.36-2,58.27-11.36l20.16-62.8Z" style="fill: #70534b"/>
              <path d="M289.69,214s-13.92,31.45-13.2,0c0,0-12.21,28.69-13.48,3.27,0,0-12.1,24.92-13.68,2.66,0,0-9.38,22.3-11.85.47h0c-6.64,20.94-11.54-2.75-11.54-2.75-5.86,21.54-12.91-5.26-12.91-5.26-6.16,24.69-12.59-5.81-12.59-5.81-5.37,30.95-12.94-2.59-12.94-2.59s-2.46,17-9.31,7l1.66,14.26c-.91,9.25,23.35,19.2,54.29,22.33h0l.26,0,.43,0h0l.43,0,.25,0h0c31,2.91,56.69-2.17,57.59-11.42l4.39-13.67C288.82,231.18,289.69,214,289.69,214Z" style="fill: #70534b;opacity: 0.15;mix-blend-mode: multiply"/>
              <g>
                <path d="M212.73,174.4a1.61,1.61,0,0,0-1.42,1.68l.95,68,2.89.64-1-68.76A1.49,1.49,0,0,0,212.73,174.4Z" style="fill: #bd8568"/>
                <path d="M183.82,165.72a1.64,1.64,0,0,0-1.26,1.82l7.11,68.72c1,.5,2,1,3.07,1.49l-7.32-70.65A1.45,1.45,0,0,0,183.82,165.72Z" style="fill: #bd8568"/>
                <path d="M227.76,176.63a1.57,1.57,0,0,0-1.5,1.59l-2.49,68.07,2.87.43,2.5-68.44A1.52,1.52,0,0,0,227.76,176.63Z" style="fill: #bd8568"/>
                <path d="M198,171.55a1.61,1.61,0,0,0-1.33,1.76L201,241c1,.31,1.95.62,2.95.92L199.58,173A1.46,1.46,0,0,0,198,171.55Z" style="fill: #bd8568"/>
                <path d="M270.66,180.06a1.48,1.48,0,0,0-1.74,1.24l-14.23,67.27,3-.07L271.72,182A1.57,1.57,0,0,0,270.66,180.06Z" style="fill: #bd8568"/>
                <path d="M300.7,177.12a1.46,1.46,0,0,0-1.84,1L278,246.08c1.16-.28,2.26-.57,3.3-.88l20.26-66A1.65,1.65,0,0,0,300.7,177.12Z" style="fill: #bd8568"/>
                <path d="M255.48,179.34a1.51,1.51,0,0,0-1.67,1.34L243,248.32l2.9.13,10.72-67.27A1.56,1.56,0,0,0,255.48,179.34Z" style="fill: #bd8568"/>
                <path d="M241.43,179.94a1.54,1.54,0,0,0-1.59,1.46l-6.46,66.15,1.44.15h0l1.43.12,6.45-66.14A1.52,1.52,0,0,0,241.43,179.94Z" style="fill: #bd8568"/>
                <path d="M285.62,180.1a1.45,1.45,0,0,0-1.79,1.13L266.19,248c1.05-.1,2.08-.21,3.08-.33l17.32-65.54A1.62,1.62,0,0,0,285.62,180.1Z" style="fill: #bd8568"/>
              </g>
              <path d="M308.17,189.37l5.08-15.83-141-13.76L174,175.42c14.06,9.79,38.38,17.69,66.55,20.44C267.77,198.51,292.39,195.76,308.17,189.37Z" style="fill: #70534b;opacity: 0.15;mix-blend-mode: multiply"/>
              <ellipse cx="244.28" cy="151.5" rx="37.05" ry="80.27" transform="translate(69.76 379.91) rotate(-84.43)" style="fill: #d8a06d"/>
              <path d="M247.87,114.63c-31.21-3-59,2.58-73.35,13.34C180,145.84,208,161.54,243,165s65.45-6.59,74.31-23C305.3,128.58,279.09,117.67,247.87,114.63Z" style="fill: #d8a06d"/>
              <path d="M241.61,178.8c-40.6-4-72.74-21.21-76.07-39.81a17.83,17.83,0,0,0-1.16,4.72c-2,20.37,32.17,40.37,76.3,44.67s81.5-8.71,83.49-29.08a18,18,0,0,0-.22-4.86C317.09,172.05,282.22,182.77,241.61,178.8Z" style="fill: #d8a06d"/>
              <path d="M301.9,98.12c7.64-13,3.09-33.12-22.1-52.82C253.49,24.72,256.5,0,256.5,0c-28.78,32.63,6.23,58.36-33.4,69.6-30.47,8.64-42.48,27.2-46.41,35.33a22.53,22.53,0,0,0-1.32,3c-.22.58-.32.91-.32.91h0a20.91,20.91,0,0,0-.77,3.92c-2.06,21.11,29,41.41,69.35,45.34s74.75-10,76.81-31.08C321.46,116.58,314.31,106.3,301.9,98.12Z" style="fill: #e8c1b0"/>
              <g>
                <path d="M317.36,121.15A39.3,39.3,0,0,0,307,101.85c-1.59-1.29-3.28-2.53-5.1-3.73l.32-.58-.34-.27c1.52-6.84,2.35-24-17.84-46.75-1.62-1.83-3.07-3.61-4.41-5.36a62.81,62.81,0,0,1-18-21.67c1.89,8.66,6.71,19.74,17.77,32.22,22.34,25.22,15.77,41.46,15.72,41.57l-1.45,3.17,2.75,1.66c.12.07,11.89,7.28,14.62,20.8,1.48,7.38,0,15.39-4.48,23.86a34.31,34.31,0,0,0,10.74-10.52A38,38,0,0,0,317.36,121.15Z" style="fill: #fae5c5"/>
                <path d="M257.23,113.86l1.4-2-1.28-2.1c0-.07-3.87-7.46,1.55-26.07,3.37-11.58,0-17.59-3.83-24.55-4-7.21-9-16.19-9.2-36.45a3.89,3.89,0,0,0-.61-2.05c-2.84,11.38-.66,21.45-1.65,29.77a76.9,76.9,0,0,0,5.92,12.68c3.63,6.53,5.63,10.13,3.19,18.48-4.81,16.52-3.22,25.85-1.86,29.92a70.42,70.42,0,0,0-9.77,46.39c.85.1,1.69.2,2.54.28,1.39.14,2.78.25,4.16.35A62.57,62.57,0,0,1,257.23,113.86Z" style="fill: #fae5c5"/>
                <path d="M282.77,156.15c8.54-11.4,12.08-21.78,10.55-31A25.66,25.66,0,0,0,282,108.26a25.19,25.19,0,0,0,5.26-12.64c1.42-11.39-4.11-24.26-16.43-38.27-16.73-19-16.92-37.95-14.16-50.46A32.72,32.72,0,0,1,256.5,0a54.75,54.75,0,0,0-6.93,9.72c-2.06,14.08-.31,33.62,16.57,52.8,10.66,12.12,15.74,23.22,14.68,32.11a16.65,16.65,0,0,1-6.21,11.42l-5.89,4,6.37,2.57c.1,0,10.21,4.23,11.84,14.14,1.38,8.36-3.57,19.06-14.31,31.14C276.14,157.45,279.53,156.87,282.77,156.15Z" style="fill: #fae5c5"/>
                <path d="M215.16,131.89c3.69-9.57,11.27-16.63,22.53-21l5.44-2.11-4.29-4.12c-.45-.43-10.9-10.79.09-27.56,5.08-7.76,5.58-16,4.06-23.36A17.16,17.16,0,0,1,237.07,63a20.72,20.72,0,0,1-3.35,9.86c-9.95,15.2-6,27-2.4,33-10.74,5.18-18.16,13-22.11,23.22A51.73,51.73,0,0,0,206,148.79c2.13.92,4.35,1.79,6.64,2.6A45.75,45.75,0,0,1,215.16,131.89Z" style="fill: #fae5c5"/>
                <path d="M186.94,115.56c6.17-16,22.64-21.83,22.8-21.88l2.63-.9-.28-3a38.51,38.51,0,0,1,2.17-17.17c-2.78,1.09-5.38,2.27-7.8,3.5a46.65,46.65,0,0,0-1,11.67c-5.53,2.5-18.53,9.78-24.43,25a44.09,44.09,0,0,0-2.91,14.75,40.27,40.27,0,0,0,7,8.31A39.39,39.39,0,0,1,186.94,115.56Z" style="fill: #fae5c5"/>
              </g>
              <g style="opacity: 0.5;mix-blend-mode: multiply">
                <path d="M223.1,69.6a89.8,89.8,0,0,0-18.52,7.47c28.88-7,69.36,1.86,49.21-23.83a66.23,66.23,0,0,1-10.06-17.49C243.84,51.09,246.68,62.91,223.1,69.6Z" style="fill: #e8c1b0"/>
                <path d="M320.44,127.06a21.14,21.14,0,0,0-.82-8.08c-6.88,10.39-21.78,23.43-53.48,24.92-47.69,2.23-60.64-15.43-77-55.64a59,59,0,0,0-12.4,16.67,22.53,22.53,0,0,0-1.32,3c-.22.58-.32.91-.32.91h0a20.91,20.91,0,0,0-.77,3.92c-2.06,21.11,29,41.41,69.35,45.34S318.38,148.17,320.44,127.06Z" style="fill: #e8c1b0"/>
                <path d="M241.63,105.33c26.92,20,61.06,5.09,69.9.64a57.25,57.25,0,0,0-9.63-7.85,26,26,0,0,0,2.76-18.59C298.44,118.72,241.63,105.33,241.63,105.33Z" style="fill: #e8c1b0"/>
              </g>
            </g>
            <g id="cake_10">
              <path d="M304.82,208l148.43,26.67a8.93,8.93,0,0,0,10.51-8.79V147.6L297.52,119.9l-.06,79.31A8.93,8.93,0,0,0,304.82,208Z" style="fill: #ffd49b"/>
              <g>
                <polygon points="297.52 135.57 297.52 143.95 463.76 171.65 463.76 163.27 297.52 135.57" style="fill: #70534b"/>
                <polygon points="297.52 143.95 463.76 171.65 463.76 168.97 297.52 141.27 297.52 143.95" style="fill: #70534b"/>
                <polygon points="297.52 130.14 463.76 157.84 463.76 155.16 297.52 127.46 297.52 130.14" style="fill: #fae5c5"/>
              </g>
              <g>
                <polygon points="297.52 164.57 297.52 172.96 463.76 200.66 463.76 192.27 297.52 164.57" style="fill: #70534b"/>
                <polygon points="297.52 172.96 463.76 200.66 463.76 197.97 297.52 170.28 297.52 172.96" style="fill: #70534b"/>
                <polygon points="297.52 159.14 463.76 186.84 463.76 184.16 297.52 156.46 297.52 159.14" style="fill: #fae5c5"/>
              </g>
              <path d="M297.52,199.81a8.72,8.72,0,0,0,.42,2.22l165,27.5a8.85,8.85,0,0,0,.78-3.65v-4.6L297.52,193.57Z" style="fill: #70534b"/>
              <path d="M463,229.53a8.84,8.84,0,0,0,.71-2.56L297.52,199.28v.53a8.72,8.72,0,0,0,.42,2.22Z" style="fill: #70534b"/>
              <polygon points="297.52 188.15 463.76 215.85 463.76 213.17 297.52 185.47 297.52 188.15" style="fill: #fae5c5"/>
              <path d="M297.52,119.9,376.38,83a19.35,19.35,0,0,1,21.36,3.34l66,61.25Z" style="fill: #70534b"/>
              <g>
                <path d="M432.67,91.27s-38.38-15.75-55.53,26.79C377.14,118.06,420.27,131.06,432.67,91.27Z" style="fill: #85bf6a"/>
                <path d="M377.14,118.06l55.53-26.79S394.29,75.52,377.14,118.06Z" style="fill: #bddb75"/>
              </g>
              <g>
                <path d="M329.58,91.27S368,75.52,385.11,118.06C385.11,118.06,342,131.06,329.58,91.27Z" style="fill: #85bf6a"/>
                <path d="M385.11,118.06,329.58,91.27S368,75.52,385.11,118.06Z" style="fill: #bddb75"/>
              </g>
              <g>
                <g>
                  <path d="M391.54,96.79c-3.34-1.2-7.08,0-9.92,2.86-2.67-2.76-6.21-4.05-9.49-3.06-5.19,1.56-7.77,8.23-5.76,14.9s7.84,10.8,13,9.24a8.16,8.16,0,0,0,2.06-1,7.76,7.76,0,0,0,1.55.78c5.11,1.83,11.15-2,13.5-8.55S396.64,98.62,391.54,96.79Z" style="fill: #e8c1b0"/>
                  <path d="M396.52,104.76c-2.35,6.55-8.39,10.38-13.5,8.55a7.76,7.76,0,0,1-1.55-.78,7.8,7.8,0,0,1-2.06,1c-5.2,1.56-11-2.57-13-9.24-.09-.28-.16-.57-.23-.86a15,15,0,0,0,.23,8.08c2,6.67,7.84,10.8,13,9.24a8.16,8.16,0,0,0,2.06-1,7.76,7.76,0,0,0,1.55.78c5.11,1.83,11.15-2,13.5-8.55a14.67,14.67,0,0,0,.47-8.78A15.59,15.59,0,0,1,396.52,104.76Z" style="fill: #e8c1b0"/>
                  <ellipse cx="370.81" cy="101.82" rx="2.88" ry="1.58" transform="translate(36.61 292.03) rotate(-45)" style="fill: #fff"/>
                </g>
                <path d="M381.12,99.73a35.15,35.15,0,0,1,.14-8.76,30.82,30.82,0,0,1,2.36-8.45,31.72,31.72,0,0,1,2-3.92,28,28,0,0,1,2.73-3.51,21.39,21.39,0,0,1,1.55-1.61l1.7-1.44c.54-.52,1.19-.88,1.76-1.38A9.31,9.31,0,0,0,395,69l1.58,2.9a7.75,7.75,0,0,0-2,.6,6.83,6.83,0,0,0-1.79,1.06l-1.66,1.27a17.25,17.25,0,0,0-1.53,1.43,26,26,0,0,0-2.75,3.16A27.32,27.32,0,0,0,384.72,83a29.83,29.83,0,0,0-2.49,8.08,33.36,33.36,0,0,0-.35,4.24,23.64,23.64,0,0,0,.23,4.22Z" style="fill: #5c2a21"/>
              </g>
              <path d="M297.52,119.9a32.75,32.75,0,0,1,10.22,7.25c4.18,4.69,10.5-2.85,25.28,1.22s11.11,10.52,30.88,7.2,30.54,4.22,41,8.6,24.84-1.93,34.11,1.53,18.63,7.78,24.75,1.9Z" style="fill: #70534b"/>
            </g>
            <g id="cake_9">
              <path d="M441.31,209.93l11.68,48c0,7,21.29,12.63,47.56,12.63s47.57-5.66,47.57-12.63l11.67-48Z" style="fill: #e8c1b0"/>
              <path d="M543.47,241.63s-9,24.3-11,1c0,0-7.83,22.14-11,3.4,0,0-8,19.34-11.17,3,0,0-6,17.2-9.83,1.2v0c-3.83,16-9.82-1.2-9.82-1.2-3.13,16.38-11.17-3-11.17-3-3.12,18.74-10.95-3.4-10.95-3.4-1.95,23.32-11-1-11-1s-.67,12.77-7.18,5.84L453,257.91c0,6.92,21,12.54,47,12.62h1.15c26-.08,47-5.7,47-12.62l2.54-10.44C544.14,254.4,543.47,241.63,543.47,241.63Z" style="fill: #70534b;opacity: 0.15;mix-blend-mode: multiply"/>
              <g>
                <path d="M476.22,217.83a1.22,1.22,0,0,0-1,1.35l6.31,50.3,2.46.26-6.38-50.86A1.22,1.22,0,0,0,476.22,217.83Z" style="fill: #e8c1b0"/>
                <path d="M451.47,213.49a1.21,1.21,0,0,0-.91,1.44l11.5,50.4c.84.3,1.74.6,2.67.88L452.91,214.4A1.21,1.21,0,0,0,451.47,213.49Z" style="fill: #e8c1b0"/>
                <path d="M488.91,218.4a1.21,1.21,0,0,0-1.12,1.28l3.46,50.61c.79,0,1.6.08,2.41.11l-3.47-50.88A1.21,1.21,0,0,0,488.91,218.4Z" style="fill: #e8c1b0"/>
                <path d="M463.77,216.78a1.21,1.21,0,0,0-1,1.4L471.89,268c.83.16,1.67.32,2.54.47l-9.26-50.71A1.21,1.21,0,0,0,463.77,216.78Z" style="fill: #e8c1b0"/>
                <path d="M524.88,217.83a1.2,1.2,0,0,0-1.34,1l-6.38,50.86,2.45-.26,6.31-50.3A1.2,1.2,0,0,0,524.88,217.83Z" style="fill: #e8c1b0"/>
                <path d="M549.63,213.49a1.21,1.21,0,0,0-1.44.91l-11.82,51.81c.94-.28,1.83-.58,2.67-.88l11.5-50.4A1.21,1.21,0,0,0,549.63,213.49Z" style="fill: #e8c1b0"/>
                <path d="M512.2,218.4a1.22,1.22,0,0,0-1.29,1.12l-3.47,50.88c.81,0,1.62-.06,2.42-.11l3.45-50.61A1.2,1.2,0,0,0,512.2,218.4Z" style="fill: #e8c1b0"/>
                <path d="M500.55,219.86a1.2,1.2,0,0,0-1.2,1.2v49.47h2.4V221.06A1.2,1.2,0,0,0,500.55,219.86Z" style="fill: #e8c1b0"/>
                <path d="M537.33,216.78a1.21,1.21,0,0,0-1.4,1l-9.25,50.71,2.53-.47,9.09-49.81A1.21,1.21,0,0,0,537.33,216.78Z" style="fill: #e8c1b0"/>
              </g>
              <path d="M556.85,222l2.94-12.09H441.31l2.79,11.46c12.49,6.24,33.37,10.33,57,10.33C524,231.72,544.24,227.9,556.85,222Z" style="fill: #70534b;opacity: 0.15;mix-blend-mode: multiply"/>
              <ellipse cx="500.61" cy="198.59" rx="67.11" ry="27.58" style="fill: #70534b"/>
              <ellipse cx="500.61" cy="189.13" rx="63.06" ry="18.12" style="fill: #70534b;opacity: 0.15;mix-blend-mode: multiply"/>
              <path d="M500.61,219c-34.1,0-62.25-10.46-66.52-24a11.88,11.88,0,0,0-.59,3.58c0,15.23,30.05,27.58,67.11,27.58s67.11-12.35,67.11-27.58a11.87,11.87,0,0,0-.58-3.58C562.86,208.55,534.72,219,500.61,219Z" style="fill: #70534b"/>
              <ellipse cx="500.61" cy="172.44" rx="67.11" ry="27.58" style="fill: #ffd478"/>
              <path d="M500.61,192.85c-34.1,0-62.25-10.46-66.52-24a11.83,11.83,0,0,0-.59,3.58c0,15.23,30.05,27.58,67.11,27.58s67.11-12.35,67.11-27.58a11.82,11.82,0,0,0-.58-3.58C562.86,182.39,534.72,192.85,500.61,192.85Z" style="fill: #70534b;opacity: 0.15;mix-blend-mode: multiply"/>
              <path d="M500.61,144.86c-27.53,0-51.18,6.81-61.53,16.57,1.16,11.69,28.25,21,61.53,21s60.38-9.36,61.53-21C551.8,151.67,528.15,144.86,500.61,144.86Z" style="fill: #70534b;opacity: 0.15;mix-blend-mode: multiply"/>
              <path d="M451.15,134.53c0-17.55,22.15-39.13,49.46-39.13s49.46,21.58,49.46,39.13-22.14,31.77-49.46,31.77S451.15,152.08,451.15,134.53Z" style="fill: #fae5c5"/>
              <ellipse cx="500.61" cy="156.81" rx="58.39" ry="20.7" style="fill: #fae5c5"/>
              <path d="M500.61,169.81c-28.54,0-52.28-7.26-57.37-16.85a8.18,8.18,0,0,0-1,3.85c0,11.42,26.14,20.69,58.39,20.69s58.4-9.27,58.4-20.69a8.18,8.18,0,0,0-1-3.85C552.9,162.55,529.15,169.81,500.61,169.81Z" style="fill: #70534b;opacity: 0.15;mix-blend-mode: multiply"/>
              <path d="M461.2,112.62c-6.3,6.8-10.05,14.69-10.05,21.91,0,13.77,13.65,25.5,32.73,29.91h0C463.91,157.42,451.57,133.7,461.2,112.62Z" style="fill: #70534b;opacity: 0.15;mix-blend-mode: multiply"/>
              <path d="M540,112.62c6.3,6.8,10.05,14.69,10.05,21.91,0,13.77-13.65,25.5-32.73,29.91h0C537.32,157.42,549.66,133.7,540,112.62Z" style="fill: #70534b;opacity: 0.15;mix-blend-mode: multiply"/>
              <path d="M481.37,143.31a7.14,7.14,0,0,1-5.89-3.09c-10.14-14.45-20.09-17.36-20.19-17.38a4.07,4.07,0,0,1,2-7.89c.5.13,12,3.27,23.65,19-.23-7.06-1.46-16.27-5.66-23.13a7.62,7.62,0,0,1,8.37-11.37c6.11,1.57,15.59,5.78,26.42,16.9a39.36,39.36,0,0,0-1.45-12A7.62,7.62,0,0,1,519,95.11a43.73,43.73,0,0,1,16.58,13,4.07,4.07,0,0,1,7.95-.09l.07.3a7.45,7.45,0,0,1-4.29,8.55A7.56,7.56,0,0,1,530,114.2,34.85,34.85,0,0,0,516.75,103a49.57,49.57,0,0,1,1.47,14.82A7.63,7.63,0,0,1,505,122.79c-9.08-9.56-16.86-13.52-22.12-15.13,5,8.82,6.14,19.92,6.24,27.83a7.82,7.82,0,0,1-7.79,7.82Z" style="fill: #70534b"/>
              <path d="M470,146.82s10.94,21.75,36.73,17.62a38.19,38.19,0,0,0-14.34-6.67C483.36,155.56,472.51,148.86,470,146.82Z" style="fill: #e9cdb2"/>
              <path d="M495.66,154.29s9.16,9.33,19.77,6.28,22.13-15.07,22.73-22C538.16,138.53,520.26,159.89,495.66,154.29Z" style="fill: #e9cdb2"/>
              <path d="M489.57,149.85a.78.78,0,0,1-.78.78.78.78,0,1,1,.78-.78Z" style="fill: #e9cdb2"/>
              <path d="M496.93,141.4a1.27,1.27,0,1,1-1.27-1.28A1.27,1.27,0,0,1,496.93,141.4Z" style="fill: #e9cdb2"/>
              <path d="M497.15,147.33a.22.22,0,1,1-.43,0,.22.22,0,0,1,.43,0Z" style="fill: #e9cdb2"/>
              <circle cx="494.39" cy="150.22" r="0.41" style="fill: #e9cdb2"/>
              <path d="M481.24,147.33a1.27,1.27,0,1,1-1.27-1.27A1.27,1.27,0,0,1,481.24,147.33Z" style="fill: #e9cdb2"/>
              <circle cx="506.1" cy="151.4" r="1.61" style="fill: #e9cdb2"/>
              <circle cx="512.97" cy="140.12" r="2.08" style="fill: #e9cdb2"/>
              <path d="M515.68,147.33a1.27,1.27,0,1,1-1.27-1.27A1.27,1.27,0,0,1,515.68,147.33Z" style="fill: #e9cdb2"/>
              <path d="M526.49,143.6a.46.46,0,0,1-.46.47.47.47,0,0,1-.47-.47.46.46,0,0,1,.47-.46A.45.45,0,0,1,526.49,143.6Z" style="fill: #e9cdb2"/>
              <path d="M529.23,139.23a.58.58,0,1,1-.57-.57A.58.58,0,0,1,529.23,139.23Z" style="fill: #e9cdb2"/>
              <circle cx="520.01" cy="138.53" r="1.59" style="fill: #e9cdb2"/>
              <path d="M506.37,144.07a1.13,1.13,0,0,1-2.25,0,1.13,1.13,0,1,1,2.25,0Z" style="fill: #e9cdb2"/>
              <path d="M491.15,144.07a.49.49,0,1,1-.49-.49A.49.49,0,0,1,491.15,144.07Z" style="fill: #e9cdb2"/>
              <circle cx="521.6" cy="146.82" r="0.87" style="fill: #e9cdb2"/>
              <path d="M526.83,136.11a.34.34,0,1,1-.34-.33A.34.34,0,0,1,526.83,136.11Z" style="fill: #e9cdb2"/>
              <circle cx="515.68" cy="134.7" r="1.19" style="fill: #e9cdb2"/>
              <circle cx="503.55" cy="132.07" r="0.57" style="fill: #e9cdb2"/>
              <g>
                <path d="M483.75,142.93a7.87,7.87,0,0,0,3.62-2.46c-3.37,1.32-8-1.4-15.06-9.62a42.38,42.38,0,0,0-19.89-13.11c0,.05,0,.09-.05.13a4.08,4.08,0,0,0,2.92,5c.1,0,10,2.93,20.19,17.38a7.14,7.14,0,0,0,5.89,3.09A7.68,7.68,0,0,0,483.75,142.93Z" style="fill: #70534b"/>
                <path d="M505,122.79a7.65,7.65,0,0,0,8.28,1.89,7.56,7.56,0,0,0,4.8-5.92c-1.37,3.52-7.26,6.42-11.75.84-5.18-6.45-11.22-8.94-16.2-11.94s-7.25,0-7.25,0C488.18,109.27,496,113.23,505,122.79Z" style="fill: #70534b"/>
                <path d="M539.34,116.83a7.45,7.45,0,0,0,4.29-8.55l-.07-.3a4.06,4.06,0,0,0-.7-1.5c-2.2,11.26-9,8.28-15.36.79-6.9-8.14-10.63-4.75-10.63-4.75l.28.73a34.65,34.65,0,0,1,12.86,11A7.56,7.56,0,0,0,539.34,116.83Z" style="fill: #70534b"/>
              </g>
            </g>
            <g id="cake_8">
              <circle cx="702.71" cy="84.19" r="18.24" transform="translate(-1.76 16.26) rotate(-1.32)" style="fill: #e8c1b0"/>
              <circle cx="702.71" cy="84.19" r="18.24" transform="translate(-1.76 16.26) rotate(-1.32)" style="fill: #e8c1b0"/>
              <circle cx="702.55" cy="84.04" r="18.09" transform="translate(190.79 572.65) rotate(-50.5)" style="fill: #e8c1b0"/>
              <path d="M706.65,88.32c-4.19,6.17-11.87,8.26-17.14,4.68s-6.16-11.5-2-17.67,11.87-8.26,17.14-4.68S710.85,82.15,706.65,88.32Z" style="fill: #e8c1b0"/>
              <circle cx="727.31" cy="95.35" r="18.09" transform="translate(484.07 787.38) rotate(-78.1)" style="fill: #e8c1b0"/>
              <ellipse cx="721.86" cy="93.13" rx="13.51" ry="11.55" transform="translate(239.04 637.78) rotate(-55.8)" style="fill: #e8c1b0"/>
              <circle cx="752.07" cy="106.65" r="18.09" transform="translate(158.11 580.15) rotate(-46.63)" style="fill: #e8c1b0"/>
              <path d="M756.17,110.93c-4.2,6.17-11.87,8.27-17.15,4.68s-6.15-11.49-2-17.66,11.87-8.27,17.15-4.68S760.36,104.76,756.17,110.93Z" style="fill: #e8c1b0"/>
              <circle cx="776.82" cy="117.96" r="18.09" transform="matrix(0.69, -0.73, 0.73, 0.69, 157.65, 601.69)" style="fill: #e8c1b0"/>
              <ellipse cx="771.37" cy="115.75" rx="13.51" ry="11.55" transform="translate(242 688.62) rotate(-55.79)" style="fill: #e8c1b0"/>
              <path d="M783.87,231.43l-169.42,34.5a10.25,10.25,0,0,1-12.29-9.8l-2.07-89.72L789.9,130.26l2.16,90.89A10.24,10.24,0,0,1,783.87,231.43Z" style="fill: #70534b"/>
              <path d="M792,221.44c0-.1,0-.19,0-.29l-2.16-90.89L600.09,166.41,601,204.3l189.81-36.15Z" style="fill: #e7b38e"/>
              <polygon points="790.72 165.57 600.91 201.72 600.97 204.3 790.78 168.15 790.72 165.57" style="fill: #fff3dd"/>
              <path d="M601.76,238.46l.4,17.67a10.25,10.25,0,0,0,12.29,9.8l169.42-34.5a10.24,10.24,0,0,0,8.19-10.28l-.51-21.33Z" style="fill: #70534b"/>
              <polygon points="789.9 130.26 684.86 84.05 600.09 166.41 789.9 130.26" style="fill: #e8c1b0"/>
              <polygon points="791.51 199.82 601.7 235.97 601.76 238.55 791.57 202.4 791.51 199.82" style="fill: #fff3dd"/>
              <path d="M600.09,166.41s7.93,16.51,20.72,7,19.28-10.2,32.66-6.28,28.31,1.41,38.21-10.74,34.36,2.76,43.37-3.07,23.53-16.82,36-9.66,18.88-13.4,18.88-13.4Z" style="fill: #e8c1b0"/>
              <path d="M690.11,118.8l-11,.26a2.26,2.26,0,0,1-2.31-2.2h0a2.28,2.28,0,0,1,2.2-2.31l11-.25a2.26,2.26,0,0,1,2.3,2.2h0A2.25,2.25,0,0,1,690.11,118.8Z" style="fill: #fff3dd"/>
              <path d="M751.36,132.49l-11,.26a2.26,2.26,0,0,1-2.31-2.2h0a2.25,2.25,0,0,1,2.2-2.3l11-.26a2.26,2.26,0,0,1,2.31,2.2h0A2.25,2.25,0,0,1,751.36,132.49Z" style="fill: #fff3dd"/>
              <path d="M688.45,145.64l-11,.25a2.26,2.26,0,0,1-2.3-2.2h0a2.26,2.26,0,0,1,2.2-2.3l11-.25a2.26,2.26,0,0,1,2.31,2.2h0A2.27,2.27,0,0,1,688.45,145.64Z" style="fill: #fff3dd"/>
              <path d="M652.87,150.22l-11,.25a2.25,2.25,0,0,1-2.3-2.2h0a2.25,2.25,0,0,1,2.2-2.3l11-.26a2.27,2.27,0,0,1,2.3,2.2h0A2.26,2.26,0,0,1,652.87,150.22Z" style="fill: #fff3dd"/>
              <path d="M702.75,115.94l-3.19-10.5a2.26,2.26,0,0,1,1.5-2.81h0a2.25,2.25,0,0,1,2.81,1.5l3.19,10.5a2.26,2.26,0,0,1-1.5,2.81h0A2.26,2.26,0,0,1,702.75,115.94Z" style="fill: #fff3dd"/>
              <path d="M655.12,125.65l-5.27,9.63a2.25,2.25,0,0,1-3.05.89h0a2.25,2.25,0,0,1-.9-3l5.27-9.63a2.25,2.25,0,0,1,3.05-.9h0A2.27,2.27,0,0,1,655.12,125.65Z" style="fill: #fff3dd"/>
              <path d="M733.91,116.83l-5.27,9.62a2.25,2.25,0,0,1-3,.9h0a2.27,2.27,0,0,1-.9-3.06l5.27-9.63a2.26,2.26,0,0,1,3.06-.89h0A2.27,2.27,0,0,1,733.91,116.83Z" style="fill: #fff3dd"/>
              <path d="M715.62,124.25l-5.27,9.63a2.24,2.24,0,0,1-3.05.89h0a2.25,2.25,0,0,1-.9-3.05l5.27-9.63a2.24,2.24,0,0,1,3.05-.89h0A2.25,2.25,0,0,1,715.62,124.25Z" style="fill: #fff3dd"/>
              <path d="M630.53,149l-5.27,9.63a2.25,2.25,0,0,1-3.06.89h0a2.26,2.26,0,0,1-.89-3.05l5.27-9.63a2.24,2.24,0,0,1,3-.89h0A2.25,2.25,0,0,1,630.53,149Z" style="fill: #fff3dd"/>
              <path d="M681.36,96l10.36-3.61a2.26,2.26,0,0,1,2.87,1.39h0a2.26,2.26,0,0,1-1.39,2.86l-10.36,3.61A2.27,2.27,0,0,1,680,98.82h0A2.26,2.26,0,0,1,681.36,96Z" style="fill: #fff3dd"/>
              <path d="M665.79,132.67l10.36-3.61a2.26,2.26,0,0,1,2.87,1.39h0a2.26,2.26,0,0,1-1.39,2.86l-10.36,3.61a2.27,2.27,0,0,1-2.87-1.38h0A2.26,2.26,0,0,1,665.79,132.67Z" style="fill: #fff3dd"/>
              <path d="M750.08,118.51l10.18,4.09a2.26,2.26,0,0,1,1.25,2.93h0a2.26,2.26,0,0,1-2.93,1.25l-10.18-4.09a2.26,2.26,0,0,1-1.25-2.93h0A2.26,2.26,0,0,1,750.08,118.51Z" style="fill: #fff3dd"/>
              <path d="M774.72,112.59c-1.91,2.41-5,3.11-7,1.58s-1.93-4.72,0-7.12,5-3.11,7-1.58S776.63,110.19,774.72,112.59Z" style="fill: #fbf1e2"/>
              <path d="M748.58,102c-1.91,2.4-5,3.11-6.94,1.58s-1.94-4.72,0-7.13,5-3.11,6.95-1.58S750.49,99.55,748.58,102Z" style="fill: #fbf1e2"/>
              <path d="M724.23,91.13c-1.91,2.4-5,3.11-7,1.57s-1.93-4.72,0-7.12,5-3.11,7-1.58S726.14,88.72,724.23,91.13Z" style="fill: #fbf1e2"/>
              <path d="M699.08,79.49c-1.92,2.41-5,3.12-7,1.58s-1.93-4.72,0-7.12,5-3.11,6.95-1.58S701,77.09,699.08,79.49Z" style="fill: #fbf1e2"/>
            </g>
            <g id="cake_7">
              <path d="M769.29,188.68l7.64,65.51c-.91,9.32,23.7,19.36,55,22.41s57.36-2,58.27-11.36l20.16-62.79Z" style="fill: #70534b"/>
              <path d="M886.78,242.93s-13.92,31.45-13.19,0c0,0-12.21,28.69-13.49,3.27,0,0-12.09,24.93-13.68,2.66,0,0-9.38,22.3-11.85.47v0c-6.64,20.94-11.54-2.75-11.54-2.75-5.85,21.54-12.91-5.26-12.91-5.26-6.16,24.7-12.59-5.81-12.59-5.81-5.37,30.95-12.94-2.59-12.94-2.59s-2.46,17-9.31,7l1.66,14.25c-.9,9.26,23.35,19.21,54.29,22.34h0l.26,0,.43.05h0l.43,0,.25,0h0c31,2.91,56.69-2.16,57.59-11.42l4.39-13.66C885.91,260.08,886.78,242.93,886.78,242.93Z" style="fill: #70534b;opacity: 0.15;mix-blend-mode: multiply"/>
              <g>
                <path d="M809.82,203.31A1.59,1.59,0,0,0,808.4,205l1,68,2.89.64-1-68.75A1.48,1.48,0,0,0,809.82,203.31Z" style="fill: #bd8568"/>
                <path d="M780.91,194.62a1.64,1.64,0,0,0-1.26,1.82l7.12,68.72q1.44.76,3.06,1.5L782.51,196A1.45,1.45,0,0,0,780.91,194.62Z" style="fill: #bd8568"/>
                <path d="M824.85,205.54a1.56,1.56,0,0,0-1.5,1.58l-2.49,68.07,2.87.43,2.5-68.44A1.5,1.5,0,0,0,824.85,205.54Z" style="fill: #bd8568"/>
                <path d="M795.13,200.45a1.62,1.62,0,0,0-1.33,1.76l4.32,67.65c1,.32,2,.63,3,.93l-4.41-68.88A1.47,1.47,0,0,0,795.13,200.45Z" style="fill: #bd8568"/>
                <path d="M867.75,209A1.49,1.49,0,0,0,866,210.2l-14.23,67.27c1,0,2,0,3-.07l14.07-66.52A1.59,1.59,0,0,0,867.75,209Z" style="fill: #bd8568"/>
                <path d="M897.79,206a1.45,1.45,0,0,0-1.84,1L875.11,275c1.16-.27,2.26-.57,3.3-.88l20.27-66A1.63,1.63,0,0,0,897.79,206Z" style="fill: #bd8568"/>
                <path d="M852.57,208.24a1.51,1.51,0,0,0-1.67,1.35l-10.78,67.63,2.9.14,10.72-67.27A1.58,1.58,0,0,0,852.57,208.24Z" style="fill: #bd8568"/>
                <path d="M838.52,208.84a1.54,1.54,0,0,0-1.59,1.47l-6.45,66.14,1.43.15h0l1.43.13,6.46-66.14A1.55,1.55,0,0,0,838.52,208.84Z" style="fill: #bd8568"/>
                <path d="M882.71,209a1.45,1.45,0,0,0-1.79,1.13l-17.64,66.73c1.05-.1,2.08-.22,3.08-.34L883.68,211A1.62,1.62,0,0,0,882.71,209Z" style="fill: #bd8568"/>
              </g>
              <path d="M905.26,218.27l5.08-15.82L769.29,188.68l1.82,15.65c14.06,9.79,38.38,17.68,66.55,20.43C864.86,227.42,889.48,224.67,905.26,218.27Z" style="fill: #70534b;opacity: 0.15;mix-blend-mode: multiply"/>
              <ellipse cx="841.37" cy="180.41" rx="37.05" ry="80.27" transform="translate(580.1 1000.28) rotate(-84.43)" style="fill: #d8a06d"/>
              <path d="M845,143.53c-31.22-3.05-59,2.59-73.36,13.35,5.5,17.86,33.47,33.56,68.45,37s65.44-6.58,74.3-23C902.39,157.48,876.18,146.58,845,143.53Z" style="fill: #d8a06d"/>
              <path d="M838.7,207.71c-40.6-4-72.74-21.22-76.07-39.82a18,18,0,0,0-1.16,4.72c-2,20.37,32.17,40.37,76.3,44.68s81.51-8.72,83.49-29.09a17.54,17.54,0,0,0-.22-4.85C914.18,201,879.31,211.67,838.7,207.71Z" style="fill: #d8a06d"/>
              <path d="M899,127c7.64-13,3.09-33.11-22.1-52.82-26.31-20.57-23.3-45.3-23.3-45.3-28.77,32.64,6.23,58.36-33.4,69.61-30.47,8.64-42.48,27.2-46.41,35.32a22.12,22.12,0,0,0-1.32,3c-.22.57-.32.91-.32.91h0a20.6,20.6,0,0,0-.77,3.92c-2.06,21.1,29,41.4,69.35,45.34s74.75-10,76.81-31.08C918.55,145.48,911.4,135.2,899,127Z" style="fill: #e8c1b0"/>
              <g>
                <path d="M914.45,150.06a39.26,39.26,0,0,0-10.36-19.31c-1.59-1.28-3.28-2.53-5.1-3.73.12-.19.22-.39.32-.58l-.34-.27c1.53-6.84,2.35-24-17.84-46.75-1.62-1.83-3.07-3.61-4.41-5.35a62.83,62.83,0,0,1-18-21.68c1.89,8.67,6.71,19.74,17.77,32.22,22.34,25.23,15.77,41.46,15.73,41.58l-1.46,3.17,2.75,1.65c.12.07,11.9,7.28,14.62,20.8,1.49,7.39,0,15.4-4.48,23.86a34.25,34.25,0,0,0,10.75-10.52A38.16,38.16,0,0,0,914.45,150.06Z" style="fill: #fae5c5"/>
                <path d="M854.32,142.77l1.4-2-1.28-2.09c0-.07-3.87-7.47,1.55-26.08C859.36,101,856,95,852.16,88c-4-7.21-9-16.19-9.2-36.45a3.83,3.83,0,0,0-.61-2c-2.84,11.38-.66,21.45-1.65,29.77A76.75,76.75,0,0,0,846.62,92c3.63,6.54,5.63,10.13,3.19,18.48C845,127,846.6,136.3,848,140.37a70.33,70.33,0,0,0-9.77,46.4c.84.09,1.68.2,2.53.28,1.39.13,2.78.24,4.16.34A62.55,62.55,0,0,1,854.32,142.77Z" style="fill: #fae5c5"/>
                <path d="M879.86,185.05c8.54-11.4,12.08-21.77,10.55-31a25.61,25.61,0,0,0-11.33-16.93,25.18,25.18,0,0,0,5.26-12.65c1.42-11.39-4.1-24.26-16.43-38.27-16.72-19-16.92-37.94-14.15-50.45a32.48,32.48,0,0,1-.17-6.9,54.44,54.44,0,0,0-6.93,9.73c-2.06,14.07-.31,33.61,16.57,52.8,10.66,12.11,15.74,23.21,14.68,32.11A16.71,16.71,0,0,1,871.7,135l-5.89,4,6.37,2.57c.1,0,10.22,4.24,11.84,14.14,1.38,8.36-3.57,19.06-14.31,31.15C873.23,186.35,876.62,185.77,879.86,185.05Z" style="fill: #fae5c5"/>
                <path d="M812.26,160.79c3.68-9.56,11.26-16.62,22.52-21l5.44-2.1-4.29-4.12c-.45-.44-10.9-10.8.09-27.57,5.09-7.76,5.58-16,4.06-23.35a17.11,17.11,0,0,1-5.92,9.26,20.75,20.75,0,0,1-3.35,9.87c-9.95,15.19-6,27-2.4,33-10.74,5.18-18.16,13-22.11,23.21a52,52,0,0,0-3.22,19.66c2.13.92,4.35,1.79,6.64,2.61A45.65,45.65,0,0,1,812.26,160.79Z" style="fill: #fae5c5"/>
                <path d="M784,144.46c6.17-16,22.64-21.82,22.8-21.88l2.63-.9-.28-3a38.29,38.29,0,0,1,2.18-17.16,84.72,84.72,0,0,0-7.81,3.5,46.6,46.6,0,0,0-1,11.67c-5.53,2.49-18.53,9.78-24.43,25a44,44,0,0,0-2.91,14.74,40.33,40.33,0,0,0,7,8.31A39.39,39.39,0,0,1,784,144.46Z" style="fill: #fae5c5"/>
              </g>
              <g style="opacity: 0.5;mix-blend-mode: multiply">
                <path d="M820.19,98.51A89.25,89.25,0,0,0,801.67,106c28.88-7,69.36,1.86,49.21-23.83a66.51,66.51,0,0,1-10.06-17.49C840.93,80,843.77,91.82,820.19,98.51Z" style="fill: #e8c1b0"/>
                <path d="M917.53,156a21.31,21.31,0,0,0-.81-8.08c-6.89,10.38-21.78,23.42-53.49,24.91-47.69,2.24-60.64-15.42-77-55.63a59.07,59.07,0,0,0-12.41,16.66,22.12,22.12,0,0,0-1.32,3c-.22.57-.32.91-.32.91h0a20.6,20.6,0,0,0-.77,3.92c-2.06,21.1,29,41.4,69.35,45.34S915.47,177.07,917.53,156Z" style="fill: #e8c1b0"/>
                <path d="M838.72,134.23c26.92,20,61.06,5.09,69.9.65A57.29,57.29,0,0,0,899,127a26,26,0,0,0,2.76-18.59C895.53,147.62,838.72,134.23,838.72,134.23Z" style="fill: #e8c1b0"/>
              </g>
            </g>
            <g id="cake_6">
              <path d="M889.91,218.91l148.43,26.66a8.93,8.93,0,0,0,10.52-8.79V158.5L882.61,130.8l-.06,79.31A8.94,8.94,0,0,0,889.91,218.91Z" style="fill: #ffd49b"/>
              <g>
                <polygon points="882.61 146.47 882.61 154.86 1048.86 182.56 1048.86 174.17 882.61 146.47" style="fill: #70534b"/>
                <polygon points="882.61 154.86 1048.86 182.56 1048.86 179.88 882.61 152.18 882.61 154.86" style="fill: #70534b"/>
                <polygon points="882.61 141.04 1048.86 168.74 1048.86 166.06 882.61 138.36 882.61 141.04" style="fill: #fae5c5"/>
              </g>
              <g>
                <polygon points="882.61 175.47 882.61 183.86 1048.86 211.56 1048.86 203.18 882.61 175.47" style="fill: #70534b"/>
                <polygon points="882.61 183.86 1048.86 211.56 1048.86 208.88 882.61 181.18 882.61 183.86" style="fill: #70534b"/>
                <polygon points="882.61 170.05 1048.86 197.75 1048.86 195.07 882.61 167.37 882.61 170.05" style="fill: #fae5c5"/>
              </g>
              <path d="M882.61,210.71a8.56,8.56,0,0,0,.42,2.22l165,27.5a8.85,8.85,0,0,0,.79-3.65v-4.6l-166.25-27.7Z" style="fill: #70534b"/>
              <path d="M1048.07,240.43a8.67,8.67,0,0,0,.71-2.56L882.61,210.18v.53a8.56,8.56,0,0,0,.42,2.22Z" style="fill: #70534b"/>
              <polygon points="882.61 199.05 1048.86 226.75 1048.86 224.07 882.61 196.37 882.61 199.05" style="fill: #fae5c5"/>
              <path d="M882.61,130.8l78.86-36.89a19.34,19.34,0,0,1,21.36,3.34l66,61.25Z" style="fill: #70534b"/>
              <g>
                <path d="M1017.76,102.17S979.38,86.43,962.23,129C962.23,129,1005.36,142,1017.76,102.17Z" style="fill: #85bf6a"/>
                <path d="M962.23,129l55.53-26.79S979.38,86.43,962.23,129Z" style="fill: #bddb75"/>
              </g>
              <g>
                <path d="M914.67,102.17S953.05,86.43,970.2,129C970.2,129,927.07,142,914.67,102.17Z" style="fill: #85bf6a"/>
                <path d="M970.2,129l-55.53-26.79S953.05,86.43,970.2,129Z" style="fill: #bddb75"/>
              </g>
              <g>
                <g>
                  <path d="M976.63,107.7c-3.34-1.2-7.08,0-9.92,2.86-2.67-2.77-6.21-4.06-9.49-3.07-5.19,1.57-7.77,8.24-5.76,14.9s7.85,10.8,13,9.24a7.66,7.66,0,0,0,2.06-1,7.76,7.76,0,0,0,1.55.78c5.11,1.83,11.15-2,13.5-8.55S981.73,109.53,976.63,107.7Z" style="fill: #e8c1b0"/>
                  <path d="M981.61,115.66c-2.35,6.55-8.39,10.38-13.5,8.55a7.76,7.76,0,0,1-1.55-.78,7.66,7.66,0,0,1-2.06,1c-5.19,1.57-11-2.57-13-9.23-.09-.29-.16-.58-.23-.87a15,15,0,0,0,.23,8.08c2,6.67,7.85,10.8,13,9.24a7.66,7.66,0,0,0,2.06-1,7.76,7.76,0,0,0,1.55.78c5.11,1.83,11.15-2,13.5-8.55a14.67,14.67,0,0,0,.47-8.78A15.41,15.41,0,0,1,981.61,115.66Z" style="fill: #e8c1b0"/>
                  <ellipse cx="955.91" cy="112.72" rx="2.88" ry="1.58" transform="translate(200.27 708.94) rotate(-45)" style="fill: #fff"/>
                </g>
                <path d="M966.21,110.64a35.71,35.71,0,0,1,.14-8.77,31.11,31.11,0,0,1,2.36-8.44,32.52,32.52,0,0,1,2-3.93A29.74,29.74,0,0,1,973.48,86a21.31,21.31,0,0,1,1.55-1.6l1.7-1.45c.54-.52,1.19-.88,1.76-1.38a9,9,0,0,0,1.63-1.68l1.58,2.9a7.41,7.41,0,0,0-2,.61,6.88,6.88,0,0,0-1.79,1.06l-1.66,1.26a20.7,20.7,0,0,0-1.53,1.43,27.6,27.6,0,0,0-2.74,3.16A27.41,27.41,0,0,0,967.32,102a33.51,33.51,0,0,0-.35,4.24,23.75,23.75,0,0,0,.23,4.23Z" style="fill: #5c2a21"/>
              </g>
              <path d="M882.61,130.8a32.68,32.68,0,0,1,10.22,7.26c4.18,4.68,10.5-2.86,25.28,1.22s11.11,10.51,30.88,7.19,30.54,4.22,41,8.61,24.83-1.94,34.1,1.52,18.63,7.78,24.76,1.9Z" style="fill: #70534b"/>
            </g>
            <g id="cake_5">
              <path d="M1012.41,189.84l11.67,48c0,7,21.29,12.63,47.56,12.63s47.57-5.65,47.57-12.63l11.67-48Z" style="fill: #e8c1b0"/>
              <path d="M1114.56,221.53s-9,24.31-11,1c0,0-7.83,22.13-10.95,3.39,0,0-8,19.34-11.17,3,0,0-6,17.2-9.83,1.21h0c-3.83,16-9.82-1.21-9.82-1.21-3.13,16.38-11.17-3-11.17-3-3.12,18.74-11-3.39-11-3.39-2,23.32-11-1-11-1s-.67,12.77-7.18,5.84l2.54,10.44c0,6.93,21,12.55,47,12.63h1.15c26-.08,47-5.7,47-12.63l2.54-10.44C1115.24,234.3,1114.56,221.53,1114.56,221.53Z" style="fill: #70534b;opacity: 0.15;mix-blend-mode: multiply"/>
              <g>
                <path d="M1047.32,197.74a1.21,1.21,0,0,0-1,1.34l6.31,50.3q1.22.15,2.46.27l-6.38-50.87A1.21,1.21,0,0,0,1047.32,197.74Z" style="fill: #e8c1b0"/>
                <path d="M1022.56,193.4a1.2,1.2,0,0,0-.91,1.44l11.5,50.39c.84.31,1.74.6,2.68.89L1024,194.3A1.21,1.21,0,0,0,1022.56,193.4Z" style="fill: #e8c1b0"/>
                <path d="M1060,198.3a1.21,1.21,0,0,0-1.12,1.29l3.46,50.61,2.42.11-3.48-50.89A1.21,1.21,0,0,0,1060,198.3Z" style="fill: #e8c1b0"/>
                <path d="M1034.86,196.69a1.22,1.22,0,0,0-1,1.4l9.1,49.8c.82.17,1.66.32,2.53.47l-9.26-50.71A1.2,1.2,0,0,0,1034.86,196.69Z" style="fill: #e8c1b0"/>
                <path d="M1096,197.74a1.2,1.2,0,0,0-1.34,1l-6.38,50.87q1.24-.12,2.46-.27l6.3-50.3A1.19,1.19,0,0,0,1096,197.74Z" style="fill: #e8c1b0"/>
                <path d="M1120.73,193.4a1.2,1.2,0,0,0-1.44.9l-11.83,51.82c.94-.29,1.83-.58,2.67-.89l11.5-50.39A1.2,1.2,0,0,0,1120.73,193.4Z" style="fill: #e8c1b0"/>
                <path d="M1083.29,198.3a1.21,1.21,0,0,0-1.28,1.12l-3.48,50.89,2.42-.11,3.46-50.61A1.22,1.22,0,0,0,1083.29,198.3Z" style="fill: #e8c1b0"/>
                <path d="M1071.64,199.76a1.21,1.21,0,0,0-1.2,1.21v49.46h2.41V201A1.21,1.21,0,0,0,1071.64,199.76Z" style="fill: #e8c1b0"/>
                <path d="M1108.42,196.69a1.2,1.2,0,0,0-1.4,1l-9.25,50.71c.86-.15,1.71-.3,2.53-.47l9.09-49.8A1.21,1.21,0,0,0,1108.42,196.69Z" style="fill: #e8c1b0"/>
              </g>
              <path d="M1127.94,201.93l2.94-12.09H1012.41l2.78,11.45c12.49,6.24,33.37,10.33,57,10.33C1095.07,211.62,1115.33,207.81,1127.94,201.93Z" style="fill: #70534b;opacity: 0.15;mix-blend-mode: multiply"/>
              <ellipse cx="1071.7" cy="178.49" rx="67.11" ry="27.58" style="fill: #70534b"/>
              <ellipse cx="1071.7" cy="169.04" rx="63.06" ry="18.12" style="fill: #70534b;opacity: 0.15;mix-blend-mode: multiply"/>
              <path d="M1071.7,198.91c-34.1,0-62.25-10.46-66.52-24a11.92,11.92,0,0,0-.58,3.58c0,15.24,30,27.59,67.1,27.59s67.11-12.35,67.11-27.59a11.92,11.92,0,0,0-.58-3.58C1134,188.45,1105.81,198.91,1071.7,198.91Z" style="fill: #70534b"/>
              <ellipse cx="1071.7" cy="152.34" rx="67.11" ry="27.58" style="fill: #ffd478"/>
              <path d="M1071.7,172.76c-34.1,0-62.25-10.46-66.52-24a11.87,11.87,0,0,0-.58,3.58c0,15.23,30,27.58,67.1,27.58s67.11-12.35,67.11-27.58a11.87,11.87,0,0,0-.58-3.58C1134,162.3,1105.81,172.76,1071.7,172.76Z" style="fill: #70534b;opacity: 0.15;mix-blend-mode: multiply"/>
              <path d="M1071.7,124.76c-27.53,0-51.18,6.82-61.53,16.57,1.16,11.69,28.25,21,61.53,21s60.38-9.36,61.53-21C1122.89,131.58,1099.24,124.76,1071.7,124.76Z" style="fill: #70534b;opacity: 0.15;mix-blend-mode: multiply"/>
              <path d="M1022.24,114.43c0-17.55,22.15-39.13,49.46-39.13s49.46,21.58,49.46,39.13-22.14,31.78-49.46,31.78S1022.24,132,1022.24,114.43Z" style="fill: #fae5c5"/>
              <ellipse cx="1071.7" cy="136.71" rx="58.39" ry="20.7" style="fill: #fae5c5"/>
              <path d="M1071.7,149.71c-28.54,0-52.28-7.25-57.37-16.85a8.18,8.18,0,0,0-1,3.85c0,11.43,26.14,20.69,58.39,20.69s58.4-9.26,58.4-20.69a8.18,8.18,0,0,0-1-3.85C1124,142.46,1100.25,149.71,1071.7,149.71Z" style="fill: #70534b;opacity: 0.15;mix-blend-mode: multiply"/>
              <path d="M1032.3,92.52c-6.31,6.8-10.06,14.69-10.06,21.91,0,13.78,13.65,25.5,32.73,29.91h0C1035,137.32,1022.66,113.61,1032.3,92.52Z" style="fill: #70534b;opacity: 0.15;mix-blend-mode: multiply"/>
              <path d="M1111.11,92.52c6.31,6.8,10.05,14.69,10.05,21.91,0,13.78-13.64,25.5-32.73,29.91h0C1108.41,137.32,1120.75,113.61,1111.11,92.52Z" style="fill: #70534b;opacity: 0.15;mix-blend-mode: multiply"/>
              <path d="M1052.46,123.21a7.12,7.12,0,0,1-5.89-3.09c-10.14-14.44-20.09-17.35-20.19-17.38a4.07,4.07,0,1,1,2-7.88c.5.13,12,3.27,23.65,19-.23-7.06-1.46-16.27-5.66-23.12a7.62,7.62,0,0,1,8.37-11.37c6.11,1.57,15.59,5.78,26.42,16.89a38.94,38.94,0,0,0-1.45-12,7.56,7.56,0,0,1,2.24-8,7.47,7.47,0,0,1,8.13-1.23,43.46,43.46,0,0,1,16.58,13,4.07,4.07,0,0,1,8-.1l.07.3a7.46,7.46,0,0,1-4.29,8.56,7.58,7.58,0,0,1-9.33-2.64A34.77,34.77,0,0,0,1087.85,83a49.81,49.81,0,0,1,1.46,14.81,7.63,7.63,0,0,1-13.18,4.94c-9.08-9.57-16.86-13.52-22.12-15.13,5,8.82,6.14,19.91,6.24,27.82a7.72,7.72,0,0,1-5.41,7.44A7.63,7.63,0,0,1,1052.46,123.21Z" style="fill: #70534b"/>
              <path d="M1041.05,126.73s11,21.74,36.73,17.61a38.37,38.37,0,0,0-14.33-6.67C1054.46,135.46,1043.6,128.76,1041.05,126.73Z" style="fill: #e9cdb2"/>
              <path d="M1066.75,134.19s9.16,9.33,19.77,6.28,22.13-15.06,22.73-22C1109.25,118.43,1091.35,139.79,1066.75,134.19Z" style="fill: #e9cdb2"/>
              <path d="M1060.66,129.76a.78.78,0,1,1-.78-.78A.78.78,0,0,1,1060.66,129.76Z" style="fill: #e9cdb2"/>
              <path d="M1068,121.3a1.28,1.28,0,1,1-1.28-1.27A1.27,1.27,0,0,1,1068,121.3Z" style="fill: #e9cdb2"/>
              <path d="M1068.24,127.24a.22.22,0,0,1-.43,0,.21.21,0,0,1,.22-.21A.21.21,0,0,1,1068.24,127.24Z" style="fill: #e9cdb2"/>
              <circle cx="1065.48" cy="130.12" r="0.41" style="fill: #e9cdb2"/>
              <path d="M1052.33,127.24a1.27,1.27,0,1,1-1.27-1.28A1.27,1.27,0,0,1,1052.33,127.24Z" style="fill: #e9cdb2"/>
              <circle cx="1077.19" cy="131.31" r="1.61" style="fill: #e9cdb2"/>
              <circle cx="1084.06" cy="120.03" r="2.08" style="fill: #e9cdb2"/>
              <path d="M1086.77,127.24a1.27,1.27,0,1,1-1.27-1.28A1.27,1.27,0,0,1,1086.77,127.24Z" style="fill: #e9cdb2"/>
              <path d="M1097.59,123.51a.47.47,0,1,1-.47-.47A.47.47,0,0,1,1097.59,123.51Z" style="fill: #e9cdb2"/>
              <path d="M1100.32,119.14a.58.58,0,0,1-.57.57.57.57,0,0,1-.57-.57.56.56,0,0,1,.57-.57A.57.57,0,0,1,1100.32,119.14Z" style="fill: #e9cdb2"/>
              <circle cx="1091.1" cy="118.43" r="1.59" style="fill: #e9cdb2"/>
              <path d="M1077.46,124a1.13,1.13,0,1,1-1.12-1.12A1.13,1.13,0,0,1,1077.46,124Z" style="fill: #e9cdb2"/>
              <path d="M1062.24,124a.49.49,0,1,1-.49-.49A.49.49,0,0,1,1062.24,124Z" style="fill: #e9cdb2"/>
              <circle cx="1092.69" cy="126.73" r="0.87" style="fill: #e9cdb2"/>
              <path d="M1097.92,116a.34.34,0,1,1-.33-.33A.34.34,0,0,1,1097.92,116Z" style="fill: #e9cdb2"/>
              <circle cx="1086.77" cy="114.6" r="1.19" style="fill: #e9cdb2"/>
              <circle cx="1074.64" cy="111.97" r="0.57" style="fill: #e9cdb2"/>
              <g>
                <path d="M1054.84,122.83a7.82,7.82,0,0,0,3.62-2.46c-3.37,1.32-8-1.39-15.06-9.62a42.38,42.38,0,0,0-19.89-13.11s0,.09,0,.14a4.07,4.07,0,0,0,2.92,5c.1,0,10,2.94,20.19,17.38a7.12,7.12,0,0,0,5.89,3.09A7.63,7.63,0,0,0,1054.84,122.83Z" style="fill: #70534b"/>
                <path d="M1076.13,102.7a7.67,7.67,0,0,0,8.28,1.89,7.57,7.57,0,0,0,4.8-5.93c-1.37,3.52-7.26,6.42-11.75.84-5.18-6.44-11.21-8.93-16.2-11.93s-7.25,0-7.25,0C1059.27,89.18,1067.05,93.13,1076.13,102.7Z" style="fill: #70534b"/>
                <path d="M1110.43,96.74a7.46,7.46,0,0,0,4.29-8.56l-.07-.3a4,4,0,0,0-.7-1.5c-2.2,11.26-9,8.28-15.36.79-6.9-8.14-10.63-4.75-10.63-4.75l.28.73A34.74,34.74,0,0,1,1101.1,94.1,7.58,7.58,0,0,0,1110.43,96.74Z" style="fill: #70534b"/>
              </g>
            </g>
            <g id="cake_4">
              <path d="M1109,184.5l12,49.5c0,7.2,22,13,49.07,13s49.07-5.83,49.07-13l12-49.5Z" style="fill: #e7b38e"/>
              <path d="M1214.39,217.21s-9.31,25.07-11.32,1c0,0-8.08,22.84-11.3,3.5,0,0-8.3,20-11.52,3.06,0,0-6.19,17.74-10.14,1.24h0c-3.95,16.5-10.14-1.24-10.14-1.24-3.22,16.9-11.52-3.06-11.52-3.06-3.22,19.34-11.3-3.5-11.3-3.5-2,24.06-11.32-1-11.32-1s-.69,13.17-7.41,6L1121,234c0,7.14,21.65,12.94,48.48,13h1.18c26.83-.08,48.48-5.88,48.48-13l2.62-10.77C1215.08,230.38,1214.39,217.21,1214.39,217.21Z" style="fill: #70534b;opacity: 0.15;mix-blend-mode: multiply"/>
              <g>
                <path d="M1145,192.66a1.24,1.24,0,0,0-1.08,1.38l6.51,51.9c.84.09,1.68.19,2.54.27l-6.58-52.48A1.25,1.25,0,0,0,1145,192.66Z" style="fill: #bd8568"/>
                <path d="M1119.47,188.18a1.24,1.24,0,0,0-.93,1.48l11.86,52c.87.32,1.79.62,2.76.92L1121,189.11A1.23,1.23,0,0,0,1119.47,188.18Z" style="fill: #bd8568"/>
                <path d="M1158.1,193.24a1.26,1.26,0,0,0-1.16,1.32l3.57,52.22,2.5.11-3.59-52.5A1.24,1.24,0,0,0,1158.1,193.24Z" style="fill: #bd8568"/>
                <path d="M1132.16,191.57a1.24,1.24,0,0,0-1,1.45l9.38,51.38c.84.17,1.72.33,2.61.49l-9.55-52.32A1.25,1.25,0,0,0,1132.16,191.57Z" style="fill: #bd8568"/>
                <path d="M1195.21,192.66a1.25,1.25,0,0,0-1.39,1.07l-6.58,52.48c.86-.08,1.7-.18,2.54-.27l6.51-51.9A1.24,1.24,0,0,0,1195.21,192.66Z" style="fill: #bd8568"/>
                <path d="M1220.75,188.18a1.23,1.23,0,0,0-1.49.93l-12.2,53.46c1-.3,1.89-.6,2.76-.92l11.86-52A1.24,1.24,0,0,0,1220.75,188.18Z" style="fill: #bd8568"/>
                <path d="M1182.12,193.24a1.24,1.24,0,0,0-1.32,1.15l-3.59,52.5,2.5-.11,3.57-52.22A1.26,1.26,0,0,0,1182.12,193.24Z" style="fill: #bd8568"/>
                <path d="M1170.11,194.75a1.24,1.24,0,0,0-1.24,1.24v51h2.48V196A1.24,1.24,0,0,0,1170.11,194.75Z" style="fill: #bd8568"/>
                <path d="M1208.06,191.57a1.25,1.25,0,0,0-1.45,1l-9.55,52.32c.89-.16,1.77-.32,2.62-.49l9.37-51.38A1.24,1.24,0,0,0,1208.06,191.57Z" style="fill: #bd8568"/>
              </g>
              <path d="M1228.19,197l3-12.48H1109l2.87,11.82c12.89,6.44,34.43,10.66,58.83,10.66C1194.28,207,1215.18,203,1228.19,197Z" style="fill: #70534b;opacity: 0.15;mix-blend-mode: multiply"/>
              <g>
                <ellipse cx="1170.7" cy="174.68" rx="71.43" ry="24.61" style="fill: #70534b"/>
                <path d="M1170.7,193.88c-36.8,0-67.09-9.58-71-21.9a8.87,8.87,0,0,0-.44,2.7c0,13.59,32,24.6,71.43,24.6s71.43-11,71.43-24.6a8.86,8.86,0,0,0-.43-2.7C1237.79,184.3,1207.5,193.88,1170.7,193.88Z" style="fill: #70534b"/>
                <ellipse cx="1170.7" cy="163.17" rx="63.99" ry="19.52" style="fill: #70534b"/>
                <path d="M1170.7,177c-32.19,0-58.83-7.26-63.31-16.7a6.54,6.54,0,0,0-.68,2.83c0,10.78,28.65,19.52,64,19.52s64-8.74,64-19.52a6.54,6.54,0,0,0-.68-2.83C1229.53,169.78,1202.9,177,1170.7,177Z" style="fill: #70534b"/>
              </g>
              <g>
                <ellipse cx="1170.7" cy="147.87" rx="56.17" ry="21.45" style="fill: #70534b"/>
                <path d="M1170.7,164.62c-28.93,0-52.75-8.36-55.82-19.1a8.56,8.56,0,0,0-.34,2.35c0,11.85,25.14,21.46,56.16,21.46s56.17-9.61,56.17-21.46a8.56,8.56,0,0,0-.34-2.35C1223.46,156.26,1199.64,164.62,1170.7,164.62Z" style="fill: #70534b"/>
                <ellipse cx="1170.7" cy="137.84" rx="50.32" ry="17.02" style="fill: #70534b"/>
                <path d="M1170.7,149.93c-25.31,0-46.25-6.32-49.78-14.55a6.1,6.1,0,0,0-.54,2.46c0,9.4,22.53,17,50.32,17s50.32-7.62,50.32-17a6.09,6.09,0,0,0-.53-2.46C1217,143.61,1196,149.93,1170.7,149.93Z" style="fill: #70534b"/>
              </g>
              <g>
                <ellipse cx="1170.7" cy="124.49" rx="44.93" ry="18.51" style="fill: #70534b"/>
                <path d="M1170.7,138.94c-23.14,0-42.2-7.22-44.65-16.49a7.84,7.84,0,0,0-.28,2c0,10.22,20.12,18.51,44.93,18.51s44.94-8.29,44.94-18.51a7.84,7.84,0,0,0-.28-2C1212.91,131.72,1193.85,138.94,1170.7,138.94Z" style="fill: #70534b"/>
                <ellipse cx="1170.7" cy="115.83" rx="40.25" ry="14.69" style="fill: #70534b"/>
                <path d="M1170.7,126.26c-20.25,0-37-5.46-39.83-12.56a5.81,5.81,0,0,0-.42,2.13c0,8.11,18,14.68,40.25,14.68s40.26-6.57,40.26-14.68a5.63,5.63,0,0,0-.43-2.13C1207.71,120.8,1191,126.26,1170.7,126.26Z" style="fill: #70534b"/>
              </g>
              <path d="M1169.2,57.33s1.84,21.5-12.2,27.43-25.29,11.8-18.68,24.89,58,12.89,64.33,1.25S1204.72,71.38,1169.2,57.33Z" style="fill: #70534b"/>
              <path d="M1202.65,110.9c4.26-7.8,3.72-22.89-7.76-36.22,6.6,22.26-3.31,34.47-20,33.25-14.42-1.05-19.29-16-31.75-16.16-6.15,4.33-9,9.69-4.87,17.88C1144.93,122.74,1196.28,122.54,1202.65,110.9Z" style="fill: #70534b"/>
              <path d="M1157.82,89.84c-4.74,3.72,12.07,17.34,23.19,11.3s-1.83-24.77-3.36-25.79-3.74,10.75-7.54,11.56S1162.94,85.81,1157.82,89.84Z" style="fill: #70534b"/>
              <path d="M1178.52,67.23s5.71,12.14,8.78,11.7S1184.67,67.3,1178.52,67.23Z" style="fill: #70534b"/>
              <g>
                <path d="M1175.8,178.92a5.69,5.69,0,1,1-5.69-5.69A5.69,5.69,0,0,1,1175.8,178.92Z" style="fill: #fff3dd"/>
                <path d="M1170.11,181.31a5.66,5.66,0,0,1-5.41-4,5.69,5.69,0,1,0,10.83,0A5.67,5.67,0,0,1,1170.11,181.31Z" style="fill: #e6d6bf"/>
              </g>
              <g>
                <circle cx="1170.11" cy="126.42" r="5.69" style="fill: #fff3dd"/>
                <path d="M1170.11,128.82a5.67,5.67,0,0,1-5.41-4,5.58,5.58,0,0,0-.27,1.64,5.69,5.69,0,1,0,11.37,0,5.58,5.58,0,0,0-.27-1.64A5.68,5.68,0,0,1,1170.11,128.82Z" style="fill: #e6d6bf"/>
              </g>
              <g>
                <path d="M1159.82,149.33a5.69,5.69,0,1,1-5.68-5.68A5.68,5.68,0,0,1,1159.82,149.33Z" style="fill: #fff3dd"/>
                <path d="M1154.14,151.72a5.66,5.66,0,0,1-5.42-4,5.58,5.58,0,0,0-.27,1.64,5.69,5.69,0,1,0,11.37,0,5.58,5.58,0,0,0-.27-1.64A5.66,5.66,0,0,1,1154.14,151.72Z" style="fill: #e6d6bf"/>
              </g>
              <g>
                <path d="M1190.33,149.33a5.69,5.69,0,1,1-5.69-5.68A5.69,5.69,0,0,1,1190.33,149.33Z" style="fill: #fff3dd"/>
                <path d="M1184.64,151.72a5.66,5.66,0,0,1-5.41-4,5.58,5.58,0,0,0-.27,1.64,5.69,5.69,0,1,0,11.37,0,5.58,5.58,0,0,0-.27-1.64A5.66,5.66,0,0,1,1184.64,151.72Z" style="fill: #e6d6bf"/>
              </g>
              <g>
                <path d="M1131.46,139.83a5.69,5.69,0,1,1-5.69-5.68A5.69,5.69,0,0,1,1131.46,139.83Z" style="fill: #fff3dd"/>
                <path d="M1125.77,142.23a5.67,5.67,0,0,1-5.41-4,5.58,5.58,0,0,0-.27,1.64,5.69,5.69,0,1,0,11.37,0,5.58,5.58,0,0,0-.27-1.64A5.67,5.67,0,0,1,1125.77,142.23Z" style="fill: #e6d6bf"/>
              </g>
              <g>
                <path d="M1221.32,139.83a5.69,5.69,0,1,1-5.68-5.68A5.68,5.68,0,0,1,1221.32,139.83Z" style="fill: #fff3dd"/>
                <path d="M1215.64,142.23a5.67,5.67,0,0,1-5.42-4,5.58,5.58,0,0,0-.27,1.64,5.69,5.69,0,1,0,11.37,0,5.58,5.58,0,0,0-.27-1.64A5.67,5.67,0,0,1,1215.64,142.23Z" style="fill: #e6d6bf"/>
              </g>
              <g>
                <path d="M1145.07,175.2a5.69,5.69,0,1,1-5.69-5.69A5.68,5.68,0,0,1,1145.07,175.2Z" style="fill: #fff3dd"/>
                <path d="M1139.38,177.59a5.66,5.66,0,0,1-5.41-4,5.69,5.69,0,1,0,10.83,0A5.66,5.66,0,0,1,1139.38,177.59Z" style="fill: #e6d6bf"/>
              </g>
              <g>
                <path d="M1145.07,120.74a5.69,5.69,0,1,1-5.69-5.69A5.68,5.68,0,0,1,1145.07,120.74Z" style="fill: #fff3dd"/>
                <path d="M1139.38,123.13a5.67,5.67,0,0,1-5.41-4,5.59,5.59,0,0,0-.27,1.65,5.69,5.69,0,0,0,11.37,0,5.59,5.59,0,0,0-.27-1.65A5.67,5.67,0,0,1,1139.38,123.13Z" style="fill: #e6d6bf"/>
              </g>
              <g>
                <path d="M1206.52,175.2a5.69,5.69,0,1,1-5.68-5.69A5.68,5.68,0,0,1,1206.52,175.2Z" style="fill: #fff3dd"/>
                <path d="M1200.84,177.59a5.66,5.66,0,0,1-5.42-4,5.69,5.69,0,1,0,10.83,0A5.66,5.66,0,0,1,1200.84,177.59Z" style="fill: #e6d6bf"/>
              </g>
              <g>
                <path d="M1206.52,121.06a5.69,5.69,0,1,1-5.68-5.69A5.68,5.68,0,0,1,1206.52,121.06Z" style="fill: #fff3dd"/>
                <path d="M1200.84,123.45a5.66,5.66,0,0,1-5.42-4,5.69,5.69,0,1,0,10.83,0A5.66,5.66,0,0,1,1200.84,123.45Z" style="fill: #e6d6bf"/>
              </g>
              <g>
                <path d="M1118.08,165.54a5.69,5.69,0,1,1-5.69-5.68A5.69,5.69,0,0,1,1118.08,165.54Z" style="fill: #fff3dd"/>
                <path d="M1112.39,167.94a5.67,5.67,0,0,1-5.41-4,5.58,5.58,0,0,0-.27,1.64,5.69,5.69,0,1,0,11.37,0,5.58,5.58,0,0,0-.27-1.64A5.67,5.67,0,0,1,1112.39,167.94Z" style="fill: #e6d6bf"/>
              </g>
              <g>
                <path d="M1234.07,165.54a5.69,5.69,0,1,1-5.68-5.68A5.68,5.68,0,0,1,1234.07,165.54Z" style="fill: #fff3dd"/>
                <path d="M1228.39,167.94a5.68,5.68,0,0,1-5.42-4,5.58,5.58,0,0,0-.27,1.64,5.69,5.69,0,1,0,11.37,0,5.58,5.58,0,0,0-.27-1.64A5.67,5.67,0,0,1,1228.39,167.94Z" style="fill: #e6d6bf"/>
              </g>
            </g>
            <g id="cake_3">
              <path d="M1221.31,191,1233,239c0,7,21.29,12.63,47.56,12.63s47.57-5.65,47.57-12.63l11.67-48Z" style="fill: #e8c1b0"/>
              <path d="M1323.47,222.7s-9,24.31-11,1c0,0-7.83,22.13-11,3.39,0,0-8,19.34-11.17,3,0,0-6,17.2-9.83,1.21h0c-3.83,16-9.82-1.21-9.82-1.21-3.13,16.38-11.17-3-11.17-3-3.12,18.74-11-3.39-11-3.39-1.95,23.32-11-1-11-1s-.67,12.77-7.18,5.84L1233,239c0,6.93,21,12.55,47,12.63h1.15c26-.08,47-5.7,47-12.63l2.54-10.44C1324.14,235.47,1323.47,222.7,1323.47,222.7Z" style="fill: #70534b;opacity: 0.15;mix-blend-mode: multiply"/>
              <g>
                <path d="M1256.22,198.91a1.21,1.21,0,0,0-1,1.34l6.31,50.3c.81.1,1.62.19,2.46.27L1257.57,200A1.22,1.22,0,0,0,1256.22,198.91Z" style="fill: #e8c1b0"/>
                <path d="M1231.47,194.57a1.2,1.2,0,0,0-.91,1.44l11.5,50.39c.84.31,1.74.6,2.67.89l-11.82-51.82A1.21,1.21,0,0,0,1231.47,194.57Z" style="fill: #e8c1b0"/>
                <path d="M1268.91,199.47a1.21,1.21,0,0,0-1.12,1.29l3.46,50.61,2.41.11-3.47-50.89A1.21,1.21,0,0,0,1268.91,199.47Z" style="fill: #e8c1b0"/>
                <path d="M1243.77,197.86a1.21,1.21,0,0,0-1,1.4l9.09,49.8c.83.17,1.67.32,2.54.47l-9.26-50.71A1.2,1.2,0,0,0,1243.77,197.86Z" style="fill: #e8c1b0"/>
                <path d="M1304.88,198.91a1.2,1.2,0,0,0-1.34,1l-6.38,50.87c.83-.08,1.65-.17,2.45-.27l6.31-50.3A1.19,1.19,0,0,0,1304.88,198.91Z" style="fill: #e8c1b0"/>
                <path d="M1329.63,194.57a1.21,1.21,0,0,0-1.44.9l-11.82,51.82c.94-.29,1.83-.58,2.67-.89l11.5-50.39A1.2,1.2,0,0,0,1329.63,194.57Z" style="fill: #e8c1b0"/>
                <path d="M1292.2,199.47a1.22,1.22,0,0,0-1.29,1.12l-3.47,50.89,2.42-.11,3.45-50.61A1.21,1.21,0,0,0,1292.2,199.47Z" style="fill: #e8c1b0"/>
                <path d="M1280.55,200.93a1.21,1.21,0,0,0-1.2,1.21V251.6h2.4V202.14A1.21,1.21,0,0,0,1280.55,200.93Z" style="fill: #e8c1b0"/>
                <path d="M1317.33,197.86a1.2,1.2,0,0,0-1.4,1l-9.25,50.71c.86-.15,1.71-.3,2.53-.47l9.09-49.8A1.21,1.21,0,0,0,1317.33,197.86Z" style="fill: #e8c1b0"/>
              </g>
              <path d="M1336.85,203.1l2.94-12.09H1221.31l2.79,11.45c12.49,6.24,33.37,10.33,57,10.33C1304,212.79,1324.24,209,1336.85,203.1Z" style="fill: #70534b;opacity: 0.15;mix-blend-mode: multiply"/>
              <ellipse cx="1280.61" cy="179.66" rx="67.11" ry="27.58" style="fill: #70534b"/>
              <ellipse cx="1280.61" cy="170.21" rx="63.06" ry="18.12" style="fill: #70534b;opacity: 0.15;mix-blend-mode: multiply"/>
              <path d="M1280.61,200.08c-34.1,0-62.25-10.46-66.52-24a11.93,11.93,0,0,0-.59,3.58c0,15.24,30,27.59,67.11,27.59s67.11-12.35,67.11-27.59a11.92,11.92,0,0,0-.58-3.58C1342.86,189.62,1314.72,200.08,1280.61,200.08Z" style="fill: #70534b"/>
              <ellipse cx="1280.61" cy="153.51" rx="67.11" ry="27.58" style="fill: #ffd478"/>
              <path d="M1280.61,173.93c-34.1,0-62.25-10.46-66.52-24a11.88,11.88,0,0,0-.59,3.58c0,15.23,30,27.58,67.11,27.58s67.11-12.35,67.11-27.58a11.87,11.87,0,0,0-.58-3.58C1342.86,163.47,1314.72,173.93,1280.61,173.93Z" style="fill: #70534b;opacity: 0.15;mix-blend-mode: multiply"/>
              <path d="M1280.61,125.93c-27.53,0-51.18,6.82-61.53,16.57,1.16,11.69,28.25,21.05,61.53,21.05s60.38-9.36,61.53-21.05C1331.8,132.75,1308.15,125.93,1280.61,125.93Z" style="fill: #70534b;opacity: 0.15;mix-blend-mode: multiply"/>
              <path d="M1231.15,115.6c0-17.55,22.15-39.13,49.46-39.13s49.46,21.58,49.46,39.13-22.14,31.78-49.46,31.78S1231.15,133.15,1231.15,115.6Z" style="fill: #fae5c5"/>
              <ellipse cx="1280.61" cy="137.88" rx="58.39" ry="20.7" style="fill: #fae5c5"/>
              <path d="M1280.61,150.88c-28.54,0-52.28-7.25-57.37-16.85a8.18,8.18,0,0,0-1,3.85c0,11.43,26.14,20.69,58.39,20.69s58.4-9.26,58.4-20.69a8.18,8.18,0,0,0-1-3.85C1332.9,143.63,1309.15,150.88,1280.61,150.88Z" style="fill: #70534b;opacity: 0.15;mix-blend-mode: multiply"/>
              <path d="M1241.2,93.69c-6.3,6.8-10,14.69-10,21.91,0,13.78,13.65,25.5,32.73,29.91h0C1243.91,138.49,1231.57,114.78,1241.2,93.69Z" style="fill: #70534b;opacity: 0.15;mix-blend-mode: multiply"/>
              <path d="M1320,93.69c6.3,6.8,10,14.69,10,21.91,0,13.78-13.65,25.5-32.73,29.91h0C1317.32,138.49,1329.66,114.78,1320,93.69Z" style="fill: #70534b;opacity: 0.15;mix-blend-mode: multiply"/>
              <path d="M1261.37,124.38a7.12,7.12,0,0,1-5.89-3.09c-10.14-14.44-20.09-17.35-20.19-17.38a4.07,4.07,0,1,1,2-7.88c.5.13,12,3.27,23.65,19-.23-7.06-1.46-16.27-5.66-23.12a7.62,7.62,0,0,1,8.37-11.37c6.11,1.57,15.59,5.78,26.42,16.89a39.25,39.25,0,0,0-1.45-12,7.58,7.58,0,0,1,2.23-8,7.49,7.49,0,0,1,8.14-1.23,43.53,43.53,0,0,1,16.58,13,4.07,4.07,0,0,1,8-.1l.07.3a7.46,7.46,0,0,1-4.29,8.56,7.58,7.58,0,0,1-9.33-2.64,34.72,34.72,0,0,0-13.26-11.15,49.47,49.47,0,0,1,1.47,14.81,7.63,7.63,0,0,1-13.18,4.94c-9.08-9.57-16.86-13.52-22.12-15.13,5,8.82,6.14,19.91,6.24,27.82a7.82,7.82,0,0,1-7.79,7.82Z" style="fill: #70534b"/>
              <path d="M1250,127.9s10.94,21.74,36.73,17.61a38.37,38.37,0,0,0-14.34-6.67C1263.36,136.63,1252.51,129.93,1250,127.9Z" style="fill: #e9cdb2"/>
              <path d="M1275.66,135.36s9.16,9.33,19.77,6.28,22.13-15.06,22.73-22C1318.16,119.6,1300.26,141,1275.66,135.36Z" style="fill: #e9cdb2"/>
              <path d="M1269.57,130.93a.77.77,0,0,1-.78.77.76.76,0,0,1-.77-.77.77.77,0,0,1,.77-.78A.78.78,0,0,1,1269.57,130.93Z" style="fill: #e9cdb2"/>
              <path d="M1276.93,122.47a1.27,1.27,0,1,1-1.27-1.27A1.27,1.27,0,0,1,1276.93,122.47Z" style="fill: #e9cdb2"/>
              <path d="M1277.15,128.41a.22.22,0,0,1-.43,0,.21.21,0,0,1,.21-.21A.21.21,0,0,1,1277.15,128.41Z" style="fill: #e9cdb2"/>
              <circle cx="1274.39" cy="131.29" r="0.41" style="fill: #e9cdb2"/>
              <path d="M1261.24,128.41a1.27,1.27,0,1,1-1.27-1.28A1.27,1.27,0,0,1,1261.24,128.41Z" style="fill: #e9cdb2"/>
              <circle cx="1286.1" cy="132.48" r="1.61" style="fill: #e9cdb2"/>
              <circle cx="1292.97" cy="121.2" r="2.08" style="fill: #e9cdb2"/>
              <path d="M1295.68,128.41a1.27,1.27,0,1,1-1.27-1.28A1.27,1.27,0,0,1,1295.68,128.41Z" style="fill: #e9cdb2"/>
              <path d="M1306.49,124.68a.46.46,0,0,1-.46.46.47.47,0,1,1,0-.93A.46.46,0,0,1,1306.49,124.68Z" style="fill: #e9cdb2"/>
              <path d="M1309.23,120.31a.58.58,0,1,1-.57-.57A.57.57,0,0,1,1309.23,120.31Z" style="fill: #e9cdb2"/>
              <circle cx="1300.01" cy="119.6" r="1.59" style="fill: #e9cdb2"/>
              <path d="M1286.37,125.14a1.13,1.13,0,1,1-1.12-1.12A1.13,1.13,0,0,1,1286.37,125.14Z" style="fill: #e9cdb2"/>
              <path d="M1271.15,125.14a.49.49,0,1,1-.49-.49A.49.49,0,0,1,1271.15,125.14Z" style="fill: #e9cdb2"/>
              <circle cx="1301.6" cy="127.9" r="0.87" style="fill: #e9cdb2"/>
              <path d="M1306.83,117.18a.34.34,0,1,1-.67,0,.34.34,0,0,1,.67,0Z" style="fill: #e9cdb2"/>
              <circle cx="1295.68" cy="115.77" r="1.19" style="fill: #e9cdb2"/>
              <circle cx="1283.55" cy="113.14" r="0.57" style="fill: #e9cdb2"/>
              <g>
                <path d="M1263.75,124a7.87,7.87,0,0,0,3.62-2.46c-3.37,1.32-8-1.39-15.06-9.62a42.38,42.38,0,0,0-19.89-13.11s0,.09-.05.14a4.07,4.07,0,0,0,2.92,5c.1,0,10,2.94,20.19,17.38a7.12,7.12,0,0,0,5.89,3.09A7.68,7.68,0,0,0,1263.75,124Z" style="fill: #70534b"/>
                <path d="M1285,103.87a7.67,7.67,0,0,0,8.28,1.89,7.57,7.57,0,0,0,4.8-5.93c-1.37,3.52-7.26,6.42-11.75.84-5.18-6.44-11.22-8.93-16.2-11.93s-7.25,0-7.25,0C1268.18,90.35,1276,94.3,1285,103.87Z" style="fill: #70534b"/>
                <path d="M1319.34,97.91a7.46,7.46,0,0,0,4.29-8.56l-.07-.3a4.14,4.14,0,0,0-.7-1.5c-2.2,11.26-9,8.28-15.36.79-6.9-8.14-10.63-4.75-10.63-4.75l.28.73a34.74,34.74,0,0,1,12.86,11A7.58,7.58,0,0,0,1319.34,97.91Z" style="fill: #70534b"/>
              </g>
            </g>
            <g id="cake_2">
              <path d="M1310.54,188.68l7.63,65.51c-.91,9.32,23.71,19.36,55,22.41s57.37-2,58.28-11.36l20.15-62.79Z" style="fill: #70534b"/>
              <path d="M1428,242.93s-13.91,31.45-13.19,0c0,0-12.21,28.69-13.48,3.27,0,0-12.1,24.93-13.68,2.66,0,0-9.39,22.3-11.86.47v0c-6.65,20.94-11.54-2.75-11.54-2.75-5.86,21.54-12.91-5.26-12.91-5.26-6.16,24.7-12.6-5.81-12.6-5.81-5.36,30.95-12.93-2.59-12.93-2.59s-2.47,17-9.32,7l1.66,14.25c-.9,9.26,23.35,19.21,54.3,22.34h0l.25,0,.43.05h0l.43,0,.26,0h0c31,2.91,56.69-2.16,57.59-11.42l4.39-13.66C1427.16,260.08,1428,242.93,1428,242.93Z" style="fill: #70534b;opacity: 0.15;mix-blend-mode: multiply"/>
              <g>
                <path d="M1351.07,203.31a1.58,1.58,0,0,0-1.42,1.67l.94,68,2.9.64-1-68.75A1.48,1.48,0,0,0,1351.07,203.31Z" style="fill: #bd8568"/>
                <path d="M1322.16,194.62a1.63,1.63,0,0,0-1.27,1.82l7.12,68.72c1,.51,2,1,3.07,1.5L1323.76,196A1.45,1.45,0,0,0,1322.16,194.62Z" style="fill: #bd8568"/>
                <path d="M1366.09,205.54a1.57,1.57,0,0,0-1.5,1.58l-2.48,68.07,2.86.43,2.5-68.44A1.5,1.5,0,0,0,1366.09,205.54Z" style="fill: #bd8568"/>
                <path d="M1336.38,200.45a1.64,1.64,0,0,0-1.34,1.76l4.33,67.65c1,.32,1.94.63,3,.93l-4.4-68.88A1.47,1.47,0,0,0,1336.38,200.45Z" style="fill: #bd8568"/>
                <path d="M1409,209a1.48,1.48,0,0,0-1.73,1.24L1393,277.47c1,0,2,0,3-.07l14.07-66.52A1.6,1.6,0,0,0,1409,209Z" style="fill: #bd8568"/>
                <path d="M1439,206a1.44,1.44,0,0,0-1.83,1L1416.36,275c1.15-.27,2.25-.57,3.29-.88l20.27-66A1.63,1.63,0,0,0,1439,206Z" style="fill: #bd8568"/>
                <path d="M1393.82,208.24a1.51,1.51,0,0,0-1.67,1.35l-10.78,67.63,2.89.14L1395,210.09A1.57,1.57,0,0,0,1393.82,208.24Z" style="fill: #bd8568"/>
                <path d="M1379.76,208.84a1.53,1.53,0,0,0-1.58,1.47l-6.46,66.14,1.43.15h0l1.44.13,6.45-66.14A1.54,1.54,0,0,0,1379.76,208.84Z" style="fill: #bd8568"/>
                <path d="M1424,209a1.46,1.46,0,0,0-1.79,1.13l-17.63,66.73c1-.1,2.07-.22,3.07-.34L1424.92,211A1.61,1.61,0,0,0,1424,209Z" style="fill: #bd8568"/>
              </g>
              <path d="M1446.5,218.27l5.08-15.82-141-13.77,1.82,15.65c14.05,9.79,38.38,17.68,66.54,20.43C1406.11,227.42,1430.73,224.67,1446.5,218.27Z" style="fill: #70534b;opacity: 0.15;mix-blend-mode: multiply"/>
              <ellipse cx="1382.61" cy="180.41" rx="37.05" ry="80.27" transform="translate(1068.78 1538.96) rotate(-84.43)" style="fill: #d8a06d"/>
              <path d="M1386.21,143.53c-31.21-3.05-59,2.59-73.36,13.35,5.51,17.86,33.48,33.56,68.45,37s65.45-6.58,74.3-23C1443.63,157.48,1417.42,146.58,1386.21,143.53Z" style="fill: #d8a06d"/>
              <path d="M1380,207.71c-40.61-4-72.75-21.22-76.07-39.82a17.63,17.63,0,0,0-1.16,4.72c-2,20.37,32.17,40.37,76.29,44.68s81.51-8.72,83.5-29.09a17.55,17.55,0,0,0-.23-4.85C1455.43,201,1420.55,211.67,1380,207.71Z" style="fill: #d8a06d"/>
              <path d="M1440.24,127c7.64-13,3.09-33.11-22.11-52.82-26.3-20.57-23.3-45.3-23.3-45.3-28.77,32.64,6.24,58.36-33.39,69.61-30.47,8.64-42.48,27.2-46.41,35.32a21,21,0,0,0-1.32,3c-.22.57-.32.91-.32.91h0a19.87,19.87,0,0,0-.78,3.92c-2.06,21.1,29,41.4,69.35,45.34s74.75-10,76.81-31.08C1459.8,145.48,1452.64,135.2,1440.24,127Z" style="fill: #e8c1b0"/>
              <g>
                <path d="M1455.7,150.06a39.26,39.26,0,0,0-10.37-19.31c-1.58-1.28-3.27-2.53-5.09-3.73l.32-.58-.35-.27c1.53-6.84,2.36-24-17.83-46.75-1.62-1.83-3.08-3.61-4.41-5.35a63,63,0,0,1-18-21.68c1.89,8.67,6.72,19.74,17.77,32.22,22.34,25.23,15.78,41.46,15.73,41.58l-1.46,3.17,2.76,1.65c.12.07,11.89,7.28,14.61,20.8,1.49,7.39,0,15.4-4.47,23.86a34.21,34.21,0,0,0,10.74-10.52A38.16,38.16,0,0,0,1455.7,150.06Z" style="fill: #fae5c5"/>
                <path d="M1395.56,142.77l1.4-2-1.27-2.09c0-.07-3.88-7.47,1.55-26.08,3.37-11.58,0-17.59-3.84-24.55-4-7.21-9-16.19-9.2-36.45a3.66,3.66,0,0,0-.61-2c-2.84,11.38-.66,21.45-1.65,29.77A77.58,77.58,0,0,0,1387.86,92c3.63,6.54,5.63,10.13,3.2,18.48-4.81,16.52-3.22,25.85-1.86,29.92a70.45,70.45,0,0,0-9.77,46.4c.84.09,1.68.2,2.53.28,1.4.13,2.79.24,4.17.34A62.53,62.53,0,0,1,1395.56,142.77Z" style="fill: #fae5c5"/>
                <path d="M1421.11,185.05c8.53-11.4,12.08-21.77,10.54-31a25.58,25.58,0,0,0-11.33-16.93,25.09,25.09,0,0,0,5.26-12.65c1.43-11.39-4.1-24.26-16.42-38.27-16.73-19-16.92-37.94-14.16-50.45a33.34,33.34,0,0,1-.17-6.9,55,55,0,0,0-6.93,9.73c-2.05,14.07-.3,33.61,16.58,52.8,10.65,12.11,15.73,23.21,14.68,32.11A16.71,16.71,0,0,1,1413,135l-5.89,4,6.36,2.57c.1,0,10.22,4.24,11.85,14.14,1.38,8.36-3.57,19.06-14.32,31.15Q1416.23,186.13,1421.11,185.05Z" style="fill: #fae5c5"/>
                <path d="M1353.5,160.79c3.69-9.56,11.27-16.62,22.53-21l5.43-2.1-4.28-4.12c-.45-.44-10.9-10.8.09-27.57,5.08-7.76,5.58-16,4-23.35a17.09,17.09,0,0,1-5.91,9.26,20.86,20.86,0,0,1-3.35,9.87c-10,15.19-6,27-2.41,33-10.73,5.18-18.16,13-22.11,23.21a52.15,52.15,0,0,0-3.22,19.66q3.21,1.38,6.65,2.61A45.64,45.64,0,0,1,1353.5,160.79Z" style="fill: #fae5c5"/>
                <path d="M1325.28,144.46c6.17-16,22.64-21.82,22.8-21.88l2.63-.9-.28-3a38.3,38.3,0,0,1,2.17-17.16c-2.79,1.09-5.38,2.26-7.81,3.5a47.08,47.08,0,0,0-1,11.67c-5.52,2.49-18.52,9.78-24.43,25a44.28,44.28,0,0,0-2.91,14.74,40.39,40.39,0,0,0,7,8.31A39.29,39.29,0,0,1,1325.28,144.46Z" style="fill: #fae5c5"/>
              </g>
              <g style="opacity: 0.5;mix-blend-mode: multiply">
                <path d="M1361.44,98.51a89.35,89.35,0,0,0-18.53,7.46c28.88-7,69.37,1.86,49.21-23.83a66.51,66.51,0,0,1-10.06-17.49C1382.17,80,1385,91.82,1361.44,98.51Z" style="fill: #e8c1b0"/>
                <path d="M1458.77,156a21.12,21.12,0,0,0-.81-8.08c-6.88,10.38-21.78,23.42-53.48,24.91-47.7,2.24-60.65-15.42-77-55.63a58.79,58.79,0,0,0-12.4,16.66,21,21,0,0,0-1.32,3c-.22.57-.32.91-.32.91h0a19.87,19.87,0,0,0-.78,3.92c-2.06,21.1,29,41.4,69.35,45.34S1456.71,177.07,1458.77,156Z" style="fill: #e8c1b0"/>
                <path d="M1380,134.23c26.91,20,61.06,5.09,69.9.65a57.29,57.29,0,0,0-9.63-7.86,26,26,0,0,0,2.76-18.59C1436.78,147.62,1380,134.23,1380,134.23Z" style="fill: #e8c1b0"/>
              </g>
            </g>
            <g id="cake_1">
              <path d="M525.91,202.6l12,49.5c0,7.19,22,13,49.07,13s49.07-5.84,49.07-13l12-49.5Z" style="fill: #e7b38e"/>
              <path d="M631.3,235.3s-9.31,25.07-11.32,1c0,0-8.08,22.83-11.3,3.5,0,0-8.3,19.95-11.52,3.05,0,0-6.19,17.74-10.14,1.25h0c-3.95,16.49-10.14-1.25-10.14-1.25-3.22,16.9-11.52-3.05-11.52-3.05-3.22,19.33-11.3-3.5-11.3-3.5-2,24.05-11.32-1-11.32-1s-.69,13.17-7.41,6L538,252.1c0,7.14,21.65,12.94,48.48,13h1.18c26.83-.08,48.48-5.88,48.48-13l2.62-10.77C632,248.47,631.3,235.3,631.3,235.3Z" style="fill: #70534b;opacity: 0.15;mix-blend-mode: multiply"/>
              <g>
                <path d="M561.92,210.75a1.25,1.25,0,0,0-1.08,1.39L567.35,264l2.54.28-6.58-52.48A1.25,1.25,0,0,0,561.92,210.75Z" style="fill: #bd8568"/>
                <path d="M536.38,206.27a1.23,1.23,0,0,0-.93,1.49l11.86,52c.87.31,1.79.62,2.76.91l-12.2-53.45A1.25,1.25,0,0,0,536.38,206.27Z" style="fill: #bd8568"/>
                <path d="M575,211.34a1.24,1.24,0,0,0-1.16,1.32l3.57,52.21c.82.05,1.66.08,2.49.12l-3.58-52.5A1.24,1.24,0,0,0,575,211.34Z" style="fill: #bd8568"/>
                <path d="M549.07,209.67a1.23,1.23,0,0,0-1,1.44l9.37,51.38c.85.17,1.73.34,2.62.49l-9.55-52.31A1.24,1.24,0,0,0,549.07,209.67Z" style="fill: #bd8568"/>
                <path d="M612.12,210.75a1.25,1.25,0,0,0-1.39,1.08l-6.58,52.48,2.54-.28,6.5-51.89A1.25,1.25,0,0,0,612.12,210.75Z" style="fill: #bd8568"/>
                <path d="M637.66,206.27a1.25,1.25,0,0,0-1.49.94L624,260.66c1-.29,1.89-.6,2.76-.91l11.86-52A1.25,1.25,0,0,0,637.66,206.27Z" style="fill: #bd8568"/>
                <path d="M599,211.34a1.24,1.24,0,0,0-1.32,1.15L594.12,265c.84,0,1.67-.07,2.5-.12l3.57-52.21A1.25,1.25,0,0,0,599,211.34Z" style="fill: #bd8568"/>
                <path d="M587,212.84a1.25,1.25,0,0,0-1.24,1.24v51h2.48v-51A1.25,1.25,0,0,0,587,212.84Z" style="fill: #bd8568"/>
                <path d="M625,209.67a1.24,1.24,0,0,0-1.44,1L614,263c.89-.15,1.76-.32,2.61-.49L626,211.11A1.24,1.24,0,0,0,625,209.67Z" style="fill: #bd8568"/>
              </g>
              <path d="M645.1,215.07l3-12.47H525.91l2.87,11.82c12.89,6.44,34.42,10.66,58.83,10.66C611.19,225.08,632.09,221.14,645.1,215.07Z" style="fill: #70534b;opacity: 0.15;mix-blend-mode: multiply"/>
              <g>
                <ellipse cx="587.61" cy="192.77" rx="71.43" ry="24.61" style="fill: #70534b"/>
                <path d="M587.61,212c-36.8,0-67.09-9.59-71-21.91a9,9,0,0,0-.44,2.7c0,13.59,32,24.61,71.43,24.61s71.43-11,71.43-24.61a9,9,0,0,0-.43-2.7C654.7,202.39,624.41,212,587.61,212Z" style="fill: #70534b"/>
                <ellipse cx="587.61" cy="181.26" rx="63.99" ry="19.52" style="fill: #70534b"/>
                <path d="M587.61,195.13c-32.19,0-58.83-7.25-63.32-16.69a6.63,6.63,0,0,0-.67,2.82c0,10.78,28.65,19.52,64,19.52s64-8.74,64-19.52a6.5,6.5,0,0,0-.68-2.82C646.44,187.88,619.81,195.13,587.61,195.13Z" style="fill: #70534b"/>
              </g>
              <g>
                <ellipse cx="587.61" cy="165.97" rx="56.17" ry="21.45" style="fill: #70534b"/>
                <path d="M587.61,182.72c-28.93,0-52.75-8.36-55.82-19.1a8.51,8.51,0,0,0-.34,2.35c0,11.85,25.14,21.45,56.16,21.45s56.17-9.6,56.17-21.45a8.51,8.51,0,0,0-.34-2.35C640.37,174.36,616.55,182.72,587.61,182.72Z" style="fill: #70534b"/>
                <ellipse cx="587.61" cy="155.94" rx="50.32" ry="17.02" style="fill: #70534b"/>
                <path d="M587.61,168c-25.31,0-46.26-6.33-49.79-14.56a6.34,6.34,0,0,0-.53,2.47c0,9.39,22.53,17,50.32,17s50.32-7.62,50.32-17a6.17,6.17,0,0,0-.53-2.47C633.87,161.7,612.93,168,587.61,168Z" style="fill: #70534b"/>
              </g>
              <g>
                <ellipse cx="587.61" cy="142.58" rx="44.93" ry="18.51" style="fill: #70534b"/>
                <path d="M587.61,157c-23.15,0-42.2-7.21-44.65-16.48a7.82,7.82,0,0,0-.28,2c0,10.23,20.12,18.51,44.93,18.51s44.93-8.28,44.93-18.51a7.81,7.81,0,0,0-.27-2C629.81,149.82,610.76,157,587.61,157Z" style="fill: #70534b"/>
                <ellipse cx="587.61" cy="133.92" rx="40.25" ry="14.69" style="fill: #70534b"/>
                <path d="M587.61,144.36c-20.25,0-37-5.46-39.83-12.56a5.8,5.8,0,0,0-.42,2.12c0,8.11,18,14.69,40.25,14.69s40.26-6.58,40.26-14.69a5.62,5.62,0,0,0-.43-2.12C624.62,138.9,607.86,144.36,587.61,144.36Z" style="fill: #70534b"/>
              </g>
              <path d="M586.11,75.43s1.84,21.5-12.2,27.42-25.29,11.81-18.68,24.9,58,12.89,64.33,1.24S621.63,89.48,586.11,75.43Z" style="fill: #70534b"/>
              <path d="M619.56,129c4.26-7.8,3.72-22.88-7.77-36.21,6.61,22.26-3.31,34.46-19.94,33.25-14.42-1-19.29-16-31.75-16.16-6.15,4.32-9,9.69-4.87,17.88C561.83,140.83,613.19,140.64,619.56,129Z" style="fill: #70534b"/>
              <path d="M574.73,107.93c-4.74,3.73,12.07,17.34,23.19,11.31s-1.83-24.77-3.37-25.79S590.82,104.2,587,105,579.85,103.91,574.73,107.93Z" style="fill: #70534b"/>
              <path d="M595.43,85.33s5.71,12.14,8.78,11.7S601.58,85.4,595.43,85.33Z" style="fill: #70534b"/>
              <g>
                <path d="M592.71,197a5.69,5.69,0,1,1-5.69-5.69A5.68,5.68,0,0,1,592.71,197Z" style="fill: #fff3dd"/>
                <path d="M587,199.41a5.68,5.68,0,0,1-5.42-4,6,6,0,0,0-.27,1.65,5.69,5.69,0,1,0,11.1-1.65A5.66,5.66,0,0,1,587,199.41Z" style="fill: #e6d6bf"/>
              </g>
              <g>
                <circle cx="587.02" cy="144.52" r="5.69" style="fill: #fff3dd"/>
                <path d="M587,146.91a5.68,5.68,0,0,1-5.42-4,6,6,0,0,0-.27,1.65,5.69,5.69,0,1,0,11.1-1.65A5.66,5.66,0,0,1,587,146.91Z" style="fill: #e6d6bf"/>
              </g>
              <g>
                <path d="M576.73,167.43a5.69,5.69,0,1,1-5.68-5.69A5.68,5.68,0,0,1,576.73,167.43Z" style="fill: #fff3dd"/>
                <path d="M571.05,169.82a5.67,5.67,0,0,1-5.42-4,5.69,5.69,0,1,0,10.83,0A5.67,5.67,0,0,1,571.05,169.82Z" style="fill: #e6d6bf"/>
              </g>
              <g>
                <path d="M607.24,167.43a5.69,5.69,0,1,1-5.69-5.69A5.68,5.68,0,0,1,607.24,167.43Z" style="fill: #fff3dd"/>
                <path d="M601.55,169.82a5.67,5.67,0,0,1-5.41-4,5.69,5.69,0,1,0,10.83,0A5.67,5.67,0,0,1,601.55,169.82Z" style="fill: #e6d6bf"/>
              </g>
              <g>
                <path d="M548.37,157.93a5.69,5.69,0,1,1-5.69-5.68A5.69,5.69,0,0,1,548.37,157.93Z" style="fill: #fff3dd"/>
                <path d="M542.68,160.32a5.66,5.66,0,0,1-5.41-4,5.52,5.52,0,0,0-.27,1.64,5.69,5.69,0,1,0,11.37,0,5.87,5.87,0,0,0-.27-1.64A5.67,5.67,0,0,1,542.68,160.32Z" style="fill: #e6d6bf"/>
              </g>
              <g>
                <path d="M638.23,157.93a5.69,5.69,0,1,1-5.69-5.68A5.69,5.69,0,0,1,638.23,157.93Z" style="fill: #fff3dd"/>
                <path d="M632.54,160.32a5.66,5.66,0,0,1-5.41-4,5.52,5.52,0,0,0-.27,1.64,5.69,5.69,0,1,0,11.37,0,5.52,5.52,0,0,0-.27-1.64A5.66,5.66,0,0,1,632.54,160.32Z" style="fill: #e6d6bf"/>
              </g>
              <g>
                <path d="M562,193.3a5.69,5.69,0,1,1-5.69-5.69A5.68,5.68,0,0,1,562,193.3Z" style="fill: #fff3dd"/>
                <path d="M556.29,195.69a5.67,5.67,0,0,1-5.41-4,5.59,5.59,0,0,0-.27,1.65,5.69,5.69,0,0,0,11.37,0,5.59,5.59,0,0,0-.27-1.65A5.67,5.67,0,0,1,556.29,195.69Z" style="fill: #e6d6bf"/>
              </g>
              <g>
                <path d="M562,138.83a5.69,5.69,0,1,1-5.69-5.68A5.69,5.69,0,0,1,562,138.83Z" style="fill: #fff3dd"/>
                <path d="M556.29,141.23a5.67,5.67,0,0,1-5.41-4,5.58,5.58,0,0,0-.27,1.64,5.69,5.69,0,1,0,11.37,0,5.58,5.58,0,0,0-.27-1.64A5.67,5.67,0,0,1,556.29,141.23Z" style="fill: #e6d6bf"/>
              </g>
              <g>
                <path d="M623.43,193.3a5.69,5.69,0,1,1-5.68-5.69A5.68,5.68,0,0,1,623.43,193.3Z" style="fill: #fff3dd"/>
                <path d="M617.75,195.69a5.67,5.67,0,0,1-5.42-4,5.59,5.59,0,0,0-.27,1.65,5.69,5.69,0,0,0,11.37,0,5.59,5.59,0,0,0-.27-1.65A5.67,5.67,0,0,1,617.75,195.69Z" style="fill: #e6d6bf"/>
              </g>
              <g>
                <path d="M623.43,139.16a5.69,5.69,0,1,1-5.68-5.69A5.68,5.68,0,0,1,623.43,139.16Z" style="fill: #fff3dd"/>
                <path d="M617.75,141.55a5.67,5.67,0,0,1-5.42-4,5.59,5.59,0,0,0-.27,1.65,5.69,5.69,0,0,0,11.37,0,5.59,5.59,0,0,0-.27-1.65A5.67,5.67,0,0,1,617.75,141.55Z" style="fill: #e6d6bf"/>
              </g>
              <g>
                <path d="M535,183.64A5.69,5.69,0,1,1,529.3,178,5.68,5.68,0,0,1,535,183.64Z" style="fill: #fff3dd"/>
                <path d="M529.3,186a5.67,5.67,0,0,1-5.41-4,5.69,5.69,0,1,0,10.83,0A5.67,5.67,0,0,1,529.3,186Z" style="fill: #e6d6bf"/>
              </g>
              <g>
                <path d="M651,183.64A5.69,5.69,0,1,1,645.3,178,5.68,5.68,0,0,1,651,183.64Z" style="fill: #fff3dd"/>
                <path d="M645.3,186a5.67,5.67,0,0,1-5.42-4,5.69,5.69,0,1,0,10.83,0A5.67,5.67,0,0,1,645.3,186Z" style="fill: #e6d6bf"/>
              </g>
            </g>
          </g>
        </g>
      </g>
    </g>
  </g>
</svg>
