<svg id="woman_happy" xmlns="http://www.w3.org/2000/svg" viewBox="0 0 1366.67 768.5">
  <title>about</title>
  <g id="desk">
    <g id="rainbow">
      <g id="rainbow_7" class="animation-element rainbow rainbow-1 opacity-0">
        <path d="M0,0H205.82l453,724h0c-6.78,0-13.39-3.32-18.92-9.49Z" transform="translate(0 0.5)" style="fill: #c5948c"/>
      </g>
      <g id="rainbow_6" class="animation-element rainbow rainbow-2 opacity-0">
        <polygon points="193.35 0.5 399.17 0.5 668.59 724.5 658.17 724.5 193.35 0.5" style="fill: #d8a06d"/>
      </g>
      <g id="rainbow_5" class="animation-element rainbow rainbow-3 opacity-0">
        <polygon points="386.7 0.5 592.52 0.5 678.38 724.5 667.96 724.5 386.7 0.5" style="fill: #e8c1b0"/>
      </g>
      <g id="rainbow_4" class="animation-element rainbow rainbow-4 opacity-0">
        <polygon points="580.04 0.5 785.87 0.5 688.17 724.5 677.75 724.5 580.04 0.5" style="fill: #fff;stroke: #fff;stroke-miterlimit: 10"/>
      </g>
      <g id="rainbow_3" class="animation-element rainbow rainbow-3 opacity-0">
        <polygon points="773.39 0.5 979.22 0.5 697.95 724.5 687.53 724.5 773.39 0.5" style="fill: #e8c1b0"/>
      </g>
      <g id="rainbow_2" class="animation-element rainbow rainbow-2 opacity-0">
        <polygon points="966.74 0.5 1172.56 0.5 707.74 724.5 697.32 724.5 966.74 0.5" style="fill: #d8a06d"/>
      </g>
      <g id="rainbow_1" class="animation-element rainbow rainbow-1 opacity-0">
        <path d="M1160.09,0h205.82L726,714.51c-5.53,6.17-12.14,9.49-18.92,9.49h0Z" transform="translate(0 0.5)" style="fill: #70534b"/>
      </g>
    </g>
    <g id="clouds_right" class="opacity-0 animation-element clouds clouds-right">
      <path d="M1058.81,597.78a132.18,132.18,0,0,0-48.14,32.37,65.17,65.17,0,0,1,30.79,14A96.28,96.28,0,0,1,1058.81,597.78Z" transform="translate(0 0.5)" style="fill: #fbf1e2"/>
      <path d="M1165.2,553.38a85.28,85.28,0,0,1-4-25.85c0-29.72,15.31-56.11,39-72.64-43.32,15.63-74.32,54.37-75.69,100a115.35,115.35,0,0,1,24.71-2.66A117.61,117.61,0,0,1,1165.2,553.38Z" transform="translate(0 0.5)" style="fill: #fbf1e2"/>
      <path d="M1366.67,552.41c-.14-2.48-.37-4.93-.67-7.36v7.39Z" transform="translate(0 0.5)" style="fill: #fbf1e2"/>
      <path d="M1355.9,553.38c3.32-.46,6.69-.76,10.1-.94v-7.39a104.14,104.14,0,0,0-6.41-25.12c.22,2.51.34,5,.34,7.6A85,85,0,0,1,1355.9,553.38Z" transform="translate(0 0.5)" style="fill: #fbf1e2"/>
      <path d="M1361.91,589.61c1.35-.19,2.72-.35,4.09-.5V571A104.14,104.14,0,0,1,1361.91,589.61Z" transform="translate(0 0.5)" style="fill: #fbf1e2"/>
      <path d="M1010.67,630.15a67.72,67.72,0,0,0-11.29-.95c-32.92,0-60,23.43-63.12,53.41a79.71,79.71,0,0,1,42.13,17.69C981,673.53,992.72,649.23,1010.67,630.15Z" transform="translate(0 0.5)" style="fill: #fbf1e2"/>
      <path d="M1129.31,589.61a103.84,103.84,0,0,1-4.91-31.54c0-1.05,0-2.1,0-3.14-27.32,6-50.66,21.61-65.64,42.85a139.63,139.63,0,0,1,50.93-9.53A141.66,141.66,0,0,1,1129.31,589.61Z" transform="translate(0 0.5)" style="fill: #fbf1e2"/>
      <path d="M1245.61,447.57c1,0,1.9-.07,2.86-.07,51,0,94.49,30.16,111.12,72.43-4.13-46.51-45.84-83.06-96.69-83.06-.79,0-1.57,0-2.35.06s-1.55-.06-2.34-.06a101.12,101.12,0,0,0-58.07,18,125.4,125.4,0,0,1,42.61-7.39C1243.71,447.5,1244.66,447.54,1245.61,447.57Z" transform="translate(0 0.5)" style="fill: #fbf1e2"/>
      <path d="M936,768h430V724.23H1041.63c-6.56,0-11.68-5.42-10.78-11.48,4.67-31.16,33.31-55.14,67.94-55.14a72.54,72.54,0,0,1,23.42,3.91c14.19-51.71,64.4-89.93,124.17-89.93,54.54,0,101.1,31.82,119.62,76.68V589.11c-1.37.15-2.74.31-4.09.5A104.14,104.14,0,0,0,1366,571V552.44c-3.41.18-6.78.48-10.1.94a85,85,0,0,0,4-25.85c0-2.56-.12-5.09-.34-7.6-16.63-42.27-60.11-72.43-111.12-72.43-1,0-1.91,0-2.86.07s-1.9-.07-2.86-.07a125.4,125.4,0,0,0-42.61,7.39c-23.65,16.53-39,42.92-39,72.64a85.28,85.28,0,0,0,4,25.85,117.61,117.61,0,0,0-16-1.11,115.35,115.35,0,0,0-24.71,2.66c0,1,0,2.09,0,3.14a103.84,103.84,0,0,0,4.91,31.54,141.66,141.66,0,0,0-19.57-1.36,139.63,139.63,0,0,0-50.93,9.53,96.28,96.28,0,0,0-17.35,46.36,65.17,65.17,0,0,0-30.79-14c-17.95,19.08-29.7,43.38-32.28,70.15a79.71,79.71,0,0,0-42.13-17.69,56.71,56.71,0,0,0-.31,5.85C936,689.44,936,726.84,936,768Z" transform="translate(0 0.5)" style="fill: #fbf1e2"/>
      <path d="M1246.38,571.59c-59.77,0-110,38.22-124.17,89.93a72.54,72.54,0,0,0-23.42-3.91c-34.63,0-63.27,24-67.94,55.14-.9,6.06,4.22,11.48,10.78,11.48H1366v-76C1347.48,603.41,1300.92,571.59,1246.38,571.59Z" transform="translate(0 0.5)" style="fill: #70534b"/>
    </g>
    <g id="clouds_left" class="opacity-0 animation-element clouds clouds-left">
      <path d="M439.84,613.8c-6.06-62.82-62.55-112-131.36-112a141.77,141.77,0,0,0-19.57,1.36,103.84,103.84,0,0,0,4.91-31.54c0-61.07-53-110.57-118.35-110.57-1,0-1.91,0-2.86.07s-1.9-.07-2.86-.07C104.39,361,51.4,410.5,51.4,471.57a103.84,103.84,0,0,0,4.91,31.54,141.66,141.66,0,0,0-19.57-1.36c-4.11,0-18.69,6.32-36.74,16.6v47.1a113.37,113.37,0,0,1,56.16-14.68,117.61,117.61,0,0,1,16,1.11,85.28,85.28,0,0,1-4-25.85c0-50.07,43.44-90.66,97-90.66.79,0,1.56,0,2.34.06s1.56-.06,2.35-.06c53.59,0,97,40.59,97,90.66a85,85,0,0,1-4,25.85A117.87,117.87,0,0,1,279,550.77c56.42,0,102.73,40.37,107.7,91.87.31-.26.63-.5,1-.76V768H441V612.88Z" transform="translate(0 0.5)" style="fill: #fbf1e2"/>
      <path d="M5.79,656.11A72.54,72.54,0,0,1,29.21,660c14.19-51.71,64.4-89.93,124.17-89.93s110,38.22,124.17,89.93A72.54,72.54,0,0,1,301,656.11c34.64,0,63.28,24,67.94,55.14.91,6.06-4.21,11.48-10.77,11.48H0V768H387.6V641.88c-.32.26-.64.5-1,.76-5-51.5-51.28-91.87-107.7-91.87a117.87,117.87,0,0,0-16.05,1.11,85,85,0,0,0,4-25.85c0-50.07-43.44-90.66-97-90.66-.79,0-1.57,0-2.35.06s-1.55-.06-2.34-.06c-53.59,0-97,40.59-97,90.66a85.28,85.28,0,0,0,4,25.85,117.61,117.61,0,0,0-16-1.11A113.37,113.37,0,0,0,0,565.45v90.89Q2.87,656.12,5.79,656.11Z" transform="translate(0 0.5)" style="fill: #fbf1e2"/>
      <path d="M368.91,711.25c-4.66-31.16-33.3-55.14-67.94-55.14A72.54,72.54,0,0,0,277.55,660c-14.18-51.71-64.39-89.93-124.17-89.93S43.4,608.31,29.21,660a72.54,72.54,0,0,0-23.42-3.91q-2.92,0-5.79.23v66.39H358.14C364.7,722.73,369.82,717.31,368.91,711.25Z" transform="translate(0 0.5)" style="fill: #70534b"/>
    </g>
    <g id="girl" class="animation-element girl opacity-0">
      <path d="M900.91,231.2s19.55-3.86,31.57,40.38L906.2,268.3Z" transform="translate(0 0.5)" style="fill: #e8c1b0"/>
      <path d="M432.85,298.68s-4.39-26.25,30.67-43.49l8.77,11-18.67,31Z" transform="translate(0 0.5)" style="fill: #e8c1b0"/>
      <path d="M899.61,239.36s25.4-19.27,35.94-34.27c0,0,5.6-24.49,2.67-42.07s-4.76-23.26-4.9-25.2,1.28-6.86,4.94-3,6,21.81,6,21.81,3.24-24.08.59-36.17c-.66-3,4.93-5.69,6.37-.46a59.22,59.22,0,0,1,1.81,10.19s-.64-11.34,2-12.06,6.31-1.35,7.6,23.83c0,0,5.09-15.43,7.38-16,2-.51,6.54-.65,4.19,8.78s-6.94,27-7.37,33.44,4,13.24,4.06,14.3a44.1,44.1,0,0,0,8.6-14c3.29-8.6,9.79-14.77,14-10.45,3.37,3.45-2.39,11.21-5.79,18.39s-5.32,20-7,23.29-10.7,12-21.24,18.79S928,251,920.08,264.92C920.08,264.92,901.91,253.25,899.61,239.36Z" transform="translate(0 0.5)" style="fill: #ffd2af"/>
      <path d="M569,320.16s4,55.23,43.47,89.39S710,445.21,732.35,433.16,837.54,378.67,835,324.24,651.2,222.66,569,320.16Z" transform="translate(0 0.5)" style="fill: #c5948c"/>
      <path d="M468.33,262.67s-24.37-17.1-32.17-31.48-21.82-60.7-26.37-64.65-6,.44-6,.44-.87-8.72-5.3-7.68-3.38,9-3.38,9a288.93,288.93,0,0,0,9.14,31.36s-1.92,3-3.57-.21c0,0-11.29-31.45-16.38-36.3s-6.17,3.35-3,11.6c0,0,11.11,29.09,12.73,31.82s-14.11-21.28-18.39-24.77-5.49,2.89-1.65,10.08c2.11,3.94,9.57,17.54,11.59,22.51s8.09,20,13.3,29.79,15,14.33,18.63,14.78,9.07,4.09,13.61,11.12,12.24,21.65,15.52,27.59C446.66,297.69,470.84,284.31,468.33,262.67Z" transform="translate(0 0.5)" style="fill: #ffd2af"/>
      <path d="M692.19,368.55s11.27-13.49,40.77-12.3,36-.63,64.32-29.28,58.36-68.48,85.62-69.33c0,0-3.88-1.14-.34-4.72S900,234.58,900.91,231.2s6.16,3.11,6.38,9.5,15.6,25.44,22.45,28.27,0,9.73-7,10.95-11.78,7.73-11.78,7.73-1.3,1.75-3.71-2.11c0,0,2.66,10.49-11.83,30s-14.62,34-16.83,39.52-14.41,27-38.41,39.67-64.39,51.39-67.5,64.19,3.54,62.13,14.86,87.41,13.29,52.66,2.78,71.45-19.46-13.3-42.72-6.88-98.94,22.8-124.78,6.64S609.92,603.8,606,569.44s6.18-81.94-9.78-106.76c0,0-30.05-17.76-56-56.81s-35.94-34.41-51.7-50.71-27.06-34.7-31.68-49.31c0,0-1,1.13-4.88,1.42s-17.93-6.89-19.12-8.59,35-8.57,30.67-43.49c0,0,12.19,6.24,17.18,16.19a5.08,5.08,0,0,0,1.95,2.35c1.49,1,0,0,1.84.94s34.94,20.61,42,29.35,19.89,14.22,26.44,16.24,38.65,17.85,43.44,25S684.72,420,692.19,368.55Z" transform="translate(0 0.5)" style="fill: #e8c1b0"/>
      <path d="M660.5,400.75s11.58,21.93,31.89,10.15,10.3-32.06,10.3-32.06-8.6-35.32-12.88-40.35Z" transform="translate(0 0.5)" style="fill: #fbf1e2"/>
      <path d="M658.19,404a55.8,55.8,0,0,1-50-27.68c-4.29-7.17-4.11-10.38-6.79-15.61-2.49-4.85-14.69-21.17-16.15-25.65-14.36-44,20-63.88,30.14-65.91,11.22-2.23,59.86-18.56,75.5,50.06S672.05,398.71,658.19,404Z" transform="translate(0 0.5)" style="fill: #fbf1e2"/>
      <path d="M667,362c-13.25,21.41-33.15,16.9-33.15,16.9,7.74,4.11,12.91,11.71,18.36,13.5,2.83.93,5.75.29,9.14-3.23,5.53-5.74,6.64-13.52,6.55-19.28A38.22,38.22,0,0,0,667,362Z" transform="translate(0 0.5)" style="fill: #e8c1b0"/>
      <g>
        <path d="M660.51,334.94a5.45,5.45,0,0,0-1.09-5.1,6.48,6.48,0,0,1-1.07,4.87c-13.68-.51-10.87,19.6-10.87,19.6,1.54-15.33,17-18.32,17-18.32A23.9,23.9,0,0,0,660.51,334.94Z" transform="translate(0 0.5)" style="fill: #c5948c"/>
        <path d="M606.38,357.4c-1.53.47-4,.88-5.25-.73,0,0,1.68,3.25,3.74,3.16a21.9,21.9,0,0,0-1,2.16s11.54-8.85,23.11-.5C627,361.49,614.42,346.79,606.38,357.4Z" transform="translate(0 0.5)" style="fill: #c5948c"/>
      </g>
      <path d="M606.89,312.21s22.21,25,58.27,5.28c0,0,9.08.85,16,17.87s37.36,11.49,44.07,5.79,44.14,6.78,45.73,15.68,57.68,30,71.95-9,3.24-40.57,23-49.59,3-44.34-10.29-50.5-48.51,11.57-59-2.85-30.91-33.83-51.23-19.55S709.56,262.09,658,251.11c0,0-36.48-5.75-54.29,17,0,0-38.52,12-33.74,38.66,0,0-11,17.88,4.44,28.62s11.45-2.14,11.45-2.14S607.38,332.1,606.89,312.21Z" transform="translate(0 0.5)" style="fill: #70534b"/>
    </g>
    <path id="desk_table" class="animation-element desk opacity-0 scale-[0] " d="M223.4,717H1251.12L1292,516.34,548.75,471.76,136,447Q179.7,582,223.4,717Z" transform="translate(0 0.5)" style="fill: #fbf1e2;stroke: #c5948c;stroke-miterlimit: 10;stroke-width: 2px"/>
  </g>
</svg>
