<?xml version="1.0" encoding="UTF-8"?>
<svg id="Capa_2" data-name="Capa 2" xmlns="http://www.w3.org/2000/svg" viewBox="0 0 69.03 103.62">
  <defs>
    <style>
      .cls-1, .cls-2 {
        fill: #4d3c24;
      }

      .cls-1, .cls-3, .cls-4, .cls-5 {
        stroke-width: 0px;
      }

      .cls-6 {
        fill: #f2f7e9;
      }

      .cls-6, .cls-7, .cls-2, .cls-8, .cls-9, .cls-10 {
        stroke: #4d3c24;
        stroke-linecap: round;
        stroke-linejoin: round;
        stroke-width: 1.35px;
      }

      .cls-7, .cls-3 {
        fill: #f9be89;
      }

      .cls-8 {
        fill: #f0a3b7;
      }

      .cls-4 {
        fill: #e56156;
      }

      .cls-9 {
        fill: #9c613d;
      }

      .cls-10 {
        fill: none;
      }

      .cls-5 {
        fill: #a1cc84;
      }
    </style>
  </defs>
  <g id="Capa_1-2" data-name="Capa 1">
    <g>
      <path class="cls-2" d="m58.48,36.82c1.23,8.99-20.67,11.11-29.66,12.34-8.99,1.22-18.29-2.29-18.51-11.36-.3-12.83,10.33-20.81,25.01-20.49,16.85.38,21.94,10.52,23.16,19.51Z"/>
      <path class="cls-8" d="m15.58,55.8c-1.23,8.99,25.01,6.11,34.01,7.34,8.99,1.23,18.29-4.99,18.5-14.07.3-12.83-14.26-14.11-22.13-12.06-13.27,3.45-29.15,9.8-30.38,18.79Z"/>
      <path class="cls-7" d="m53.19,56.55c1.23,8.99-25.01,6.11-34.01,7.34-8.99,1.23-18.29-4.99-18.5-14.07-.3-12.83,14.26-14.11,22.13-12.06,13.27,3.45,29.15,9.8,30.38,18.79Z"/>
      <path class="cls-9" d="m11.78,28.17c-3.01-4.24,5.18-10.19,11.63-11.76,6.78-1.65,13.46-2.12,15.62-3.37,2.15-1.25,2.56-3.82.63-5.86-4.72,1.91-5.98-3.13-3.82-5.38,2.29-2.39,7.04-1.25,13.46,6.39,4.73,5.63,7.96,15.6,9.23,19.55.93,2.9-1.32,4.21-3.34,3.92-4.4-.64-1.36-5.23-5.23-5.64-3.88-.41-2.09,9.7-7.87,8.46-5.78-1.25-6.54-5.18-10.63-5.63-4.08-.45-6.39,5.31-11.16,4.52-4.76-.79,3-8.02.85-9.04-2.15-1.02-7.84,6.01-9.37,3.85Z"/>
      <g>
        <path class="cls-1" d="m16.96,39.88c0,.28-.23.52-.52.52s-.52-.23-.52-.52.23-.52.52-.52.52.23.52.52Z"/>
        <path class="cls-5" d="m20.5,45.62c0,.49-.4.89-.89.89s-.89-.4-.89-.89.4-.89.89-.89.89.4.89.89Z"/>
        <path class="cls-5" d="m4.25,45.34c0,.5-.4.89-.89.89s-.89-.4-.89-.89.4-.89.89-.89.89.4.89.89Z"/>
        <path class="cls-3" d="m30.85,41.76c0,.49-.4.89-.89.89s-.89-.4-.89-.89.4-.9.89-.9.89.4.89.9Z"/>
        <path class="cls-4" d="m37.07,47.22c0,.44-.36.8-.8.8s-.8-.36-.8-.8.36-.8.8-.8.8.36.8.8Z"/>
        <path class="cls-4" d="m64.18,43.36c0,.44-.36.8-.8.8s-.8-.36-.8-.8.36-.8.8-.8.8.36.8.8Z"/>
        <path class="cls-4" d="m13.9,46.19c0,.44-.36.8-.8.8s-.8-.36-.8-.8.36-.8.8-.8.8.36.8.8Z"/>
        <path class="cls-4" d="m28.97,32.64c0,.44-.36.8-.8.8s-.8-.36-.8-.8.36-.8.8-.8.8.36.8.8Z"/>
        <path class="cls-1" d="m47.99,42.28c0,.26-.21.47-.47.47s-.47-.21-.47-.47.21-.47.47-.47.47.21.47.47Z"/>
        <path class="cls-1" d="m25.44,49.15c0,.26-.21.47-.47.47s-.47-.21-.47-.47.21-.47.47-.47.47.21.47.47Z"/>
        <path class="cls-1" d="m57.21,49.3c0,.26-.21.47-.47.47s-.47-.21-.47-.47.21-.47.47-.47.47.21.47.47Z"/>
        <path class="cls-5" d="m52,41.43c0,.29-.23.52-.52.52s-.52-.23-.52-.52.23-.52.52-.52.52.23.52.52Z"/>
        <path class="cls-3" d="m58.44,41.43c0,.52-.42.94-.94.94s-.94-.42-.94-.94.42-.94.94-.94.94.42.94.94Z"/>
        <path class="cls-3" d="m43.7,48.03c0,.52-.42.94-.94.94s-.94-.42-.94-.94.42-.94.94-.94.94.42.94.94Z"/>
        <path class="cls-3" d="m10.66,40.82c0,.52-.42.94-.94.94s-.94-.42-.94-.94.42-.94.94-.94.94.42.94.94Z"/>
        <path class="cls-5" d="m66.58,49.01c0,.52-.42.94-.94.94s-.94-.42-.94-.94.42-.94.94-.94.94.42.94.94Z"/>
        <path class="cls-5" d="m33.51,36.82c0,.49-.4.89-.89.89s-.89-.4-.89-.89.4-.89.89-.89.89.4.89.89Z"/>
        <path class="cls-3" d="m16.44,33.53c0,.49-.4.89-.89.89s-.89-.4-.89-.89.4-.89.89-.89.89.4.89.89Z"/>
        <path class="cls-4" d="m51.14,29.96c0,.44-.36.8-.8.8s-.8-.36-.8-.8.36-.8.8-.8.8.36.8.8Z"/>
        <path class="cls-5" d="m51.48,33.72c0,.5-.4.9-.89.9s-.89-.4-.89-.9.4-.89.89-.89.89.4.89.89Z"/>
        <path class="cls-3" d="m37.16,35.51c0,.5-.4.9-.89.9s-.9-.4-.9-.9.4-.89.9-.89.89.4.89.89Z"/>
        <path class="cls-4" d="m41.36,41.76c0,.44-.36.8-.8.8s-.8-.36-.8-.8.36-.8.8-.8.8.36.8.8Z"/>
        <path class="cls-5" d="m52.37,46.23c0,.49-.4.89-.89.89s-.89-.4-.89-.89.4-.89.89-.89.89.4.89.89Z"/>
        <path class="cls-3" d="m24.91,41.81c0,.49-.4.89-.89.89s-.9-.4-.9-.89.4-.89.9-.89.89.4.89.89Z"/>
      </g>
      <path class="cls-6" d="m68.35,58.04h0s0-.05,0-.08c0-3.49-2.48-6.32-5.54-6.32s-5.54,2.83-5.54,6.32c0,.03,0,.05,0,.08h0s0-.05,0-.08c0-3.49-2.48-6.32-5.54-6.32s-5.54,2.83-5.54,6.32c0,.03,0,.05,0,.08h0s0-.05,0-.08c0-3.49-2.48-6.32-5.54-6.32s-5.54,2.83-5.54,6.32c0,.03,0,.05,0,.08h0s0-.05,0-.08c0-3.49-2.48-6.32-5.54-6.32s-5.54,2.83-5.54,6.32c0,.03,0,.05,0,.08h0s0-.05,0-.08c0-3.49-2.48-6.32-5.54-6.32s-5.54,2.83-5.54,6.32c0,.03,0,.05,0,.08h0s0-.05,0-.08c0-3.49-2.48-6.32-5.54-6.32s-5.54,2.83-5.54,6.32c0,1.1,8.38,39.62,8.38,39.62,0,0,5.37,5.37,23.16,5.37s24.29-5.37,24.29-5.37c0,0,10.65-38.28,10.66-39.53v-.02Z"/>
      <line class="cls-10" x1="35.11" y1="58.04" x2="35.11" y2="69.37"/>
      <line class="cls-10" x1="34.52" y1="102.94" x2="34.52" y2="97.97"/>
      <line class="cls-10" x1="46.19" y1="58.04" x2="45.64" y2="65.24"/>
      <line class="cls-10" x1="42.71" y1="102.39" x2="42.91" y2="97.97"/>
      <line class="cls-10" x1="57.26" y1="58.04" x2="56.3" y2="63.43"/>
      <line class="cls-10" x1="51.28" y1="100.18" x2="54.04" y2="81.76"/>
      <line class="cls-10" x1="24.02" y1="57.96" x2="24.69" y2="63.43"/>
      <line class="cls-10" x1="12.93" y1="58.04" x2="13.81" y2="70.05"/>
      <line class="cls-10" x1="16.63" y1="100.78" x2="16.21" y2="93.62"/>
      <line class="cls-10" x1="25.58" y1="102.39" x2="25.58" y2="95.27"/>
      <path class="cls-1" d="m38.94,4.88c-.24-.11-.45-.17-.72-.12-.13.03-.27.04-.41.01-.31-.06-.42-.32-.59-.57-.26-.37-.8-.32-.95.12-.47,1.48,2.03,2.64,2.9,1.43.19-.26.07-.75-.23-.88Z"/>
      <path class="cls-1" d="m50.8,23.57c-.82-.11-1.69.07-2.46.36-.52.2-1.62.75-1.32,1.48.08.19.2.28.4.31.45.05.99-.43,1.43-.56.59-.17,1.16-.14,1.75-.16.79-.03,1.04-1.32.19-1.44Z"/>
      <path class="cls-1" d="m34.74,27.25c-.6-1.2-2.33-1.05-3.5-.98-1.44.09-3.27.51-4.32,1.55-.17.16-.03.42.18.43,1.36.1,2.77-.45,4.14-.53,1.17-.06,2.31.6,3.37.04.19-.1.23-.34.14-.52Z"/>
      <path class="cls-1" d="m22,22.35c-.69-.31-1.65-.42-2.34-.05-.18.1-.12.35.05.41.51.17,1.07.18,1.59.33.29.08.53.23.74.44.2.22.16.56.31.8.15.25.57.29.71,0,.4-.79-.37-1.62-1.06-1.92Z"/>
      <path class="cls-1" d="m47.47,13.23c-.61,0-.61.95,0,.95s.61-.95,0-.95Z"/>
      <path class="cls-1" d="m44.55,13.01c-.31,0-.31.49,0,.49s.31-.49,0-.49Z"/>
      <path class="cls-1" d="m46.35,9.56c-.35,0-.62.42-.42.73l.03.04c.19.29.59.29.78,0l.03-.04c.2-.31-.06-.73-.42-.73Z"/>
      <path class="cls-1" d="m48.15,10.93c-.74,0-.74,1.15,0,1.15s.74-1.15,0-1.15Z"/>
      <path class="cls-1" d="m50.4,12.76c-.35,0-.35.55,0,.55s.35-.55,0-.55Z"/>
      <path class="cls-1" d="m47.36,16.1c-.54,0-.54.84,0,.84s.54-.84,0-.84Z"/>
      <path class="cls-1" d="m45,14.73c-.42,0-.68.55-.35.85,0,0,.02.02.03.03.19.17.45.17.64,0,0,0,.02-.02.03-.03.33-.29.06-.85-.35-.85Z"/>
      <path class="cls-1" d="m41.41,15.11v.06c0,.27.42.27.42,0v-.06c0-.27-.42-.27-.42,0Z"/>
      <path class="cls-1" d="m61.66,39.54c-.67,0-.67,1.03,0,1.03s.67-1.03,0-1.03Z"/>
      <path class="cls-1" d="m61.66,42.14c-.5,0-.5.78,0,.78s.5-.78,0-.78Z"/>
      <path class="cls-1" d="m59.3,38.78c-.78,0-.78,1.2,0,1.2s.78-1.2,0-1.2Z"/>
      <path class="cls-1" d="m56.58,38.36c-.23-.6-1.16-.4-.98.25.18.64,1.21.32.98-.25Z"/>
      <path class="cls-1" d="m59.19,41.65c-1.14,0-1.14,1.77,0,1.77s1.14-1.77,0-1.77Z"/>
      <path class="cls-1" d="m19.55,39.86c-.83,0-.83,1.29,0,1.29s.83-1.29,0-1.29Z"/>
      <path class="cls-1" d="m20.34,41.97c-.87,0-.87,1.35,0,1.35s.87-1.35,0-1.35Z"/>
      <path class="cls-1" d="m17.67,42.35c-.05-.01-.11-.02-.16-.03-.28-.05-.48.04-.64.26-.02.02-.03.05-.05.07-.08.11-.08.33,0,.44.02.02.03.05.05.07.16.22.37.31.64.26.05,0,.11-.02.16-.03.52-.1.52-.94,0-1.04Z"/>
      <path class="cls-1" d="m22.53,43.03s-.02.02-.02.03c-.1.13-.05.33.06.44.01.01.02.03.04.04.12.13.31.11.43,0,0,0,0,0,0,0,.47-.36-.14-.98-.51-.5Z"/>
      <path class="cls-1" d="m25.8,45.65c.03-.13,0-.22-.07-.28-.1-.16-.33-.16-.43,0-.07.06-.1.15-.07.28h0s0,.02,0,.03c0,.02.01.02.02.04,0,.01.01.03.02.04.05.09.14.13.24.12.09,0,.18-.03.24-.12,0-.01.01-.03.02-.04,0-.01.02-.02.02-.04,0,0,0-.02,0-.03h0Z"/>
      <path class="cls-1" d="m63.59,59.96c-.14-.28-.62-.08-.5.21.17.43.37.85.54,1.28.15.36.22.74.47,1.05.11.13.31.04.35-.09.28-.79-.54-1.78-.87-2.45Z"/>
      <path class="cls-1" d="m64.1,59.02c-.22-.19-.54.04-.4.31.19.36.41.69.59,1.05.09.18.15.36.19.56.04.17.21.26.34.35.09.07.22.01.27-.07.5-.72-.48-1.74-1.01-2.19Z"/>
      <path class="cls-1" d="m13.05,90.02c-.14-.14-.35-.03-.36.15-.04.57.18,1.18.25,1.74.03.23.35.14.37-.05.08-.61.21-1.35-.27-1.84Z"/>
      <path class="cls-1" d="m9.48,56.1c-.11-.27-.25-.53-.48-.72-.48-.42-.99-.53-1.61-.48-.28.02-.32.37-.06.48.46.19.89.69,1.08,1.14.13.32.7.92,1,.39.16-.29.21-.49.08-.81Z"/>
      <path class="cls-1" d="m20.49,55.99c-.22-.51-.57-.87-1.11-1.03-.22-.06-.31.23-.15.35.37.27.59.74.74,1.16.12.35.13.81.48,1.02.1.06.26.03.32-.08.22-.43-.1-1.01-.28-1.41Z"/>
      <path class="cls-1" d="m20.32,58.7c-.07-.25-.16-.48-.27-.72-.22-.45-.61-.79-1.05-1.02-.24-.12-.5.18-.29.38.31.29.52.67.68,1.06.07.17.11.34.15.51.04.17.22.3.32.43.11.14.3.04.35-.09.06-.17.16-.37.11-.56Z"/>
      <path class="cls-1" d="m33.46,58.05c-.23-.76-.61-1.33-1.34-1.67-.14-.07-.27.09-.17.22.48.58.76,1.33.92,2.05.12.56.06,1.29.51,1.7.09.08.24.07.3-.04.35-.64-.02-1.62-.22-2.26Z"/>
      <path class="cls-1" d="m32.47,60.33c-.04-.29-.44-.23-.39.05.08.44.16.89.24,1.33.08.44.13,1.02.38,1.4.06.1.21.11.27,0,.49-.83-.39-1.94-.5-2.78Z"/>
      <path class="cls-1" d="m43.73,55.54c-.16-.7-.86-1.09-1.51-1.24-.31-.07-.64,0-.93.11-.3.11-.38.26-.52.52-.06.12,0,.25.12.29.15.05.23.16.4.19.2.03.38.14.56.22.4.17.68.52,1.09.69.48.2.89-.37.79-.79Z"/>
      <path class="cls-1" d="m41.62,56.61c-.19-.02-.3.26-.16.38.47.38.85,1.07,1.51,1.09.18,0,.36-.16.35-.35-.06-.83-1.02-1.04-1.7-1.12Z"/>
      <path class="cls-1" d="m54.15,56.29c-.07-.01-.11.03-.12.09-.13,1.01.29,1.97.09,2.98-.18.95,1.28,1.36,1.46.4.23-1.21.05-3.16-1.43-3.47Z"/>
      <path class="cls-1" d="m53.25,57.03c-.12-.11-.28-.05-.34.09-.21.52,0,1.04.09,1.58.04.21.39.21.43,0,.11-.58.31-1.22-.18-1.66Z"/>
    </g>
  </g>
</svg>