<?xml version="1.0" encoding="UTF-8"?>
<svg xmlns="http://www.w3.org/2000/svg" viewBox="0 0 134.3 107.43">
  <defs>
    <style>
      .cls-1 {
        fill: #e56156;
      }

      .cls-1, .cls-2, .cls-3, .cls-4, .cls-5 {
        stroke: #4d3c24;
        stroke-miterlimit: 10;
        stroke-width: 1.35px;
      }

      .cls-6 {
        isolation: isolate;
      }

      .cls-7 {
        fill: none;
      }

      .cls-7, .cls-8, .cls-9, .cls-10 {
        stroke-width: 0px;
      }

      .cls-8 {
        fill: #fff;
      }

      .cls-2, .cls-9, .cls-3 {
        fill: #fddfc1;
      }

      .cls-9, .cls-11 {
        mix-blend-mode: multiply;
      }

      .cls-10 {
        fill: #fcdeda;
      }

      .cls-3 {
        stroke-linecap: round;
      }

      .cls-4 {
        fill: #f0a3b7;
      }

      .cls-5 {
        fill: #f9be89;
      }
    </style>
  </defs>
  <g class="cls-6">
    <g id="Capa_2" data-name="Capa 2">
      <g id="Capa_1-2" data-name="Capa 1">
        <g>
          <path class="cls-4" d="m4.18,27v63.7h0c.03,8.65,27.77,15.66,61.98,15.66s61.95-7.01,61.98-15.66h0V27H4.18Z"/>
          <path class="cls-4" d="m127.32,58.27c-2.56.45-3.4-4.48-5.96-5.2-3.64-1.03-5.68,1.4-7.45,4-1.71,2.52-2.45,5.73-6.06,5.94-4.13.24-3.79-3.47-6.45-5.47-6.99-5.28-15.01,1.7-21.39,4.28-2.43.99-5.86,2.87-8.63,2.29-3.14-.65-3.82-3.53-5.64-5.86-2.64-3.37-4.73-4.16-8.74-2.88-4.64,1.48-4.85,4.38-7.96,7.25-7.51,6.92-11.47-4.87-17.1-6.76-7.49-2.52-7.23,12.01-14.99,5.87-4.56-3.61-4.61-8.07-10.45-7.48-.78.08-1.56-.11-2.32-.51v31.72h0c.03,8.65,27.77,15.66,61.98,15.66s61.95-7.01,61.98-15.66h0v-29.16c-.5,1.26-.8,1.98-.84,1.98Z"/>
          <path class="cls-2" d="m127.32,72.92c-2.56.45-3.4-4.48-5.96-5.2-3.64-1.03-5.68,1.4-7.45,4-1.71,2.52-2.45,5.73-6.06,5.94-4.13.24-3.79-3.47-6.45-5.47-6.99-5.28-15.01,1.7-21.39,4.28-2.43.98-5.86,2.87-8.63,2.29-3.14-.65-3.82-3.53-5.64-5.86-2.64-3.37-4.73-4.16-8.74-2.88-4.64,1.48-4.85,4.38-7.96,7.25-7.51,6.92-11.47-4.87-17.1-6.76-7.49-2.52-7.23,12.02-14.99,5.87-4.56-3.61-4.61-8.07-10.45-7.48-.78.08-1.56-.11-2.32-.51v22.71h0c.03,8.65,27.77,15.66,61.98,15.66s61.95-7.01,61.98-15.66h0v-20.16c-.5,1.26-.8,1.98-.84,1.98Z"/>
          <path class="cls-9" d="m66.17,89.56c-34.21,0-61.95-7.01-61.98-15.66h0v7.95h0c.03,8.65,27.77,15.66,61.98,15.66s61.95-7.01,61.98-15.66h0v-7.95h0c-.03,8.65-27.77,15.66-61.98,15.66Z"/>
          <path class="cls-7" d="m3.74,69.72c8.37-4.56,7.99,2.14,13.2,6.27,7.76,6.14,7.49-8.39,14.99-5.87,5.64,1.9,9.6,13.68,17.1,6.76,3.11-2.87,3.32-5.77,7.96-7.25,4.02-1.28,6.11-.49,8.74,2.88,1.82,2.33,2.5,5.21,5.64,5.86,2.77.57,6.2-1.31,8.63-2.3,6.38-2.58,14.4-9.56,21.39-4.28,2.65,2,2.32,5.71,6.45,5.47,3.61-.21,4.35-3.42,6.06-5.94,1.76-2.6,3.8-5.03,7.45-4,2.56.72,3.4,5.65,5.96,5.2.33-.02.59-.16.79-.43"/>
          <path class="cls-2" d="m4.14,26.6c-1.8,2.04-.55,6.71-1.79,9.14-1.46,2.86-3.39,9.29,1.19,9.74,1.67.16.67-4.58,2.19-4.77,1.94-.24,3.09.26,4.77,1.04,2.79,1.3,6.03,2.6,8.98,1.19,3.54-1.69,6.83-2.47,9.83,1.18,1.9,2.31,4.89,10.47,8.98,6.72,2.99-2.74-3.01-7.09,1.8-7.55,3.49-.33,6.35,2.79,6.95,5.96.34,1.79-.45,3.85.23,5.56.91,2.3,4.03,3.87,6.48,3.38,5.11-1.03,3.84-6.07,1.39-8.94-.91-1.07-2.87-2.03-2.94-3.57-.08-1.76,1.9-2.47,3.38-2.38,3.59.22,5,4.45,8.19,5.61,3.01,1.1,6.62.75,9.53-.49,1.38-.59,3.75-2.18,5.32-1.76,2.11.57,2.17,2.83,4.97,2.36,2.76-.47,5.4-2.4,8.3-1,4.28,2.05,2.75,6.73,1.48,9.92-1.68,4.21-.69,11.28,4.72,7.21,3.52-2.65,5.07-6.23,4.38-10.67-.41-2.62-3.86-7.25-1.64-9.44,2.32-2.29,6.82.24,8.19,2.42,1.07,1.69,3.02,4.78,5.78,2.81,1.3-.93,1.48-4.29,2.31-5.73,2.42-4.18,4.99,1.28,7.8,1.94,4.34,1.03.79,8.15,6.16,8.74,6.4.71-1.33-14.74-1.39-17.09-.2-7.15-.7-10.53-1.89-12.12"/>
          <path class="cls-2" d="m128.15,27c0,4.72-27.76,8.54-62.01,8.54S4.14,31.72,4.14,27s27.76-8.54,62.01-8.54,62.01,3.83,62.01,8.54Z"/>
          <path class="cls-8" d="m1.76,38.42c-.48,1.55-1.33,6.56,1.79,6.26,2.09-.2-.62-1.71-1.02-2.26-.64-.89-1.3-2.6-.87-3.6"/>
          <path class="cls-8" d="m27.92,41.41c1.09.85,1.79,1.47,2.5,2.76.66,1.21,1.16,2.48,1.87,3.64.73,1.2,1.56,2.53,2.93,3.05,1.67.63,2.68-.05,2.59-1.79-.67.84-2.74.16-3.58-.2-1.15-.5-1.79-1.32-2.32-2.47-.77-1.7-1.37-5.52-4.09-5"/>
          <path class="cls-8" d="m47.65,52.13c0,1.83.16,3.11,1.69,4.29,1.24.95,2.94,1.49,4.48,1.17,1.07-.22,3.23-1.85,2.11-3.21-1.01-1.23-2.91.08-4,.23-1.28.18-4.31-.16-4.47-1.79"/>
          <path class="cls-8" d="m101.29,54.91c.85,3.43-2.22,5.45-4.67,7.03-1.12.72-2.5,2.55-.6,3.29,1.6.62,3.15-1.7,3.8-2.86,1.14-2.05,2.28-4.61,1.56-6.95"/>
          <path class="cls-8" d="m130.79,44.38c.88,1.22,1.19,2.84,1.5,4.27.28,1.31.98,3.09.59,4.57-.36,1.38-2.63,1.76-3.48.57-.62-.85-.03-1.35.8-1.47.96-.14,1.44.43,1.79-.6.69-2.03-.7-5.54-1.39-7.35"/>
          <g>
            <path class="cls-1" d="m26.44,19.29c0,3.12-2.88,5.64-6.44,5.64s-6.44-2.53-6.44-5.64,2.44-5.91,6.31-4.4c3.69-1.6,6.58,1.28,6.58,4.4Z"/>
            <path class="cls-8" d="m24.67,19.58c-.76.58-2.05.17-2.89-.92-.83-1.09-.89-2.45-.13-3.03.76-.58,2.05-.17,2.89.92.83,1.09.89,2.45.13,3.03Z"/>
            <path class="cls-5" d="m19.45,15.24c-.04-.58-1.07-5.29.93-8.53.53-.49,1.42-.04,1.51.31-2.8,4.09-1.87,7.95-1.87,8.4-.13.19-.48.12-.58-.18Z"/>
          </g>
          <path class="cls-3" d="m28.81,27.34c0-1.29-1.99-5.56-4-4.51-.35.19-.53.61-.87.8-.45.25-.96.23-1.48.31-.58.09-1.05.31-1.49.6-.86-.28-1.68-.67-2.39-1.19-.84-.61-1.61-1.15-2.74-1.01-.91.12-2.92,1.3-3,2.3"/>
          <g>
            <path class="cls-1" d="m58.51,15.02c0,3.49-3.23,6.32-7.22,6.32s-7.22-2.83-7.22-6.32,2.74-6.62,7.07-4.93c4.13-1.79,7.37,1.44,7.37,4.93Z"/>
            <path class="cls-8" d="m56.52,15.34c-.85.65-2.3.19-3.24-1.04-.94-1.22-1-2.74-.15-3.39.85-.65,2.3-.19,3.24,1.04.93,1.22,1,2.74.15,3.39Z"/>
            <path class="cls-5" d="m50.67,10.48c-.05-.65-1.2-5.93,1.04-9.56.6-.55,1.59-.05,1.69.35-3.14,4.58-2.09,8.91-2.09,9.41-.15.21-.54.14-.65-.2Z"/>
          </g>
          <path class="cls-3" d="m45.39,22.06c-.22-1.1.76-2.05,1.7-2.46,1.17-.51,2.17-.16,3.27.23,1.63.59,3.46.44,5.22.41,2.93-.04,3.7,2.04,4.04,1.95"/>
          <g>
            <path class="cls-1" d="m89.3,15.66c0,3.49-3.23,6.32-7.22,6.32s-7.22-2.83-7.22-6.32,2.74-6.62,7.07-4.93c4.13-1.79,7.37,1.44,7.37,4.93Z"/>
            <path class="cls-8" d="m87.31,15.99c-.85.65-2.3.19-3.24-1.04-.94-1.22-1-2.74-.15-3.39.85-.65,2.3-.19,3.24,1.04.94,1.22,1,2.74.15,3.39Z"/>
            <path class="cls-5" d="m81.45,11.12c-.05-.65-1.2-5.92,1.05-9.56.6-.55,1.59-.05,1.69.35-3.14,4.58-2.09,8.91-2.09,9.41-.15.21-.54.14-.65-.2Z"/>
          </g>
          <path class="cls-3" d="m76.18,22.71c-.22-1.1.76-2.05,1.7-2.45,1.17-.51,2.17-.16,3.27.23,1.63.59,3.49.76,5.22.41,2.93-.59,4.6,2.56,4.94,2.47"/>
          <g>
            <path class="cls-1" d="m117.7,18.61c0,3.12-2.88,5.64-6.44,5.64s-6.44-2.53-6.44-5.64,2.44-5.91,6.31-4.4c3.69-1.6,6.57,1.28,6.57,4.4Z"/>
            <path class="cls-8" d="m115.92,18.9c-.76.58-2.05.17-2.89-.92-.83-1.09-.89-2.45-.13-3.03.76-.58,2.05-.17,2.89.92.83,1.09.89,2.45.13,3.03Z"/>
            <path class="cls-5" d="m110.7,14.56c-.04-.58-1.07-5.29.93-8.53.53-.49,1.42-.04,1.51.31-2.8,4.09-1.87,7.95-1.87,8.4-.13.19-.48.12-.58-.18Z"/>
          </g>
          <path class="cls-3" d="m118.97,25.59c0-1.29-.9-4.5-2.9-3.44-.35.19-.53.61-.87.8-.45.25-.96.23-1.48.31-.58.09-1.05.31-1.49.6-.86-.28-1.68-.67-2.39-1.19-.84-.61-1.61-1.15-2.74-1.01-.91.12-2.55,1.93-2.63,2.92"/>
          <path class="cls-8" d="m25.4,24.8c-.87-.31-2.02-.43-2.29.71-.03.13.08.24.21.21.51-.13,1.13,0,1.48.41.2.24.41.45.58.71.22.33.28.7.57.98.41.41,1.33.29,1.42-.38.17-1.14-.95-2.29-1.96-2.65Z"/>
          <path class="cls-8" d="m56.96,22.04c-.86-1.43-3.16-.59-4.52-.5-1.8.11-3.38-1.7-5-.34-.27.23-.06.76.3.72,1.67-.18,3.03.88,4.7.97.72.04,1.47-.12,2.18-.19.74-.07,1.37.17,2.09-.06.25-.08.39-.37.25-.6Z"/>
          <path class="cls-8" d="m88.53,22.91c-1.15-1.11-3.45-1.09-4.98-1.49-1.63-.43-3.61-1.07-5.19-.22-.23.12-.21.45,0,.58,1.49.94,3.55,1.24,5.23,1.77,1.52.48,3.59,1.27,4.94.13.23-.19.2-.58,0-.78Z"/>
          <path class="cls-8" d="m109.89,24.83c-.18-.47-.65-.99-1.16-1.11-.54-.13-.84.13-1.3.35-.16.08-.04.31.11.27.61-.15,1.14.61,1.48.99.33.37,1.05-.02.87-.5Z"/>
          <path class="cls-8" d="m117.17,23.71c-.49-.17-1.07-.25-1.54.01-.17.09-.4.22-.48.41-.05.12-.13.41-.14.43-.07.12.05.33.2.26.02,0,.03-.01.05-.02.13.06.27.09.4.11.37.05.75.16,1.1.26.95.28,1.32-1.15.4-1.47Z"/>
          <path class="cls-8" d="m93.75,29.76c-4.04-.67-8.27-.04-12.36.01-4.59.05-9.17-.06-13.76,0-9.94.13-19.84.95-29.79.84-.21,0-.26.32-.05.37,9.34,2.15,18.61,1.71,28.12,1.42,4.58-.14,9.17,0,13.76.05,4.58.04,9.75.47,14.08-1.2.63-.24.83-1.35,0-1.49Z"/>
          <g>
            <g class="cls-11">
              <path class="cls-10" d="m86.96,92.93c0-.25-.2-.45-.45-.45s-.45.2-.45.45.2.45.45.45.45-.2.45-.45Z"/>
              <path class="cls-10" d="m91.68,84.18c0-.52-.42-.95-.94-.95s-.95.42-.95.95.42.95.95.95.94-.42.94-.95Z"/>
              <path class="cls-10" d="m92.36,89.72c0-.37-.3-.68-.67-.68s-.68.3-.68.68.3.68.68.68.67-.3.67-.68Z"/>
              <path class="cls-10" d="m76.15,86.25c0-.17-.14-.32-.32-.32s-.31.14-.31.32.14.32.31.32.32-.14.32-.32Z"/>
              <path class="cls-10" d="m101.14,94.59c0-.6-.49-1.08-1.08-1.08s-1.08.48-1.08,1.08.49,1.08,1.08,1.08,1.08-.48,1.08-1.08Z"/>
              <path class="cls-10" d="m97.94,86.26c0-.3-.25-.54-.54-.54s-.54.24-.54.54.24.54.54.54.54-.24.54-.54Z"/>
              <path class="cls-10" d="m92.09,77.89c0-.22-.18-.41-.41-.41s-.41.18-.41.41.18.41.41.41.41-.18.41-.41Z"/>
              <path class="cls-10" d="m81.34,80.62c0-.3-.25-.54-.54-.54s-.54.24-.54.54.24.54.54.54.54-.24.54-.54Z"/>
              <path class="cls-10" d="m83.46,86.93c0-.37-.3-.68-.68-.68s-.67.3-.67.68.3.68.67.68.68-.3.68-.68Z"/>
            </g>
            <g class="cls-11">
              <path class="cls-10" d="m104.37,94.14c0-.25-.2-.45-.45-.45s-.45.2-.45.45.2.45.45.45.45-.2.45-.45Z"/>
              <path class="cls-10" d="m107.98,92.75c0-.52-.42-.95-.95-.95s-.95.42-.95.95.42.95.95.95.95-.42.95-.95Z"/>
              <path class="cls-10" d="m109.33,95.9c0-.37-.3-.68-.67-.68s-.68.3-.68.68.3.68.68.68.67-.3.67-.68Z"/>
              <path class="cls-10" d="m111.4,93.83c0-.17-.14-.31-.31-.31s-.32.14-.32.31.14.32.32.32.31-.14.31-.32Z"/>
              <path class="cls-10" d="m114.56,97.48c0-.6-.48-1.08-1.08-1.08s-1.08.49-1.08,1.08.49,1.08,1.08,1.08,1.08-.49,1.08-1.08Z"/>
              <path class="cls-10" d="m116.27,94.05c0-.3-.24-.54-.54-.54s-.54.24-.54.54.24.54.54.54.54-.24.54-.54Z"/>
              <path class="cls-10" d="m118.8,98.97c0-.22-.18-.41-.41-.41s-.4.18-.4.41.18.41.4.41.41-.18.41-.41Z"/>
              <path class="cls-10" d="m119.07,96.44c0-.3-.24-.54-.54-.54s-.54.24-.54.54.24.54.54.54.54-.24.54-.54Z"/>
              <path class="cls-10" d="m121.23,92.84c0-.37-.3-.68-.68-.68s-.68.3-.68.68.3.68.68.68.68-.3.68-.68Z"/>
            </g>
            <g class="cls-11">
              <path class="cls-10" d="m45.21,94.14c0-.25-.2-.45-.45-.45s-.45.2-.45.45.2.45.45.45.45-.2.45-.45Z"/>
              <path class="cls-10" d="m51.23,88.91c0-.52-.42-.95-.94-.95s-.95.43-.95.95.43.95.95.95.94-.42.94-.95Z"/>
              <path class="cls-10" d="m49.76,95.22c0-.37-.3-.68-.68-.68s-.68.3-.68.68.31.68.68.68.68-.3.68-.68Z"/>
              <path class="cls-10" d="m55.14,93.2c0-.17-.14-.32-.32-.32s-.32.14-.32.32.14.32.32.32.32-.14.32-.32Z"/>
              <path class="cls-10" d="m57.31,86.93c0-.6-.49-1.08-1.08-1.08s-1.08.48-1.08,1.08.48,1.08,1.08,1.08,1.08-.48,1.08-1.08Z"/>
              <path class="cls-10" d="m63.18,81.16c0-.3-.24-.54-.54-.54s-.54.24-.54.54.24.54.54.54.54-.24.54-.54Z"/>
              <path class="cls-10" d="m66.05,98.56c0-.22-.18-.41-.41-.41s-.41.18-.41.41.18.41.41.41.41-.18.41-.41Z"/>
              <path class="cls-10" d="m60.59,90.69c0-.3-.24-.54-.54-.54s-.54.24-.54.54.24.54.54.54.54-.24.54-.54Z"/>
              <path class="cls-10" d="m69.57,87.29c0-.37-.3-.68-.67-.68s-.68.3-.68.68.3.68.68.68.67-.3.67-.68Z"/>
            </g>
            <g class="cls-11">
              <path class="cls-10" d="m50.29,77.82c0,.25.2.45.45.45s.45-.2.45-.45-.2-.45-.45-.45-.45.2-.45.45Z"/>
              <path class="cls-10" d="m42.56,83.39c0,.52.42.95.94.95s.95-.42.95-.95-.42-.95-.95-.95-.94.42-.94.95Z"/>
              <path class="cls-10" d="m43.41,78.27c0,.37.3.68.68.68s.68-.3.68-.68-.31-.68-.68-.68-.68.3-.68.68Z"/>
              <path class="cls-10" d="m39.13,82.31c0,.17.14.32.31.32s.32-.14.32-.32-.14-.32-.32-.32-.31.14-.31.32Z"/>
              <path class="cls-10" d="m37.05,77.82c0,.6.49,1.08,1.08,1.08s1.08-.48,1.08-1.08-.48-1.08-1.08-1.08-1.08.49-1.08,1.08Z"/>
              <path class="cls-10" d="m34.26,82.08c0,.3.24.54.54.54s.54-.24.54-.54-.24-.54-.54-.54-.54.24-.54.54Z"/>
              <path class="cls-10" d="m25.89,76.54c0,.23.18.4.4.4s.4-.18.4-.4-.18-.41-.4-.41-.4.18-.4.41Z"/>
              <path class="cls-10" d="m30.11,78.36c0,.3.25.54.54.54s.54-.24.54-.54-.24-.54-.54-.54-.54.24-.54.54Z"/>
              <path class="cls-10" d="m29.3,83.3c0,.37.3.68.67.68s.68-.3.68-.68-.3-.68-.68-.68-.67.3-.67.68Z"/>
            </g>
            <g class="cls-11">
              <path class="cls-10" d="m63.93,94.14c0-.25-.2-.45-.45-.45s-.45.2-.45.45.2.45.45.45.45-.2.45-.45Z"/>
              <path class="cls-10" d="m67.54,92.75c0-.52-.42-.95-.95-.95s-.95.42-.95.95.42.95.95.95.95-.42.95-.95Z"/>
              <path class="cls-10" d="m68.89,95.9c0-.37-.3-.68-.67-.68s-.68.3-.68.68.3.68.68.68.67-.3.67-.68Z"/>
              <path class="cls-10" d="m70.97,93.83c0-.17-.14-.31-.32-.31s-.32.14-.32.31.14.32.32.32.32-.14.32-.32Z"/>
              <path class="cls-10" d="m74.12,97.48c0-.6-.49-1.08-1.08-1.08s-1.08.49-1.08,1.08.48,1.08,1.08,1.08,1.08-.49,1.08-1.08Z"/>
              <path class="cls-10" d="m75.84,94.05c0-.3-.24-.54-.54-.54s-.54.24-.54.54.24.54.54.54.54-.24.54-.54Z"/>
              <path class="cls-10" d="m78.36,98.97c0-.22-.18-.41-.41-.41s-.4.18-.4.41.18.41.4.41.41-.18.41-.41Z"/>
              <path class="cls-10" d="m78.63,96.44c0-.3-.24-.54-.54-.54s-.54.24-.54.54.24.54.54.54.54-.24.54-.54Z"/>
              <path class="cls-10" d="m80.79,92.84c0-.37-.3-.68-.67-.68s-.68.3-.68.68.3.68.68.68.67-.3.67-.68Z"/>
            </g>
            <g class="cls-11">
              <path class="cls-10" d="m11.16,97.05c-.24-.07-.49.07-.56.31-.07.24.07.49.31.56.24.07.49-.07.56-.31.07-.24-.07-.49-.3-.56Z"/>
              <path class="cls-10" d="m10.39,90.73c-.5-.15-1.03.14-1.18.64-.15.5.14,1.03.64,1.18.5.15,1.03-.14,1.18-.64.15-.5-.14-1.03-.64-1.17Z"/>
              <path class="cls-10" d="m18.83,97.91c-.36-.11-.73.1-.84.46-.11.36.1.73.46.84.36.11.73-.1.84-.46.1-.36-.1-.73-.46-.84Z"/>
              <path class="cls-10" d="m6.18,83.25c-.17-.05-.34.05-.39.21-.05.17.05.34.21.39.17.05.34-.05.39-.21.05-.17-.05-.34-.21-.39Z"/>
              <path class="cls-10" d="m16.78,85.75c-.57-.17-1.17.16-1.34.74-.17.57.16,1.18.73,1.34.57.17,1.17-.16,1.34-.73.17-.57-.16-1.18-.73-1.35Z"/>
              <path class="cls-10" d="m11.22,84.43c-.29-.09-.59.08-.67.37-.08.29.08.58.37.67.29.08.59-.08.67-.37.08-.29-.08-.59-.37-.67Z"/>
              <path class="cls-10" d="m22.25,85.32c-.22-.06-.44.06-.5.28-.06.22.06.44.27.51.22.06.44-.06.5-.28.06-.21-.06-.44-.27-.51Z"/>
              <path class="cls-10" d="m20.47,77.84c-.29-.08-.59.08-.67.37-.08.29.08.59.37.67.29.08.59-.08.67-.37.08-.29-.08-.59-.37-.67Z"/>
              <path class="cls-10" d="m11.26,76.57c-.36-.11-.73.1-.84.46-.11.36.1.73.46.84.36.1.73-.1.84-.46.11-.36-.1-.73-.46-.84Z"/>
            </g>
            <g class="cls-11">
              <path class="cls-10" d="m24.34,91.17c0-.25-.2-.45-.45-.45s-.45.2-.45.45.2.45.45.45.45-.2.45-.45Z"/>
              <path class="cls-10" d="m24.84,83.87c0-.52-.42-.95-.95-.95s-.95.42-.95.95.43.95.95.95.95-.43.95-.95Z"/>
              <path class="cls-10" d="m29.3,92.93c0-.37-.3-.68-.68-.68s-.68.3-.68.68.3.68.68.68.68-.3.68-.68Z"/>
              <path class="cls-10" d="m31.69,85.3c0-.17-.14-.31-.32-.31s-.32.14-.32.31.14.32.32.32.32-.14.32-.32Z"/>
              <path class="cls-10" d="m34.53,94.51c0-.6-.49-1.08-1.08-1.08s-1.08.48-1.08,1.08.48,1.08,1.08,1.08,1.08-.48,1.08-1.08Z"/>
              <path class="cls-10" d="m36.78,87.83c0-.3-.24-.54-.54-.54s-.54.24-.54.54.24.54.54.54.54-.24.54-.54Z"/>
              <path class="cls-10" d="m43.54,98.97c0-.22-.18-.41-.41-.41s-.41.18-.41.41.18.41.41.41.41-.18.41-.41Z"/>
              <path class="cls-10" d="m40.39,95.18c0-.3-.25-.54-.54-.54s-.54.24-.54.54.24.54.54.54.54-.24.54-.54Z"/>
              <path class="cls-10" d="m44.76,86.25c0-.37-.3-.68-.68-.68s-.68.3-.68.68.31.68.68.68.68-.3.68-.68Z"/>
            </g>
            <g class="cls-11">
              <path class="cls-10" d="m97.4,80.71c0-.25-.2-.45-.45-.45s-.45.2-.45.45.2.45.45.45.45-.2.45-.45Z"/>
              <path class="cls-10" d="m101,79.31c0-.52-.42-.95-.95-.95s-.95.42-.95.95.42.95.95.95.95-.43.95-.95Z"/>
              <path class="cls-10" d="m102.36,82.47c0-.37-.3-.68-.68-.68s-.68.3-.68.68.3.68.68.68.68-.3.68-.68Z"/>
              <path class="cls-10" d="m104.43,80.39c0-.17-.15-.31-.32-.31s-.32.14-.32.31.14.32.32.32.32-.14.32-.32Z"/>
              <path class="cls-10" d="m107.58,84.04c0-.6-.48-1.08-1.08-1.08s-1.08.48-1.08,1.08.49,1.08,1.08,1.08,1.08-.48,1.08-1.08Z"/>
              <path class="cls-10" d="m109.3,80.62c0-.3-.24-.54-.54-.54s-.54.24-.54.54.24.54.54.54.54-.24.54-.54Z"/>
              <path class="cls-10" d="m111.82,85.53c0-.22-.18-.41-.4-.41s-.41.18-.41.41.18.4.41.4.4-.18.4-.4Z"/>
              <path class="cls-10" d="m112.09,83.01c0-.3-.25-.54-.54-.54s-.54.24-.54.54.24.54.54.54.54-.24.54-.54Z"/>
              <path class="cls-10" d="m114.26,79.4c0-.37-.31-.68-.68-.68s-.68.3-.68.68.3.68.68.68.68-.3.68-.68Z"/>
            </g>
            <g class="cls-11">
              <path class="cls-10" d="m110.59,84.5c0-.25-.2-.45-.45-.45s-.45.2-.45.45.2.45.45.45.45-.2.45-.45Z"/>
              <path class="cls-10" d="m114.2,83.1c0-.52-.42-.95-.95-.95s-.95.42-.95.95.42.95.95.95.95-.43.95-.95Z"/>
              <path class="cls-10" d="m115.55,86.25c0-.37-.3-.68-.68-.68s-.68.3-.68.68.3.68.68.68.68-.3.68-.68Z"/>
              <path class="cls-10" d="m117.63,84.18c0-.17-.14-.32-.32-.32s-.32.14-.32.32.14.32.32.32.32-.14.32-.32Z"/>
              <path class="cls-10" d="m120.78,87.83c0-.6-.48-1.08-1.08-1.08s-1.08.48-1.08,1.08.49,1.08,1.08,1.08,1.08-.48,1.08-1.08Z"/>
              <path class="cls-10" d="m122.49,84.41c0-.3-.24-.54-.54-.54s-.54.24-.54.54.24.54.54.54.54-.24.54-.54Z"/>
              <path class="cls-10" d="m125.02,89.32c0-.22-.18-.41-.41-.41s-.41.18-.41.41.18.4.41.4.41-.18.41-.4Z"/>
              <path class="cls-10" d="m125.29,86.8c0-.3-.24-.54-.54-.54s-.54.24-.54.54.24.54.54.54.54-.24.54-.54Z"/>
              <path class="cls-10" d="m127.45,83.19c0-.37-.3-.67-.68-.67s-.68.3-.68.67.31.68.68.68.68-.3.68-.68Z"/>
            </g>
          </g>
        </g>
      </g>
    </g>
  </g>
</svg>