<svg xmlns="http://www.w3.org/2000/svg" viewBox="0 0 1500 750"><defs>
    <filter id="glow" x="-50%" y="-50%" width="200%" height="200%">
        {/* Blur the entire shape (stroke + fill) */}
        <feGaussianBlur in="SourceGraphic" stdDeviation="2" result="blur1" />
        <feFlood flood-color="#fff" result="color1" />
        <feComposite in="color1" in2="blur1" operator="in" result="glow1" />
        <feGaussianBlur in="SourceGraphic" stdDeviation="4" result="blur2" />
        <feFlood flood-color="#fff" result="color2" />
        <feComposite in="color2" in2="blur2" operator="in" result="glow2" />
        <feGaussianBlur in="SourceGraphic" stdDeviation="6" result="blur3" />
        <feFlood flood-color="#c5948c" result="color3" />
        <feComposite in="color3" in2="blur3" operator="in" result="glow3" />
        <feGaussianBlur in="SourceGraphic" stdDeviation="8" result="blur4" />
        <feFlood flood-color="#c5948c" result="color4" />
        <feComposite in="color4" in2="blur4" operator="in" result="glow4" />
        <feGaussianBlur in="SourceGraphic" stdDeviation="12" result="blur5" />
        <feFlood flood-color="#c5948c" result="color5" />
        <feComposite in="color5" in2="blur5" operator="in" result="glow5" />
        <feGaussianBlur in="SourceGraphic" stdDeviation="16" result="blur6" />
        <feFlood flood-color="#c5948c" result="color6" />
        <feComposite in="color6" in2="blur6" operator="in" result="glow6" />
        {/* Merge all glow layers with the original shape */}
        <feMerge>
          <feMergeNode in="glow1" />
          <feMergeNode in="glow2" />
          <feMergeNode in="glow3" />
          <feMergeNode in="glow4" />
          <feMergeNode in="glow5" />
          <feMergeNode in="glow6" />
          <feMergeNode in="SourceGraphic" /> {/* Original path (stroke + fill) on top */}
        </feMerge>
      </filter>
		<style>.cls-1{isolation:isolate;}.cls-2,.cls-3,.cls-4{fill:none;}.cls-3{opacity:0.6;}.cls-3,.cls-4{mix-blend-mode:color-dodge;}.cls-4{opacity:0.4;}</style></defs><title>repostero4</title><g class="cls-1"><g id="Layer_1" data-name="Layer 1"><rect class="cls-2" width="1500" height="750"/><path id="shadow_cake_5" class="cls-2" d="M950.15,306.78s0-.07,0-.11,0-.28,0-.42h0c0-.11,0-.22,0-.34s0,0,0-.06v-.08c0-.32-.08-.66-.13-1v0c0-.38-.11-.79-.17-1.22v-.09c0-.25-.08-.52-.12-.79s-.05-.31-.08-.47a5.25,5.25,0,0,0-.09-.55l-.09-.57-.15-.88c0-.09,0-.16,0-.24-.07-.43-.15-.86-.23-1.3-.16-.91-.33-1.87-.52-2.86,0-.15,0-.28-.07-.43l-.12-.63-.36-2c-1-5.26-2.11-11.14-3.08-16.53,2.15,0,3.1-3.07,3-6.76,0-5.25-2.11-11.86-5.64-12.62q-3.18-.69-6.24-1.32s0-.07,0-.1c0-.22-.06-.46-.1-.71a.88.88,0,0,0,0-.16c0-.22-.06-.46-.1-.7,0-.05,0-.09,0-.14l0-.18c0-.17,0-.35-.08-.52l0-.19c0-.26-.08-.52-.13-.79v-.06c0-.28-.1-.58-.15-.88V251c-.06-.32-.11-.65-.17-1-.11-.62-.23-1.28-.36-1.95,0-.13,0-.26-.07-.4l0-.14-.09-.48c-.09-.48-.18-1-.28-1.47-.88-4.76-1.94-10.21-2.74-14.87a6.76,6.76,0,0,0,1-3.86v-.15c0-.12,0-.24,0-.36,0-4.1-1.6-9.36-4.37-10-6.79-1.47-13-2.68-18.76-3.65a5.36,5.36,0,0,0,.77-6.64,5.24,5.24,0,0,0-3.62-2.32,4.83,4.83,0,0,0-3.23.45c-.19-.26-.4-.52-.64-.79a10.83,10.83,0,0,0-.89-.91,12.75,12.75,0,0,0-1-.89c-.36-.29-.74-.56-1.13-.82s-.78-.51-1.19-.73-.81-.41-1.21-.6-.79-.32-1.17-.45a10.58,10.58,0,0,0-1.09-.3c-.34-.06-.65-.13-.93-.15a5,5,0,0,0-.73,0l-.64,0h.64a5.4,5.4,0,0,1,.72.07,8.16,8.16,0,0,1,.92.2c.33.07.68.22,1,.34s.75.32,1.13.51a12,12,0,0,1,1.15.65c.39.23.76.5,1.13.77s.72.56,1.06.85.66.6,1,.92.55.62.81.91.36.49.52.73l0,0-.07,0a5.42,5.42,0,0,0-2.09,6.77q-3.39-.48-6.52-.83a5.21,5.21,0,0,0-.58-8.16,4.85,4.85,0,0,0-2.93-1c-.06-.32-.12-.65-.2-1s-.21-.81-.36-1.22-.32-.84-.5-1.27-.4-.84-.62-1.25-.45-.81-.72-1.19a12.65,12.65,0,0,0-.79-1.09c-.27-.34-.55-.66-.82-1a11.06,11.06,0,0,0-.83-.76,6.53,6.53,0,0,0-.76-.57,5.26,5.26,0,0,0-.63-.38l-.57-.27.56.3a5.91,5.91,0,0,1,.6.41,7,7,0,0,1,.72.59c.27.22.5.52.78.8s.51.63.76,1,.5.72.72,1.11.44.8.65,1.21.38.83.53,1.25a13,13,0,0,1,.42,1.24c.13.41.2.81.29,1.19s.09.61.13.89h-.11a5.41,5.41,0,0,0-5,5.79,5,5,0,0,0,1,2.56c-2.31-.17-4.49-.28-6.55-.35a4.94,4.94,0,0,0-.38-3q.39-.27.81-.6c.31-.27.64-.54,1-.86a12.51,12.51,0,0,0,.92-1c.31-.35.59-.72.87-1.09s.54-.77.76-1.17.45-.79.65-1.18.35-.78.5-1.16a9.17,9.17,0,0,0,.33-1.07,8.1,8.1,0,0,0,.19-.93,5.39,5.39,0,0,0,.07-.73v-.64s0,.23,0,.64a4.54,4.54,0,0,1-.1.72,6.39,6.39,0,0,1-.23.91,9.75,9.75,0,0,1-.39,1q-.24.54-.54,1.11c-.22.37-.43.76-.7,1.13s-.53.73-.81,1.1-.58.7-.89,1a11.56,11.56,0,0,1-.95.91c-.31.3-.64.53-1,.78s-.5.34-.74.49l0,0,0-.06a5.41,5.41,0,0,0-7.38-2,5.32,5.32,0,0,0-2.41,5.85c-19.32,1.3-23.12,8.36-24,12.57-.64,3-3.18,10.76-3.23,16v.43c0,3.14,1,5.26,4,4.65a6.2,6.2,0,0,0,2.07-3.6l-.18.94c-.19,1-.38,2-.56,3l-.12.6c-.21,1.16-.42,2.29-.62,3.36,0,.15-.05.29-.08.43l-.06.32c0,.21-.07.41-.11.61l-.12.66c0,.2-.07.39-.1.58l-.09.53c-.08.45-.16.89-.23,1.31a.5.5,0,0,1,0,.12s0,.06,0,.09l0,.13a20.61,20.61,0,0,0-8.46,6.42h0a14.59,14.59,0,0,0-2.46,5.54c-.83,3.85-4.12,13.91-4.17,20.65v.55c0,2.55.55,4.59,1.9,5.54-.26,1.41-.51,2.77-.76,4.09l0,.19c0,.19-.07.38-.11.57s0,.28-.07.42l-.15.8c0,.3-.1.59-.16.88s0,.31-.08.47v0c0,.08,0,.16,0,.24s0,.17,0,.25c-.14.79-.27,1.55-.39,2.27l0,.08v.07c-.2,1.18-.36,2.24-.49,3.16l0,.19c0,.1,0,.2,0,.29s0,.06,0,.09c-.05.34-.09.66-.12.95,0,.12,0,.24,0,.35v.06c0,.13,0,.26,0,.38-6.47.83-10.19,1.8-10.19,2.84,0,3,31.59,5.47,70.57,5.47s70.56-2.45,70.56-5.47C960.34,308.58,956.62,307.61,950.15,306.78ZM849,232c-.39,2.22-.83,4.58-1.27,6.94C848.07,236.55,847.82,234,849,232Z"/><path id="shadow_cake_7" class="cls-3" d="M1229.55,305.36c-.16-2.6,1.18-10.34,2.71-18.59.63.14,1.41-.22,2.37-1.33,4.15-4.83,6.85-10.86,7.33-16.19a15.88,15.88,0,0,0-.53-9.11c-2.12-5.1-8.5-8.3-14.32-10.66a3.77,3.77,0,0,0,1.8-2.92,3.9,3.9,0,0,0-3.67-4.11h-.08c0-.2,0-.41.08-.64s.11-.56.2-.85a8.67,8.67,0,0,1,.29-.91c.11-.3.24-.6.37-.9s.28-.6.45-.87.34-.55.51-.81.36-.49.54-.71a6.19,6.19,0,0,1,.55-.58,4.66,4.66,0,0,1,.51-.44,5,5,0,0,1,.43-.3l.4-.22-.41.2c-.13.06-.27.17-.45.28a4.44,4.44,0,0,0-.54.42,6,6,0,0,0-.58.56,8.18,8.18,0,0,0-.59.69,9.29,9.29,0,0,0-.56.79c-.18.28-.34.57-.5.87s-.31.6-.44.9-.24.62-.34.92-.17.6-.25.88-.1.49-.13.72a3.53,3.53,0,0,0-2.2.83A3.77,3.77,0,0,0,1221,246a3.57,3.57,0,0,0,.12,1.18l-.43-.17a23.92,23.92,0,0,0-2.42-.76c.38-2.68,1-6.15,1.67-9.74.48.11,1.07-.16,1.79-1a22.88,22.88,0,0,0,5.57-12.29,12.07,12.07,0,0,0-.4-6.92c-1.28-3.09-4.62-5.26-8.15-6.92a3.89,3.89,0,0,0,.36-5.21l0,0v0c.16-.11.33-.24.53-.36a7,7,0,0,1,.77-.42,7.49,7.49,0,0,1,.86-.39c.3-.12.62-.22.93-.32s.63-.19.95-.25.63-.11.94-.16l.89-.06a5.24,5.24,0,0,1,.8,0,4.34,4.34,0,0,1,.67.09c.2.05.37.07.51.12l.43.15-.43-.17c-.13-.06-.31-.09-.5-.15a4.22,4.22,0,0,0-.67-.12,6.61,6.61,0,0,0-.81-.07c-.29,0-.59,0-.91,0a8.12,8.12,0,0,0-1,.12c-.33,0-.65.12-1,.19s-.66.18-1,.28a9.06,9.06,0,0,0-.91.36,7.82,7.82,0,0,0-.82.4,6.17,6.17,0,0,0-.63.38,3.54,3.54,0,0,0-2.07-1.09,3.74,3.74,0,0,0-4.48,4l-1-.4a19.57,19.57,0,0,0-2.55-.76c.17-1.79.66-4.65,1.23-7.76.23-.05.47-.08.69-.12l.89-.06a6.88,6.88,0,0,1,.8,0,5.46,5.46,0,0,1,.67.09,3.4,3.4,0,0,1,.51.13l.43.14-.42-.17c-.14-.06-.31-.09-.51-.15a3.84,3.84,0,0,0-.67-.12,6.61,6.61,0,0,0-.81-.07c-.28,0-.59,0-.9,0l-.64.07c.07-.4.14-.8.22-1.2.36.09.8-.11,1.35-.75a17.25,17.25,0,0,0,4.17-9.22,9,9,0,0,0-.3-5.18c-1.7-4.07-8.14-6-11.81-7.49-1.8-.72-6.46-1.54-12.35-2.14.11-.75.22-1.52.32-2.32,0-.14,0-.28,0-.42.1-.75.18-1.51.25-2.26l.06-.7c0-.41.05-.83.08-1.24,0-.17,0-.35,0-.53,0-.58,0-1.14,0-1.68,0-.17,0-.33,0-.5a14.79,14.79,0,0,0-.19-1.86,6.29,6.29,0,0,0-.78-2.29h0a1.88,1.88,0,0,0-.16-.23,2.41,2.41,0,0,0-1.43-.95,2.5,2.5,0,0,0-.65-.06,2.58,2.58,0,0,0-.39,0l-.18.05a1.14,1.14,0,0,0-.26.09A4.15,4.15,0,0,0,1186,159a2,2,0,0,0-.13.34,11.83,11.83,0,0,0-.48,1.49c-.07.28-.14.56-.2.86a3.58,3.58,0,0,0-.09.45,32.18,32.18,0,0,0-.47,3.68,5.32,5.32,0,0,0-.61-.55v-.09c0-.43,0-.87-.08-1.31l0-.51c-.07-1.23-.16-2.48-.28-3.73,0-.15,0-.3,0-.45v0a10.74,10.74,0,0,1,.65-.92q.36-.45.72-.84c.26-.24.48-.5.72-.68a6.63,6.63,0,0,1,.67-.51,3.46,3.46,0,0,1,.55-.33l.51-.25-.52.22a4.22,4.22,0,0,0-.58.31,5.88,5.88,0,0,0-.7.48,8.52,8.52,0,0,0-.76.65c-.26.25-.52.52-.77.81s-.36.44-.53.67a1.36,1.36,0,0,1,0-.2l-.12-1c-.13-1.08-.3-2.16-.5-3.21,0-.14,0-.27-.08-.4q-.12-.64-.27-1.26l-.09-.35c-.16-.63-.33-1.26-.53-1.87,0-.1-.06-.19-.1-.29a19.4,19.4,0,0,0-1.58-3.55l-.15-.26a11.65,11.65,0,0,0-.89-1.28,7.33,7.33,0,0,0-.57-.68,9.49,9.49,0,0,0-.7-.72l-.2-.18a10.59,10.59,0,0,0-1.48-1.08c-.24-.15-.48-.27-.7-.38l-.26-.11a4.22,4.22,0,0,0-.6-.2l-.32-.08a2.88,2.88,0,0,0-2.57.75h0a4.75,4.75,0,0,0-.89,1.19,11,11,0,0,0-1.06,3.45c0,.18,0,.36-.07.54a16,16,0,0,0-.12,2.61,1.93,1.93,0,0,1,0,.24c0,.08,0,.16,0,.25a17.53,17.53,0,0,0,.39,2.56c.14.61.31,1.2.5,1.78h0a26.89,26.89,0,0,0,1.27,3.1c.06.11.11.22.16.33.27.54.55,1.09.84,1.63.06.11.12.21.17.32.33.62.68,1.25,1,1.88l.17.31c.06.11.12.23.19.34l-.26-.17-.23-.15c-.39-.25-.86-.55-1.39-.87l-.24-.15-.44-.26-.47-.26L1171,161l-.24-.12a22,22,0,0,0-2.36-1.12,2,2,0,0,0-.26-.09,3.35,3.35,0,0,0-.53-.19l-.38-.12a5.77,5.77,0,0,0-1.59-.26,2.71,2.71,0,0,0-.41,0c-1.16.17-1.77,1.13-1.26,3.43,0,0,0,0,0,0l.12.46a10.16,10.16,0,0,0,1.73,3.23,2.65,2.65,0,0,0,.21.26,19,19,0,0,0,1.85,2l.23.21c.41.37.84.73,1.28,1.08l.22.18c.39.3.8.58,1.21.87a65.63,65.63,0,0,0-15.28,2c-5.54,1.6-9.51,7.87-10,13.1-.94,4.83.82,9.19,6.66,8.92l0,.06c-.15.29-.3.6-.43.9a8.55,8.55,0,0,0-.34.92,8.45,8.45,0,0,0-.25.88c-.06.25-.1.49-.14.72a3.5,3.5,0,0,0-2.19.82,3.8,3.8,0,0,0-1.5,2.72,3.76,3.76,0,0,0,1.07,2.89c-.42.1-.85.21-1.25.33-7.39,2.13-12.67,10.5-13.31,17.48-1.32,6.84,1.41,13,10.42,11.74.1.51.19,1,.29,1.52l-.5.15c-.27.09-.55.2-.84.32s-.59.27-.87.44-.58.33-.86.51-.55.39-.81.6-.51.42-.74.64-.44.44-.64.65-.32.39-.46.58a3.5,3.5,0,0,0-2.32-.33,3.78,3.78,0,0,0-2.61,1.67,3.87,3.87,0,0,0,.72,4.94c-8.8,3.55-15,13.79-15.77,22.41-1.74,9,1.86,17.09,13.73,15.46l.09.47c.07.35.13.71.2,1.06s.09.51.14.77c.12.62.23,1.23.34,1.85,0,.16.07.33.1.5.74,4.07,1.42,7.94,1.86,11v0c0,.29.08.56.11.84s.06.4.08.59l.06.41s0,.09,0,.13c.07.52.12,1,.16,1.46a2,2,0,0,1,0,.23c0,.22,0,.43,0,.63a.92.92,0,0,1,0,.16l0,.48v.68c-12.84.57-20.88,1.38-20.88,2.28,0,1.73,29.3,3.12,65.44,3.12s65.43-1.39,65.43-3.12C1245.83,306.62,1239.68,305.9,1229.55,305.36Zm-77.8-108.56c.08-.3.18-.6.29-.91s.24-.6.38-.9l.1-.21c.27,0,.55,0,.83-.08.16.83.31,1.66.46,2.47l0,.13c.13.73.26,1.45.38,2.14l0,.17a4,4,0,0,0-2.69-1.31s0,0,0,0h0c0-.2,0-.41.08-.64S1151.66,197.09,1151.75,196.8Zm-12.15,42.57c.19-.21.37-.44.59-.66a8.46,8.46,0,0,1,.68-.65c.24-.22.5-.42.76-.62s.53-.39.81-.55.56-.32.83-.47.55-.26.81-.36l.48-.17c.49,2.62,1,5.19,1.33,7.46-1.69.25-3.32.54-4.88.86a3.92,3.92,0,0,0-1.71-4.27l0,0h0C1139.34,239.73,1139.46,239.56,1139.6,239.37Z"/><path id="shadow_cake_6" class="cls-2" d="M1100.78,306.13c0-.11,0-.24,0-.37v0c0-.11,0-.24,0-.36s0-.4-.08-.62h0c0-.12,0-.24,0-.37v-.07c0-.1,0-.2,0-.3a3.06,3.06,0,0,1,0-.32c-.22-1.53-.53-3.41-.9-5.52,0-.12,0-.24-.07-.37s0-.31-.08-.46c-.07-.4-.14-.81-.22-1.22l-.15-.83c0-.14,0-.29-.08-.43s-.07-.39-.1-.59-.07-.34-.1-.51c-.22-1.18-.44-2.4-.68-3.66l0-.24c1.39-1,1.93-3.07,2-5.69v-.56c0-7-3.44-17.34-4.3-21.33a14.91,14.91,0,0,0-2.54-5.7v0h0a21.24,21.24,0,0,0-8.72-6.62c-.17-1.06-.38-2.25-.61-3.53-.52-2.87-1.15-6.18-1.78-9.52a6.41,6.41,0,0,0,2.13,3.69c3.1.63,4.14-1.57,4.16-4.82a1,1,0,0,0,0-.17c0-.09,0-.19,0-.29,0-5.38-2.66-13.37-3.32-16.44-.73-3.38-3.26-8.54-13.75-11.29a4.14,4.14,0,0,0,.37-.46,4.52,4.52,0,0,0-1.47-6.23l0,0h0c.13-.2.27-.4.43-.61a9.39,9.39,0,0,1,.68-.77c.24-.26.51-.51.79-.76s.58-.49.88-.72.62-.45.95-.64.64-.37,1-.54.64-.3.94-.42a7.63,7.63,0,0,1,.89-.29,5.2,5.2,0,0,1,.76-.16,3.93,3.93,0,0,1,.61-.07h.53l-.53,0a4.77,4.77,0,0,0-.61,0,6.63,6.63,0,0,0-.79.12c-.29.05-.58.16-.91.25s-.64.23-1,.38-.67.31-1,.5-.67.39-1,.6-.64.45-.94.69-.59.48-.86.74-.51.52-.74.76-.37.45-.53.67a4.07,4.07,0,0,0-2.7-.38,4.33,4.33,0,0,0-3.37,6c-1-.11-1.94-.2-3-.27a4.49,4.49,0,0,0-1.9-5.34,4.54,4.54,0,0,0-6.17,1.7s0,0,0,.06l0,0c-.2-.12-.41-.26-.62-.41a9.13,9.13,0,0,1-.8-.65c-.27-.23-.53-.49-.79-.76s-.5-.56-.75-.86-.47-.6-.67-.92a10.36,10.36,0,0,1-.58-.94c-.17-.31-.32-.63-.46-.93s-.25-.59-.32-.87c0-.11-.07-.22-.1-.33h0a8.33,8.33,0,0,1-.18-1c0-.33,0-.53,0-.53v.53a3.58,3.58,0,0,0,.06.61,3.06,3.06,0,0,0,.07.4h-.11a4.66,4.66,0,0,0-.61,0,4.87,4.87,0,0,0-.78.13c-.29,0-.59.16-.91.24s-.65.24-1,.38-.68.31-1,.51a11.5,11.5,0,0,0-1,.6c-.32.22-.64.45-.94.69a10.25,10.25,0,0,0-.85.74c-.28.24-.51.51-.75.76s-.37.45-.53.67a4.07,4.07,0,0,0-2.7-.38,4.35,4.35,0,0,0-3,1.94,4.45,4.45,0,0,0,.19,5q-2.82.34-5.87.76a4,4,0,0,0,.58-.71,4.53,4.53,0,0,0-1.47-6.23l0,0h0c.14-.2.28-.4.44-.61a9.39,9.39,0,0,1,.68-.77c.24-.26.51-.51.79-.76s.58-.48.88-.72.62-.45,1-.64.64-.37,1-.54.64-.3.94-.42a7.07,7.07,0,0,1,.89-.29,6.66,6.66,0,0,1,.76-.17,5.41,5.41,0,0,1,.61-.06h.52l-.53,0a3.4,3.4,0,0,0-.6,0,5.07,5.07,0,0,0-.79.12c-.29.05-.58.16-.91.25s-.64.23-1,.38-.67.31-1,.5-.67.39-1,.6-.64.45-.94.69a10.41,10.41,0,0,0-.86.74c-.28.25-.51.52-.74.76s-.37.45-.54.67a4,4,0,0,0-2.69-.38,4.37,4.37,0,0,0-3,1.94,4.53,4.53,0,0,0,1.46,6.23,3.29,3.29,0,0,0,.46.23l-4.15.68a4.15,4.15,0,0,0,.24-1.37,4.52,4.52,0,0,0-4.59-4.45h-.09a6.51,6.51,0,0,1,0-.75,9.49,9.49,0,0,1,.15-1c.06-.35.16-.71.26-1.07s.22-.72.35-1.08.28-.71.45-1.05.34-.66.52-1,.37-.59.56-.86a7.59,7.59,0,0,1,.59-.72,4.11,4.11,0,0,1,.56-.55,3.41,3.41,0,0,1,.47-.38l.44-.3-.46.27a5,5,0,0,0-.49.36,5.52,5.52,0,0,0-.59.53,7.36,7.36,0,0,0-.63.7c-.21.26-.42.54-.63.85a11,11,0,0,0-.57,1c-.19.34-.35.69-.51,1.05s-.3.72-.43,1.09-.23.72-.32,1.08-.15.71-.21,1.05-.07.57-.09.84a4,4,0,0,0-2.47,1.15,4.34,4.34,0,0,0-1.5,3.26,4.39,4.39,0,0,0,1,2.81q-5.35,1-11.24,2.29c-2.86.62-4.54,6.06-4.5,10.29v.35a1,1,0,0,0,0,.17,6.84,6.84,0,0,0,1.07,4c-.83,4.81-1.92,10.42-2.83,15.33-.1.52-.19,1-.29,1.52l-.09.5c0,.08,0,.16,0,.24s0,.16,0,.24c-.13.72-.26,1.42-.37,2.08-.06.33-.12.66-.17,1l-.06.34c0,.19-.07.38-.1.57s0,.32-.08.48l-.06.35-.09.58,0,.19c0,.1,0,.2-.05.3l0,.21c0,.19,0,.38-.08.56s0,.21,0,.31-.06.46-.09.67c0,0,0,.08,0,.12-2.11.43-4.25.88-6.44,1.35-3.62.79-5.77,7.56-5.81,13-.07,3.82.91,7,3.15,7-1,5.56-2.17,11.62-3.18,17-.13.68-.25,1.36-.38,2l-.12.66c-.12.66-.23,1.3-.35,1.93s-.18,1-.26,1.46-.16.89-.23,1.31c0,.11,0,.2,0,.3,0,.31-.11.62-.16.92s-.05.3-.07.44-.08.48-.12.71,0,.32-.07.47-.07.43-.1.63a1.57,1.57,0,0,1,0,.23.77.77,0,0,1,0,.15c0,.35-.1.68-.14,1l0,.22c0,.34-.09.65-.12.94l0,.18v.06c0,.12,0,.24,0,.35h0c0,.15,0,.3,0,.44a.13.13,0,0,0,0,.06c-5.3.77-8.32,1.65-8.32,2.58,0,3,31.6,5.48,70.57,5.48s70.57-2.46,70.57-5.48C1109.09,307.78,1106.08,306.9,1100.78,306.13Zm-19.56-73.77a2.56,2.56,0,0,1,0-.27l-.18-1-.24-1.31-.12-.65s0,0,0-.08c1.15,2,.92,4.63,1.3,7.06C1081.68,234.86,1081.45,233.6,1081.22,232.36Zm-41.47-32.31c.21-.24.42-.51.67-.76s.52-.51.8-.76.58-.49.88-.72.62-.45.94-.64.65-.37,1-.54.64-.3,1-.43a7.37,7.37,0,0,1,.88-.28,4.33,4.33,0,0,1,.77-.17,3.57,3.57,0,0,1,.6-.06h.11c0,.12,0,.24.08.36.06.29.18.58.28.9s.26.64.42,1,.34.66.54,1,.42.65.64,1,.47.62.72.91.51.58.78.83a8.58,8.58,0,0,0,.79.71c.23.19.46.36.68.51a4,4,0,0,0-.27,2.72.59.59,0,0,0,0,.13c-3.26,0-6.84.21-10.77.52a4.55,4.55,0,0,0-1.83-5.49l-.06,0,0,0C1039.44,200.47,1039.58,200.26,1039.75,200.05Z"/><path id="shadow_cake_8" class="cls-3" d="M1351.78,302.39v-.17c0-.32,0-.68.07-1.08v-.06c0-.5.11-1.08.19-1.7,0-.41.11-.85.18-1.31.5-3.49,1.37-8.19,2.24-12.87,9.8,1.34,12.77-5.32,11.33-12.76-.68-7.44-6.24-16.34-14.06-18.85a12,12,0,0,0,.87-1.41q.17-.3.3-.6a4,4,0,0,0,.4-2,1.84,1.84,0,0,0-.17-.66c-.42-.93-1.63-1.57-4.06-1.69h-.82c-.26,0-.53,0-.79.08a18.05,18.05,0,0,0-7.54,3.41v-.05c0-.08,0-.16,0-.24a28.86,28.86,0,0,0,4.24-5c4.78-.72,6.19-5,5.28-9.7a18.61,18.61,0,0,0-4.62-10.22,14.64,14.64,0,0,0,2.46-2.25c.14-.17.26-.34.38-.51a2.75,2.75,0,0,0,.13-3.29,1.21,1.21,0,0,0-.3-.2,1.86,1.86,0,0,0-.55-.17c-1.75-.27-4.78,1.24-5.91,2.15a38.34,38.34,0,0,0,4.19-5.51c.1-.18.18-.36.26-.53a3.72,3.72,0,0,0,.36-1.7,1.67,1.67,0,0,0-.16-.58c-.36-.81-1.42-1.37-3.54-1.47h-.72l-.69.07a16.33,16.33,0,0,0-7.16,3.41h-.06c2.71-2.68,5.52-5.55,5.31-8.06a2.27,2.27,0,0,0-.09-.52,3.15,3.15,0,0,0-.5-1.05,3.21,3.21,0,0,0-.34-.41,5.82,5.82,0,0,0-.62-.57,7,7,0,0,0-4.87-.43c-.22.05-.44.12-.66.19a13.87,13.87,0,0,0-4.07,2.27c-.23.18-.46.36-.68.55s-.59.51-.88.78c-1.43-.71-2.81-1.25-2.77-3a5.24,5.24,0,0,1,.1-.81c.38-1.69,2.78-2.12,3-4.26.36-4.17-5.15-5.44-10-6.78a.14.14,0,0,1,0-.07l-1.93-1.42a2,2,0,0,0-.07.84l.11.09c-3.63-1.14-6.23-2.58-4.38-5.88a3.13,3.13,0,0,0-.3.2c-3.91,2.76.76,5.21-1.6,8.17a3.25,3.25,0,0,1-.53.52l-1.22-.89a2,2,0,0,0-.07.84l.6.49c-2.35,1.17-6,.52-7.9,2.85a4.52,4.52,0,0,0-1,3,3.69,3.69,0,0,0-.25.34c0,.09.22.86.39,1.55a7.37,7.37,0,0,1-.73,5c-.13.21-.34.52-.61.89a35.57,35.57,0,0,0-1.91-3.75c-.1-.16-.19-.32-.29-.47a10.17,10.17,0,0,0-3.75-3.84,5.25,5.25,0,0,0-.55-.22,3.92,3.92,0,0,0-1.4-.23,3.14,3.14,0,0,0-2.83,1.65,5.94,5.94,0,0,0-.32.67,13.51,13.51,0,0,0-.53,5.69c0,.19,0,.37,0,.56a41.21,41.21,0,0,0,1,5.54l.12.53a31.14,31.14,0,0,0,1.15,3.77c-.36-.33-.86-.86-1.47-1.49l-1-1-.49-.48-.41-.4a25.3,25.3,0,0,0-4.5-3.51l-.54-.29-.59-.28-.61-.23a3.41,3.41,0,0,0-3.79.73,2.8,2.8,0,0,0-.35.41l-.18.25a4,4,0,0,0-.53,3.23c0,.17.11.35.17.53a11.08,11.08,0,0,0,2.58,3.61l.39.38c1,1,2.11,1.87,3.18,2.73l1.1.87c-3.35,1.43-6.76,3.35-8,6.26a10.05,10.05,0,0,0-.33,5.71,18.87,18.87,0,0,0,4.6,10.14c.59.7,1.08.92,1.48.83.11.57.21,1.15.32,1.71-.37-.25-.74-.49-1.11-.7-.2-.12-.41-.24-.62-.34s-.45-.22-.67-.31l-.7-.27a3.88,3.88,0,0,0-4.75,1.31l-.2.28a4.52,4.52,0,0,0-.61,3.7c.06.2.12.4.2.61a12.4,12.4,0,0,0,3,4.13l.45.44.12.11c-3.95,1.82-7.73,4.21-9.17,7.66a13,13,0,0,0-.43,7.51,24.94,24.94,0,0,0,6,13.36c.78.92,1.43,1.2,2,1.08,1.21,6.5,2.26,12.62,2.25,15-9.52.69-15.37,1.61-15.37,2.63,0,2.1,25,3.8,55.9,3.8s55.91-1.7,55.91-3.8C1370.93,304.11,1363.51,303.08,1351.78,302.39Z"/><path id="shadow_cake_3" class="cls-2" d="M547.49,340.11c-.14-.19-.27-.39-.4-.59s-.4-.59-.59-.89-.27-.44-.4-.67-.35-.59-.51-.9-.25-.48-.37-.73-.31-.61-.45-.92-.23-.51-.34-.77-.28-.63-.4-.95-.21-.54-.31-.81-.24-.66-.35-1-.19-.56-.28-.84-.21-.68-.31-1l-.24-.87c-.09-.35-.18-.7-.26-1.05s-.15-.59-.21-.89-.16-.73-.23-1.09l-.18-.9c-.06-.37-.12-.75-.19-1.13s-.09-.6-.14-.9-.11-.79-.15-1.19l-.12-.88c0-.44-.08-.89-.13-1.33,0-.26,0-.51-.07-.77-.05-.69-.1-1.39-.14-2.09l0-.79c0-.45,0-.9-.05-1.35s0-.65,0-1,0-.78,0-1.18,0-.68,0-1,0-.75,0-1.13,0-.71,0-1.06,0-.74,0-1.11l.06-1.08c0-.36,0-.72.07-1.08s0-.72.08-1.08L541,304c0-.36.07-.72.1-1.08s.08-.71.11-1.05.09-.73.13-1.09.08-.69.13-1,.09-.72.14-1.08l.15-1c.06-.36.11-.72.17-1.08s.11-.65.16-1l.18-1.05.18-1c.07-.35.13-.7.2-1.05s.13-.6.19-.9.15-.7.22-1,.13-.54.19-.82c.17-.74.34-1.47.52-2.19.06-.22.11-.44.17-.65s.17-.64.26-1,.14-.55.22-.82l.06-.22c33.12-.92,58.62-6.63,58.62-13.53a2.18,2.18,0,0,0,0-.44h-9.64l.08-.17.07-.15.15-.33a12.43,12.43,0,0,0-3.24-14.2l-.32-.27a13.94,13.94,0,0,0-1.33-.95l-.42-.25-.53-.28-.39-.19a12.34,12.34,0,0,0-5.19-1.13h-.17l-.63,0a12.64,12.64,0,0,0-1.76.24c-.28.06-.56.13-.83.21a11.87,11.87,0,0,0-2.47,1,8.43,8.43,0,0,0,.11-.86s.06,0,.07,0a1.22,1.22,0,0,0,.12-.65s0,0,0-.07,0-.24,0-.36a.24.24,0,0,0-.15-.22,11.37,11.37,0,0,0-1.89-6l0-.06a.37.37,0,0,0-.12-.38.68.68,0,0,0-.36-.15,11.49,11.49,0,0,0-2.17-2.18.5.5,0,0,0,.12.08.23.23,0,0,0,.3-.1.25.25,0,0,0-.08-.32,3.37,3.37,0,0,0-.31-.21.25.25,0,0,0-.34,0,.14.14,0,0,0,0,.11l-.2-.1-.24,0c-.17-.11-.34-.22-.52-.32a.32.32,0,0,0,.12-.08.28.28,0,0,0,0-.37s0,0,0,0,0,0-.05,0a.44.44,0,0,0-.17-.08l-.14-.06a.26.26,0,0,0-.29.06.22.22,0,0,0,0,.29l-.41-.2a0,0,0,0,1,0,0h-.06a.36.36,0,0,0,0-.66,1.8,1.8,0,0,0-.92,0,.24.24,0,0,0-.18.28c-.29-.09-.58-.17-.88-.24v0a.17.17,0,0,0,0-.1v0a.24.24,0,0,0-.09-.14,1.14,1.14,0,0,0-1.07-.18c-.12,0-.11.17,0,.25a12.81,12.81,0,0,0-1.39-.09,10.26,10.26,0,0,0-1.67.14,11.41,11.41,0,0,0,3.62-7.37s.06,0,.07,0a1.21,1.21,0,0,0,.11-.65.25.25,0,0,0,0-.07,2.11,2.11,0,0,0,0-.36.23.23,0,0,0-.14-.22,11.38,11.38,0,0,0-1.9-6s0,0,0-.06a.34.34,0,0,0-.11-.38.71.71,0,0,0-.36-.15,11.54,11.54,0,0,0-2.18-2.18.57.57,0,0,0,.13.08.23.23,0,0,0,.3-.1.27.27,0,0,0-.08-.32,3.53,3.53,0,0,0-.32-.21.25.25,0,0,0-.34,0,.2.2,0,0,0,0,.11l-.2-.1-.24,0-.53-.32a.25.25,0,0,0,.12-.08.28.28,0,0,0,0-.37s0,0,0,0l-.06,0a.38.38,0,0,0-.17-.08l-.14-.06a.26.26,0,0,0-.29.06.23.23,0,0,0,0,.29l-.4-.2s0,0,0,0h-.07a.36.36,0,0,0,0-.66,1.75,1.75,0,0,0-.91,0,.23.23,0,0,0-.18.28c-.29-.09-.59-.17-.89-.24a0,0,0,0,0,0,0v0a.33.33,0,0,0,0-.1v0a.31.31,0,0,0-.09-.14,1.14,1.14,0,0,0-1.07-.18c-.12,0-.12.17-.05.25a12.81,12.81,0,0,0-1.39-.09,11.47,11.47,0,0,0-2.29.23.29.29,0,0,0-.2-.14,2.43,2.43,0,0,0-.27,0c-.14,0-.27.08-.27.23a.32.32,0,0,0,0,.09,10.66,10.66,0,0,0-1.13.37.3.3,0,0,0-.34-.35l-.18.08a11.34,11.34,0,0,0-1.86-5.44l0-.06a.36.36,0,0,0-.12-.38.68.68,0,0,0-.35-.15,11.31,11.31,0,0,0-2.19-2.18.91.91,0,0,1,.13.08.24.24,0,0,0,.31-.1.27.27,0,0,0-.09-.32,2.4,2.4,0,0,0-.31-.21.25.25,0,0,0-.34,0s0,.07,0,.11l-.2-.1a1,1,0,0,0-.23,0l-.53-.32a.32.32,0,0,0,.12-.08.28.28,0,0,0-.05-.37s0,0,0,0a.12.12,0,0,0,0-.05.56.56,0,0,0-.17-.09l-.14-.05a.23.23,0,0,0-.29.06.23.23,0,0,0,0,.29l-.41-.2v0h-.06a.36.36,0,0,0,0-.66,1.79,1.79,0,0,0-.92,0,.24.24,0,0,0-.18.28c-.29-.09-.58-.17-.88-.24v0a.12.12,0,0,0,0-.1s0,0,0,0a.24.24,0,0,0-.09-.14,1.14,1.14,0,0,0-1.07-.18c-.12,0-.11.17,0,.25a12.64,12.64,0,0,0-1.39-.09,11.55,11.55,0,0,0-2.29.23.27.27,0,0,0-.19-.14H537a.26.26,0,0,0-.27.23s0,.06,0,.09a10.84,10.84,0,0,0-1.14.37.29.29,0,0,0-.33-.35,2,2,0,0,0-.82.48.29.29,0,0,0-.05.41,13.74,13.74,0,0,0-1.22.75.07.07,0,0,0,0-.05h0l0-.08,0-.05s0,0,0,0a.27.27,0,0,0-.47-.18.94.94,0,0,0-.09.12l0,.1h0s0,.06,0,.09a.46.46,0,0,0,.22.41h0c-.2.15-.39.31-.58.48a.21.21,0,0,0-.22-.07,1,1,0,0,0-.61.8.14.14,0,0,0,0,.07,11.17,11.17,0,0,0-1.45,2c0-.06-.05-.12-.08-.17a.32.32,0,0,0-.31-.14.25.25,0,0,0-.19.31c0,.1,0,.2.06.3a.35.35,0,0,0,.22.24,11.45,11.45,0,0,0-1.25,4.78.62.62,0,0,0-.17.25.12.12,0,0,0,0,.14s0,0,0,.07a9.94,9.94,0,0,0-1.34-.09,11.65,11.65,0,0,0-2.3.23.25.25,0,0,0-.19-.14,2.62,2.62,0,0,0-.28,0,.26.26,0,0,0-.27.23s0,.06,0,.09c-.39.11-.77.23-1.14.37a.29.29,0,0,0-.33-.35,2,2,0,0,0-.82.48.3.3,0,0,0-.05.41,13.57,13.57,0,0,0-1.21.75l0,0h0l0-.08a.23.23,0,0,1,0,0s0,0,0,0a.27.27,0,0,0-.18-.26.26.26,0,0,0-.29.08.61.61,0,0,0-.12.22h0l0,.09a.48.48,0,0,0,.22.41h0a6.57,6.57,0,0,0-.57.48.22.22,0,0,0-.23-.07,1,1,0,0,0-.61.8s0,.05,0,.07a11.69,11.69,0,0,0-1.45,2,.89.89,0,0,0-.08-.17.31.31,0,0,0-.31-.14.26.26,0,0,0-.19.32c0,.09,0,.19.06.29a.33.33,0,0,0,.22.24,11.45,11.45,0,0,0-1.25,4.78.65.65,0,0,0-.2.65.25.25,0,0,0,.14.18c0,.14,0,.29,0,.44l.07,0h0a8.65,8.65,0,0,0,.1.89l-.05-.09a11.06,11.06,0,0,0,.45,1.91.19.19,0,0,0,0,.27s.07,0,.1.06a10.6,10.6,0,0,0,.52,1.2,1.51,1.51,0,0,0-.18-.09l-.23,0-.53-.32a.32.32,0,0,0,.12-.08.28.28,0,0,0,0-.37s0,0,0,0a.12.12,0,0,0-.05,0,.38.38,0,0,0-.17-.08l-.14-.06a.26.26,0,0,0-.29.06.23.23,0,0,0,0,.29l-.41-.2v0h-.06a.36.36,0,0,0,0-.66,1.79,1.79,0,0,0-.92,0,.24.24,0,0,0-.18.28c-.29-.09-.58-.17-.88-.24v0l0,0a.17.17,0,0,0,0-.1s0,0,0,0a.24.24,0,0,0-.09-.14,1.17,1.17,0,0,0-1.07-.18c-.12,0-.11.17-.05.25a12.48,12.48,0,0,0-1.39-.09,11.55,11.55,0,0,0-2.29.23.27.27,0,0,0-.19-.14,2.62,2.62,0,0,0-.28,0,.26.26,0,0,0-.27.23s0,.06,0,.09a10.84,10.84,0,0,0-1.14.37.29.29,0,0,0-.33-.35,2,2,0,0,0-.82.48.29.29,0,0,0,0,.41,13.74,13.74,0,0,0-1.22.75.09.09,0,0,0,0-.05h0a.59.59,0,0,0,0-.08l0,0s0,0,0,0a.28.28,0,0,0-.18-.26.26.26,0,0,0-.29.08l-.09.12,0,.1h0l0,.09a.46.46,0,0,0,.22.41h0c-.2.15-.39.31-.58.48a.21.21,0,0,0-.22-.07,1,1,0,0,0-.61.8.14.14,0,0,0,0,.07,11.69,11.69,0,0,0-1.45,2,.89.89,0,0,0-.08-.17.32.32,0,0,0-.31-.14.25.25,0,0,0-.19.32,1.67,1.67,0,0,0,.06.29.33.33,0,0,0,.22.24,11.45,11.45,0,0,0-1.25,4.78.68.68,0,0,0-.21.65.3.3,0,0,0,.15.18c0,.14,0,.29,0,.44l.07,0h0c0,.3.06.6.11.89a.41.41,0,0,1,0-.09,11,11,0,0,0,.44,1.91.2.2,0,0,0,0,.27s.07,0,.1.06a11.39,11.39,0,0,0,1.7,3.1l-.38.06a13.24,13.24,0,0,0-1.74-1.85l-.36-.31a14.54,14.54,0,0,0-1.5-1.07l-.48-.28-.59-.32-.44-.21a13.94,13.94,0,0,0-5.85-1.28h-.19l-.71,0a13.05,13.05,0,0,0-2,.27c-.31.06-.62.14-.93.23a14,14,0,0,0-10.17,13.46,13.1,13.1,0,0,0,.16,2.09.25.25,0,0,1,0-.07A13.88,13.88,0,0,0,477,271h-9.86a2.18,2.18,0,0,0,0,.44c0,.12,0,.23,0,.35.79,6.46,24,11.81,54.56,13.05,1.32.05,2.69.08,4,.12,4.94,17.38,7,45.48-5.25,57.86-2.75,2.77-11.31-4.86-13.39-2-3,4.19,1.37,10-1.55,13.49-2.31,2.8-9.13.43-11.85,2.57-2.16,1.71-3.08,5-3.25,8.26,0,.76,0,1.51,0,2.23H579.8c.17-3.81-.59-8.38-3.25-10.49s-9.55.23-11.86-2.57c-2.92-3.52,1.49-9.3-1.54-13.49-2.09-2.87-10.65,4.76-13.39,2-.41-.41-.8-.84-1.18-1.29-.13-.15-.25-.31-.37-.47S547.72,340.43,547.49,340.11Zm-27-96.09a.21.21,0,0,0-.22-.07l0,0-.18-.38c.17.12.34.24.52.35Z"/><path id="shadow_cake_1" class="cls-2" d="M284,352.65c0-.13,0-.26,0-.39V317.81a37.62,37.62,0,0,0-37.62-37.63H214.2a8.48,8.48,0,0,0,.58-3.08,8.58,8.58,0,0,0-8.58-8.58h0a8.58,8.58,0,0,0-8.58,8.58,8.48,8.48,0,0,0,.58,3.08H166a37.62,37.62,0,0,0-37.62,37.63v34.45c0,.13,0,.26,0,.39H111.82c0,7,26.8,13,64,15.17,9.53.54,19.74.84,30.36.84,52.11,0,94.36-7.16,94.38-16Z"/><path id="shadow_cake_4" class="cls-2" d="M743.22,357l.23-.32c1.85-2.62,2.4-5.6,1.08-8,3-1.63,2.21-6.72-3-9.42-7.1-3.68-20.94-3-25-2.54-1,.12-1.89.21-2.81.28-7.46-2.54-19-2-22.65-1.54-4.09.48-6.44.67-16.45-.81-4.87-.73-8.55-.34-11.25.82-2.69,0-4.94.21-6.22.36-4.1.48-6.44.68-16.45-.81s-15,1.69-16.76,6.73c-.87,2.52.19,3.84,1.46,4.53-.94,1.79-3,7.37,5.88,10.73H615c0,5.22,19.86,9.65,47.45,11.24,7.06.4,14.62.62,22.49.62,38.62,0,69.93-5.31,69.94-11.86Z"/><path id="shadow_cake_2" class="cls-4" d="M440,354.48V324.73c0-18.36-12.81-33.24-28.63-33.24H386.92a8.66,8.66,0,0,0,.44-2.72c0-4.19-2.93-7.58-6.53-7.58h0c-3.61,0-6.53,3.39-6.53,7.58a8.66,8.66,0,0,0,.44,2.72h-24.5c-15.81,0-28.63,14.88-28.63,33.24v29.75H309.13c0,5.36,20.4,9.91,48.73,11.55,7.25.41,15,.64,23.1.64,39.66,0,71.81-5.45,71.83-12.19Z"/></g></g></svg>
