<?xml version="1.0" encoding="UTF-8"?>
<svg xmlns="http://www.w3.org/2000/svg" viewBox="0 0 110.46 125.38">
  <defs>
    <style>
      .cls-1 {
        fill: #4d3c24;
      }

      .cls-1, .cls-2, .cls-3, .cls-4, .cls-5, .cls-6, .cls-7 {
        stroke-width: 0px;
      }

      .cls-2, .cls-4, .cls-8 {
        mix-blend-mode: multiply;
      }

      .cls-2, .cls-5 {
        fill: #fcdeda;
      }

      .cls-9 {
        fill: #9c613d;
      }

      .cls-9, .cls-10, .cls-11, .cls-12, .cls-13 {
        stroke: #4d3c24;
        stroke-miterlimit: 10;
        stroke-width: 1.35px;
      }

      .cls-14 {
        isolation: isolate;
      }

      .cls-10 {
        fill: #fee079;
      }

      .cls-3 {
        fill: #f9be89;
      }

      .cls-11, .cls-4, .cls-6 {
        fill: #fddfc1;
      }

      .cls-12 {
        fill: none;
      }

      .cls-13 {
        fill: #f0a3b7;
      }

      .cls-7 {
        fill: #fff174;
      }
    </style>
  </defs>
  <g class="cls-14">
    <g id="Capa_2" data-name="Capa 2">
      <g id="Capa_1-2" data-name="Capa 1">
        <g>
          <g>
            <path class="cls-10" d="m59.25,11.12c0,1.96-2.19,3.54-2.19,3.54,0,0-2.36-1.1-2.36-3.54,0-1.96,2.36-8.94,2.36-8.94,0,0,2.19,6.98,2.19,8.94Z"/>
            <path class="cls-3" d="m58.39,11.45c0,1.21-1.36,2.18-1.36,2.18,0,0-1.46-.68-1.46-2.18,0-1.21,1.46-5.51,1.46-5.51,0,0,1.36,4.31,1.36,5.51Z"/>
            <polygon class="cls-1" points="57.29 17.35 56.66 17.35 56.97 10.34 57.29 17.35"/>
            <path class="cls-13" d="m59.56,38.63h-5.16v-20.29c0-1.81,5.16-1.83,5.16,0v20.29Z"/>
            <path class="cls-2" d="m56.54,17.48c-.68.06-1.44.25-1.52.86-.12.96,0,20.29,0,20.29h1.52v-21.15Z"/>
          </g>
          <g>
            <rect class="cls-9" x="17.04" y="46.74" width="77.02" height="32.5"/>
            <path class="cls-2" d="m91.57,69.45c-1.23-.93-2.86-5.36-4.29-4.56-3.56,1.98-4.78,9.38-9.25,7.49-2.92-1.24-5.56-4.61-8.59-1.79-1.64,1.53-3.16,3.96-5.08,4.65-2.47.89-4.21-.89-6.28-2.76-2.95-2.67-5.48-1.62-8.56-.31-2.41,1.02-5.18,1.92-7.67.94-1.84-.72-3.6-3.22-5.49-3.23-2.73,0-5.45,1-8.16,1.46-3.34.57-9.13,1.36-11.15-3.26v11.15h77.02v-8.96c-.88-.05-1.75-.27-2.49-.83Z"/>
            <path class="cls-2" d="m94.05,46.74v11.44c-.28.14-.62.17-1.04.06-2.24-.59-2.2-6.49-3.29-7.27-1.58-1.13-2.37-.41-4.2.11-2.3.66-3.65,3.22-5.82,4.05-2.75,1.06-4.55-.2-6.95-1.81-2.1-1.4-3.92-1.9-6.24-1.19-1.77.54-3.4,3.53-5.18,3.53-3.04,0-5.2-3.33-7.78-4.98-3.16-2.03-6.14-2.14-9.22.22-1.67,1.28-2.55,3.6-3.88,5.34-1.98,2.59-3.57.2-5.26-1.67-3.35-3.7-6.52-4.58-10.7-2.39-3.05,1.6-4.8,5.78-7.27,4.44-.07-.04-.13-.09-.2-.15v-9.73h77.02Z"/>
            <path class="cls-6" d="m92.93,56.16c-2.24-.6-1.21-4.97-2.3-5.75-1.58-1.14-3.36-2.01-5.19-1.48-2.3.67-3.64,3.25-5.81,4.1-2.74,1.07-4.54-.2-6.95-1.83-2.09-1.42-3.91-1.93-6.23-1.21-1.77.55-3.4,3.57-5.18,3.57-3.04,0-5.2-3.36-7.77-5.03-3.15-2.05-6.13-2.16-9.21.22-1.67,1.3-2.55,3.64-3.88,5.4-1.98,2.62-3.56.2-5.25-1.69-3.35-3.74-6.51-4.63-10.68-2.42-3.05,1.62-4.8,5.84-7.26,4.49-1.69-.93-1.94-5.67-1.02-8.36,1.66-4.83,6.16-11.52,41.28-11.52s36.56,8.18,37.62,12.81c.88,3.84.95,9.55-2.18,8.71Z"/>
            <path class="cls-4" d="m93.6,50.24c-.5-1.86-1.77-7.13-4.15-6.51-4.25,1.11-8.7,4.37-13.06,4.56-2.72.12-4.82-.8-6.89-2.49-1.1-.89-3.78.58-4.81.88-2.73.78-5.16.69-7.78-.46-2.1-.92-3.66-1.74-6.01-1.73-1.78.01-4.57-.19-6.2.73-1.98,1.12-4.23,2.45-6.58,2.45-2.68,0-2.35-3.42-8.69-3.09-4.29.22-8.65,4.55-12.94,4.67-.26,0-.52,0-.78-.02-.09,2.29.4,4.66,1.54,5.28,2.46,1.35,4.21-2.87,7.26-4.49,4.18-2.21,7.34-1.33,10.68,2.42,1.69,1.89,3.27,4.31,5.25,1.69,1.33-1.76,2.21-4.1,3.88-5.4,3.08-2.39,6.06-2.27,9.21-.22,2.57,1.67,4.73,5.03,7.77,5.03,1.78,0,3.41-3.02,5.18-3.57,2.31-.72,4.14-.21,6.23,1.21,2.41,1.63,4.2,2.91,6.95,1.83,2.17-.85,3.51-3.43,5.81-4.1,1.83-.53,3.61.34,5.19,1.48,1.09.79.06,5.15,2.3,5.75,1.57.42,2.33-.81,2.59-2.62-.87-.79-1.55-1.87-1.93-3.29Z"/>
            <g class="cls-8">
              <path class="cls-5" d="m42.42,58.49c0,.17.12.31.27.31s.27-.14.27-.31-.12-.31-.27-.31-.27.14-.27.31Z"/>
              <path class="cls-5" d="m39.56,64.55c0,.36.25.66.57.66s.57-.29.57-.66-.26-.66-.57-.66-.57.29-.57.66Z"/>
              <path class="cls-5" d="m39.15,60.71c0,.26.18.47.41.47s.41-.21.41-.47-.18-.47-.41-.47-.41.21-.41.47Z"/>
              <path class="cls-5" d="m48.98,63.11c0,.12.09.22.19.22s.19-.1.19-.22-.08-.22-.19-.22-.19.1-.19.22Z"/>
              <path class="cls-5" d="m33.83,57.34c0,.41.29.75.66.75s.66-.34.66-.75-.29-.75-.66-.75-.66.33-.66.75Z"/>
              <path class="cls-5" d="m35.77,63.11c0,.21.15.38.33.38s.33-.17.33-.38-.15-.37-.33-.37-.33.17-.33.37Z"/>
              <path class="cls-5" d="m39.32,68.9c0,.16.11.28.25.28s.25-.13.25-.28-.11-.28-.25-.28-.25.13-.25.28Z"/>
              <path class="cls-5" d="m45.83,67.02c0,.21.15.38.33.38s.33-.17.33-.38-.15-.38-.33-.38-.33.17-.33.38Z"/>
              <path class="cls-5" d="m44.55,62.64c0,.26.18.47.41.47s.41-.21.41-.47-.18-.47-.41-.47-.41.21-.41.47Z"/>
            </g>
            <g class="cls-8">
              <path class="cls-5" d="m31.87,57.65c0,.17.12.31.27.31s.27-.14.27-.31-.12-.31-.27-.31-.27.14-.27.31Z"/>
              <path class="cls-5" d="m29.69,58.62c0,.36.25.66.57.66s.57-.29.57-.66-.26-.66-.57-.66-.57.29-.57.66Z"/>
              <path class="cls-5" d="m28.87,56.43c0,.26.18.47.41.47s.41-.21.41-.47-.18-.47-.41-.47-.41.21-.41.47Z"/>
              <path class="cls-5" d="m27.61,57.87c0,.12.09.22.19.22s.19-.1.19-.22-.09-.22-.19-.22-.19.1-.19.22Z"/>
              <path class="cls-5" d="m25.7,55.34c0,.41.29.75.66.75s.66-.34.66-.75-.29-.75-.66-.75-.66.34-.66.75Z"/>
              <path class="cls-5" d="m24.66,57.71c0,.21.15.37.33.37s.33-.17.33-.37-.15-.38-.33-.38-.33.17-.33.38Z"/>
              <path class="cls-5" d="m23.13,54.31c0,.16.11.28.25.28s.25-.13.25-.28-.11-.28-.25-.28-.25.13-.25.28Z"/>
              <path class="cls-5" d="m22.96,56.06c0,.21.15.38.33.38s.33-.17.33-.38-.15-.38-.33-.38-.33.17-.33.38Z"/>
              <path class="cls-5" d="m21.65,58.55c0,.26.18.47.41.47s.41-.21.41-.47-.18-.47-.41-.47-.41.21-.41.47Z"/>
            </g>
            <g class="cls-8">
              <path class="cls-5" d="m67.73,57.65c0,.17.12.31.27.31s.27-.14.27-.31-.12-.31-.27-.31-.27.14-.27.31Z"/>
              <path class="cls-5" d="m64.08,61.27c0,.36.25.66.57.66s.57-.29.57-.66-.26-.66-.57-.66-.57.29-.57.66Z"/>
              <path class="cls-5" d="m64.97,56.9c0,.26.18.47.41.47s.41-.21.41-.47-.19-.47-.41-.47-.41.21-.41.47Z"/>
              <path class="cls-5" d="m61.71,58.3c0,.12.09.22.19.22s.19-.1.19-.22-.09-.22-.19-.22-.19.1-.19.22Z"/>
              <path class="cls-5" d="m60.4,62.64c0,.41.3.75.66.75s.66-.34.66-.75-.29-.75-.66-.75-.66.33-.66.75Z"/>
              <path class="cls-5" d="m56.84,66.64c0,.21.15.38.33.38s.33-.17.33-.38-.15-.37-.33-.37-.33.17-.33.37Z"/>
              <path class="cls-5" d="m55.1,54.59c0,.16.11.28.25.28s.25-.13.25-.28-.11-.28-.25-.28-.25.12-.25.28Z"/>
              <path class="cls-5" d="m58.41,60.04c0,.21.15.38.33.38s.33-.17.33-.38-.15-.38-.33-.38-.33.17-.33.38Z"/>
              <path class="cls-5" d="m52.97,62.39c0,.26.18.47.41.47s.41-.21.41-.47-.18-.47-.41-.47-.41.21-.41.47Z"/>
            </g>
            <g class="cls-8">
              <path class="cls-5" d="m64.65,68.95c0-.17-.12-.31-.27-.31s-.27.14-.27.31.12.31.27.31.27-.14.27-.31Z"/>
              <path class="cls-5" d="m69.34,65.1c0-.36-.26-.66-.57-.66s-.58.29-.58.66.26.66.58.66.57-.29.57-.66Z"/>
              <path class="cls-5" d="m68.82,68.64c0-.26-.18-.47-.41-.47s-.41.21-.41.47.19.47.41.47.41-.21.41-.47Z"/>
              <path class="cls-5" d="m71.42,65.85c0-.12-.09-.22-.19-.22s-.19.1-.19.22.09.22.19.22.19-.1.19-.22Z"/>
              <path class="cls-5" d="m72.68,68.95c0-.41-.29-.75-.66-.75s-.65.34-.65.75.29.75.65.75.66-.34.66-.75Z"/>
              <path class="cls-5" d="m74.37,66c0-.21-.15-.37-.33-.37s-.33.17-.33.37.15.38.33.38.33-.17.33-.38Z"/>
              <path class="cls-5" d="m79.44,69.84c0-.16-.11-.28-.24-.28s-.25.12-.25.28.11.28.25.28.24-.13.24-.28Z"/>
              <path class="cls-5" d="m76.88,68.58c0-.21-.15-.38-.33-.38s-.33.17-.33.38.15.38.33.38.33-.17.33-.38Z"/>
              <path class="cls-5" d="m77.38,65.16c0-.26-.18-.47-.41-.47s-.41.21-.41.47.18.47.41.47.41-.21.41-.47Z"/>
            </g>
            <g class="cls-8">
              <path class="cls-5" d="m56.38,57.65c0,.17.12.31.27.31s.27-.14.27-.31-.12-.31-.27-.31-.27.14-.27.31Z"/>
              <path class="cls-5" d="m54.2,58.62c0,.36.26.66.58.66s.57-.29.57-.66-.26-.66-.57-.66-.58.29-.58.66Z"/>
              <path class="cls-5" d="m53.38,56.43c0,.26.18.47.41.47s.41-.21.41-.47-.18-.47-.41-.47-.41.21-.41.47Z"/>
              <path class="cls-5" d="m52.12,57.87c0,.12.09.22.19.22s.19-.1.19-.22-.09-.22-.19-.22-.19.1-.19.22Z"/>
              <path class="cls-5" d="m50.21,55.34c0,.41.3.75.66.75s.66-.34.66-.75-.29-.75-.66-.75-.66.34-.66.75Z"/>
              <path class="cls-5" d="m49.17,57.71c0,.21.15.37.33.37s.33-.17.33-.37-.15-.38-.33-.38-.33.17-.33.38Z"/>
              <path class="cls-5" d="m47.64,54.31c0,.16.11.28.25.28s.24-.13.24-.28-.11-.28-.24-.28-.25.13-.25.28Z"/>
              <path class="cls-5" d="m47.47,56.06c0,.21.15.38.33.38s.33-.17.33-.38-.15-.38-.33-.38-.33.17-.33.38Z"/>
              <path class="cls-5" d="m46.16,58.55c0,.26.18.47.41.47s.41-.21.41-.47-.18-.47-.41-.47-.41.21-.41.47Z"/>
            </g>
            <g class="cls-8">
              <path class="cls-5" d="m88.37,55.64c.14.05.3-.05.34-.21.04-.16-.04-.34-.19-.39-.14-.05-.3.05-.34.21-.04.17.04.34.18.39Z"/>
              <path class="cls-5" d="m88.84,60.01c.3.1.62-.1.71-.44.09-.35-.08-.71-.39-.82-.3-.1-.62.1-.71.45-.09.35.08.71.39.81Z"/>
              <path class="cls-5" d="m83.72,55.04c.22.07.44-.07.51-.32.06-.25-.06-.51-.28-.58-.22-.07-.44.07-.51.32-.06.25.06.51.28.58Z"/>
              <path class="cls-5" d="m91.39,65.19c.1.03.21-.03.24-.15.03-.12-.03-.24-.13-.27-.1-.03-.21.03-.24.15-.03.12.03.24.13.27Z"/>
              <path class="cls-5" d="m84.96,63.46c.35.12.71-.11.81-.51.1-.4-.1-.81-.44-.93-.35-.12-.71.11-.81.51-.1.4.1.81.44.93Z"/>
              <path class="cls-5" d="m88.34,64.38c.18.06.36-.05.41-.25.05-.2-.05-.41-.22-.46-.17-.06-.36.06-.41.25-.05.2.05.41.22.46Z"/>
              <path class="cls-5" d="m81.65,63.76c.13.04.27-.04.31-.19.04-.15-.04-.31-.17-.35-.13-.04-.27.04-.31.19-.04.15.04.31.17.35Z"/>
              <path class="cls-5" d="m82.73,68.94c.18.06.36-.06.41-.25.05-.2-.05-.41-.22-.47-.17-.06-.36.06-.41.26-.05.2.05.41.22.47Z"/>
              <path class="cls-5" d="m88.31,69.82c.22.07.44-.07.51-.32.06-.25-.06-.51-.28-.58-.22-.07-.44.07-.51.32-.06.25.06.51.28.58Z"/>
            </g>
            <g class="cls-8">
              <path class="cls-5" d="m80.38,59.71c0,.17.12.31.27.31s.27-.14.27-.31-.12-.31-.27-.31-.27.14-.27.31Z"/>
              <path class="cls-5" d="m80.08,64.77c0,.36.26.66.57.66s.57-.29.57-.66-.26-.66-.57-.66-.57.29-.57.66Z"/>
              <path class="cls-5" d="m77.38,58.49c0,.26.18.47.41.47s.41-.21.41-.47-.18-.47-.41-.47-.41.21-.41.47Z"/>
              <path class="cls-5" d="m75.93,63.77c0,.12.09.22.19.22s.19-.1.19-.22-.08-.22-.19-.22-.19.1-.19.22Z"/>
              <path class="cls-5" d="m74.21,57.4c0,.41.29.75.66.75s.65-.34.65-.75-.29-.75-.65-.75-.66.34-.66.75Z"/>
              <path class="cls-5" d="m72.84,62.02c0,.21.15.37.33.37s.33-.17.33-.37-.15-.38-.33-.38-.33.17-.33.38Z"/>
              <path class="cls-5" d="m68.74,54.31c0,.16.11.28.25.28s.25-.13.25-.28-.11-.28-.25-.28-.25.13-.25.28Z"/>
              <path class="cls-5" d="m70.65,56.93c0,.21.15.38.33.38s.33-.17.33-.38-.15-.38-.33-.38-.33.17-.33.38Z"/>
              <path class="cls-5" d="m68,63.11c0,.26.18.47.41.47s.41-.21.41-.47-.19-.47-.41-.47-.41.21-.41.47Z"/>
            </g>
            <g class="cls-8">
              <path class="cls-5" d="m36.1,66.95c0,.17.12.31.27.31s.27-.14.27-.31-.12-.31-.27-.31-.27.14-.27.31Z"/>
              <path class="cls-5" d="m33.91,67.92c0,.36.26.66.58.66s.57-.29.57-.66-.26-.66-.57-.66-.58.29-.58.66Z"/>
              <path class="cls-5" d="m33.09,65.73c0,.26.18.47.41.47s.41-.21.41-.47-.18-.47-.41-.47-.41.21-.41.47Z"/>
              <path class="cls-5" d="m31.83,67.17c0,.12.09.22.19.22s.19-.1.19-.22-.09-.22-.19-.22-.19.1-.19.22Z"/>
              <path class="cls-5" d="m29.92,64.64c0,.41.29.75.65.75s.66-.34.66-.75-.29-.75-.66-.75-.65.34-.65.75Z"/>
              <path class="cls-5" d="m28.89,67.02c0,.21.15.37.33.37s.33-.17.33-.37-.15-.38-.33-.38-.33.17-.33.38Z"/>
              <path class="cls-5" d="m27.36,63.61c0,.16.11.28.25.28s.25-.13.25-.28-.11-.28-.25-.28-.25.13-.25.28Z"/>
              <path class="cls-5" d="m27.19,65.36c0,.21.15.37.33.37s.33-.17.33-.37-.15-.38-.33-.38-.33.17-.33.38Z"/>
              <path class="cls-5" d="m25.88,67.86c0,.26.19.47.41.47s.41-.21.41-.47-.18-.47-.41-.47-.41.21-.41.47Z"/>
            </g>
            <g class="cls-8">
              <path class="cls-5" d="m28.1,64.33c0,.17.12.31.27.31s.27-.14.27-.31-.12-.31-.27-.31-.27.14-.27.31Z"/>
              <path class="cls-5" d="m25.91,65.3c0,.36.26.66.57.66s.57-.29.57-.66-.26-.66-.57-.66-.57.29-.57.66Z"/>
              <path class="cls-5" d="m25.09,63.11c0,.26.18.47.41.47s.41-.21.41-.47-.18-.47-.41-.47-.41.21-.41.47Z"/>
              <path class="cls-5" d="m23.84,64.55c0,.12.09.22.19.22s.19-.1.19-.22-.08-.22-.19-.22-.19.1-.19.22Z"/>
              <path class="cls-5" d="m21.92,62.02c0,.41.29.75.66.75s.66-.34.66-.75-.29-.75-.66-.75-.66.34-.66.75Z"/>
              <path class="cls-5" d="m20.89,64.39c0,.21.15.37.33.37s.33-.17.33-.37-.15-.38-.33-.38-.33.17-.33.38Z"/>
              <path class="cls-5" d="m19.36,60.99c0,.16.11.28.25.28s.25-.13.25-.28-.11-.28-.25-.28-.25.13-.25.28Z"/>
              <path class="cls-5" d="m19.19,62.74c0,.21.15.38.33.38s.33-.17.33-.38-.15-.38-.33-.38-.33.17-.33.38Z"/>
              <path class="cls-5" d="m17.88,65.24c0,.26.19.47.41.47s.41-.21.41-.47-.19-.47-.41-.47-.41.21-.41.47Z"/>
            </g>
            <path class="cls-12" d="m92.93,56.16c-2.24-.6-1.21-4.97-2.3-5.75-1.58-1.14-3.36-2.01-5.19-1.48-2.3.67-3.64,3.25-5.81,4.1-2.74,1.07-4.54-.2-6.95-1.83-2.09-1.42-3.91-1.93-6.23-1.21-1.77.55-3.4,3.57-5.18,3.57-3.04,0-5.2-3.36-7.77-5.03-3.15-2.05-6.13-2.16-9.21.22-1.67,1.3-2.55,3.64-3.88,5.4-1.98,2.62-3.56.2-5.25-1.69-3.35-3.74-6.51-4.63-10.68-2.42-3.05,1.62-4.8,5.84-7.26,4.49-1.69-.93-1.94-5.67-1.02-8.36,1.66-4.83,6.16-11.52,41.28-11.52s36.56,8.18,37.62,12.81c.88,3.84.95,9.55-2.18,8.71Z"/>
            <path class="cls-7" d="m83.36,43.99c-1.64-.35-3.37.68-4.98,1.09-1.38.35-2.77.65-4.2.44-1.02-.15-1.86-.28-2.9-.22-.04,0-.06.05-.03.08,1.43,1.49,3.09,2.15,5.18,1.78,2.16-.38,5.84-.69,7.13-2.65.12-.18,0-.47-.21-.52Z"/>
            <path class="cls-7" d="m62.97,44.5c-1.26.27-2.45.46-3.75.25-.79-.13-1.68-.83-2.47-.41-.05.02-.04.09,0,.11,1.03.67,1.71,1.44,2.97,1.61,1.15.16,2.71.25,3.71-.46.56-.39.22-1.25-.46-1.1Z"/>
            <path class="cls-7" d="m35.56,44.23c-.57-1.56-3.23-2.23-4.7-2.47-2.28-.37-3.73.47-5.52,1.71-.27.19-.04.57.26.44,1.97-.88,4.32-.5,6.3.23,1.21.45,2.41,1.32,3.59.41.08-.06.12-.22.08-.31Z"/>
            <path class="cls-7" d="m72.14,36.54c-3.65-1.63-8.09-.9-11.97-.73-5.06.23-10.06.07-15.12.45-.07,0-.13.1-.06.15,2.42,1.94,7.41.76,10.36.92,3.24.18,6.47-.02,9.71-.11,2.38-.07,4.65.34,7-.15.23-.05.32-.44.08-.54Z"/>
          </g>
          <rect class="cls-9" x="5.43" y="86.19" width="100.16" height="36.12"/>
          <path class="cls-2" d="m102.36,111.43c-1.6-1.03-3.72-5.96-5.58-5.07-4.62,2.2-6.22,10.43-12.04,8.33-3.8-1.37-7.23-5.12-11.17-1.99-2.13,1.7-4.12,4.4-6.61,5.17-3.21.99-5.48-.99-8.17-3.07-3.84-2.97-7.12-1.8-11.14-.34-3.14,1.14-6.74,2.13-9.98,1.04-2.4-.8-4.68-3.58-7.14-3.59-3.55,0-7.09,1.11-10.61,1.62-4.35.64-11.87,1.51-14.5-3.62v12.4h100.16v-9.96c-1.15-.06-2.27-.3-3.24-.92Z"/>
          <path class="cls-2" d="m105.59,86.19v13.02c-.36.16-.8.19-1.35.07-2.91-.67-2.86-7.39-4.28-8.27-2.05-1.28-3.08-.47-5.46.13-2.99.75-4.74,3.66-7.56,4.61-3.57,1.21-5.91-.23-9.04-2.07-2.72-1.6-5.09-2.17-8.11-1.36-2.3.62-4.42,4.02-6.74,4.02-3.96,0-6.77-3.79-10.12-5.67-4.1-2.3-7.98-2.44-11.99.25-2.18,1.46-3.32,4.1-5.04,6.08-2.58,2.95-4.64.23-6.84-1.9-4.36-4.22-8.47-5.21-13.91-2.72-3.97,1.82-6.25,6.58-9.45,5.05-.09-.05-.18-.11-.26-.17v-11.08h100.16Z"/>
          <path class="cls-6" d="m104.14,96.91c-2.91-.68-1.58-5.65-2.99-6.55-2.05-1.3-4.37-2.29-6.74-1.69-2.99.76-4.74,3.7-7.56,4.66-3.57,1.22-5.9-.23-9.03-2.09-2.72-1.62-5.09-2.19-8.1-1.37-2.3.63-4.42,4.07-6.74,4.07-3.95,0-6.76-3.83-10.11-5.73-4.1-2.33-7.97-2.46-11.98.25-2.17,1.48-3.32,4.14-5.04,6.14-2.57,2.98-4.63.23-6.83-1.92-4.35-4.26-8.46-5.27-13.89-2.75-3.96,1.84-6.24,6.65-9.44,5.11-2.2-1.06-2.53-6.46-1.32-9.51,2.16-5.49,7.98-9.52,53.66-9.52s47.57,5.72,48.95,10.98c1.14,4.37,1.24,10.87-2.83,9.92Z"/>
          <path class="cls-4" d="m105.07,96.98c.11-3.45-.23-6.88-2.21-9.46-2.22-2.91-9.1-4.43-12.24-2.37-5.21,3.42-9.81,4.15-15.1.44-3.43-2.41-8.38,3.41-12.42,2.91-3.25-.4-5.64-1.28-8.18-3.41-2.12-1.78-3.08-2.09-5.9-1.46-3.2.72-6.36,1.62-9.34,3.01-2.57,1.2-5.37,2.56-8.28,1.74-2.52-.71-4.42-2.6-6.96-3.18-2.43-.56-5.15-.81-7.63-.37-4.42.78-8.09,1.79-10.83,5.57-.59.81-1.27,1.44-2.01,1.91.31,1.31.88,2.35,1.72,2.76,3.2,1.54,5.48-3.27,9.44-5.11,5.43-2.52,9.54-1.51,13.89,2.75,2.2,2.15,4.26,4.9,6.83,1.92,1.72-2,2.87-4.67,5.04-6.14,4-2.72,7.88-2.58,11.98-.25,3.35,1.9,6.15,5.73,10.11,5.73,2.32,0,4.43-3.44,6.74-4.07,3.01-.82,5.38-.24,8.1,1.37,3.13,1.86,5.46,3.31,9.03,2.09,2.82-.96,4.57-3.91,7.56-4.66,2.37-.6,4.69.39,6.74,1.69,1.42.9.08,5.86,2.99,6.55.35.08.65.09.94.07Z"/>
          <g class="cls-8">
            <path class="cls-5" d="m38.44,99.57c0,.2.16.36.35.36s.36-.16.36-.36-.16-.35-.36-.35-.35.16-.35.35Z"/>
            <path class="cls-5" d="m34.72,106.46c0,.41.33.75.74.75s.75-.33.75-.75-.33-.75-.75-.75-.74.33-.74.75Z"/>
            <path class="cls-5" d="m34.19,102.09c0,.29.24.53.53.53s.53-.24.53-.53-.24-.53-.53-.53-.53.24-.53.53Z"/>
            <path class="cls-5" d="m46.97,104.83c0,.14.11.25.25.25s.25-.11.25-.25-.11-.25-.25-.25-.25.11-.25.25Z"/>
            <path class="cls-5" d="m27.27,98.25c0,.47.38.85.85.85s.85-.38.85-.85-.38-.85-.85-.85-.85.38-.85.85Z"/>
            <path class="cls-5" d="m29.79,104.83c0,.24.19.43.43.43s.43-.19.43-.43-.19-.42-.43-.42-.43.19-.43.42Z"/>
            <path class="cls-5" d="m34.4,111.42c0,.18.14.32.32.32s.32-.14.32-.32-.14-.32-.32-.32-.32.14-.32.32Z"/>
            <path class="cls-5" d="m42.88,109.27c0,.24.19.43.43.43s.43-.19.43-.43-.19-.43-.43-.43-.43.19-.43.43Z"/>
            <path class="cls-5" d="m41.21,104.29c0,.29.24.53.53.53s.53-.24.53-.53-.24-.53-.53-.53-.53.24-.53.53Z"/>
          </g>
          <g class="cls-8">
            <path class="cls-5" d="m24.72,98.61c0,.2.16.36.35.36s.36-.16.36-.36-.16-.35-.36-.35-.35.16-.35.35Z"/>
            <path class="cls-5" d="m21.88,99.71c0,.41.33.75.75.75s.75-.33.75-.75-.33-.75-.75-.75-.75.33-.75.75Z"/>
            <path class="cls-5" d="m20.81,97.22c0,.29.24.53.53.53s.53-.24.53-.53-.24-.53-.53-.53-.53.24-.53.53Z"/>
            <path class="cls-5" d="m19.18,98.86c0,.14.11.25.25.25s.25-.11.25-.25-.11-.25-.25-.25-.25.11-.25.25Z"/>
            <path class="cls-5" d="m16.69,95.98c0,.47.38.85.85.85s.85-.38.85-.85-.38-.85-.85-.85-.85.38-.85.85Z"/>
            <path class="cls-5" d="m15.34,98.68c0,.23.19.43.43.43s.43-.19.43-.43-.19-.43-.43-.43-.43.19-.43.43Z"/>
            <path class="cls-5" d="m13.35,94.81c0,.18.14.32.32.32s.32-.14.32-.32-.14-.32-.32-.32-.32.14-.32.32Z"/>
            <path class="cls-5" d="m13.13,96.8c0,.24.19.43.43.43s.43-.19.43-.43-.19-.43-.43-.43-.43.19-.43.43Z"/>
            <path class="cls-5" d="m11.43,99.64c0,.29.24.53.53.53s.53-.24.53-.53-.24-.53-.53-.53-.53.24-.53.53Z"/>
          </g>
          <g class="cls-8">
            <path class="cls-5" d="m71.36,98.61c0,.2.16.36.35.36s.36-.16.36-.36-.16-.35-.36-.35-.35.16-.35.35Z"/>
            <path class="cls-5" d="m66.61,102.73c0,.41.33.75.74.75s.75-.34.75-.75-.33-.75-.75-.75-.74.34-.74.75Z"/>
            <path class="cls-5" d="m67.77,97.76c0,.3.24.53.53.53s.54-.24.54-.53-.24-.53-.54-.53-.53.24-.53.53Z"/>
            <path class="cls-5" d="m63.53,99.35c0,.14.11.25.25.25s.25-.11.25-.25-.11-.25-.25-.25-.25.11-.25.25Z"/>
            <path class="cls-5" d="m61.82,104.29c0,.47.38.85.85.85s.85-.38.85-.85-.38-.85-.85-.85-.85.38-.85.85Z"/>
            <path class="cls-5" d="m57.19,108.84c0,.24.19.43.43.43s.42-.19.42-.43-.19-.42-.42-.42-.43.19-.43.42Z"/>
            <path class="cls-5" d="m54.93,95.13c0,.18.14.32.32.32s.32-.14.32-.32-.14-.32-.32-.32-.32.14-.32.32Z"/>
            <path class="cls-5" d="m59.23,101.33c0,.24.19.43.43.43s.43-.19.43-.43-.19-.43-.43-.43-.43.19-.43.43Z"/>
            <path class="cls-5" d="m52.16,104.01c0,.29.24.53.53.53s.53-.24.53-.53-.24-.53-.53-.53-.53.24-.53.53Z"/>
          </g>
          <g class="cls-8">
            <path class="cls-5" d="m67.36,111.48c0-.2-.16-.36-.35-.36s-.35.16-.35.36.16.35.35.35.35-.16.35-.35Z"/>
            <path class="cls-5" d="m73.45,107.08c0-.41-.33-.75-.74-.75s-.75.33-.75.75.33.75.75.75.74-.33.74-.75Z"/>
            <path class="cls-5" d="m72.78,111.12c0-.29-.24-.53-.53-.53s-.53.24-.53.53.24.53.53.53.53-.24.53-.53Z"/>
            <path class="cls-5" d="m76.16,107.94c0-.14-.11-.25-.25-.25s-.25.11-.25.25.11.25.25.25.25-.11.25-.25Z"/>
            <path class="cls-5" d="m77.79,111.47c0-.47-.38-.85-.85-.85s-.85.38-.85.85.38.85.85.85.85-.38.85-.85Z"/>
            <path class="cls-5" d="m79.99,108.12c0-.23-.19-.43-.43-.43s-.42.19-.42.43.19.43.42.43.43-.19.43-.43Z"/>
            <path class="cls-5" d="m86.59,112.49c0-.18-.14-.32-.32-.32s-.32.14-.32.32.14.32.32.32.32-.14.32-.32Z"/>
            <path class="cls-5" d="m83.26,111.05c0-.24-.19-.43-.43-.43s-.43.19-.43.43.19.43.43.43.43-.19.43-.43Z"/>
            <path class="cls-5" d="m83.9,107.16c0-.3-.24-.53-.53-.53s-.53.24-.53.53.24.53.53.53.53-.24.53-.53Z"/>
          </g>
          <g class="cls-8">
            <path class="cls-5" d="m56.6,98.61c0,.2.16.36.35.36s.36-.16.36-.36-.16-.35-.36-.35-.35.16-.35.35Z"/>
            <path class="cls-5" d="m53.75,99.71c0,.41.33.75.75.75s.75-.33.75-.75-.33-.75-.75-.75-.75.33-.75.75Z"/>
            <path class="cls-5" d="m52.69,97.22c0,.29.24.53.53.53s.53-.24.53-.53-.24-.53-.53-.53-.53.24-.53.53Z"/>
            <path class="cls-5" d="m51.06,98.86c0,.14.11.25.25.25s.25-.11.25-.25-.11-.25-.25-.25-.25.11-.25.25Z"/>
            <path class="cls-5" d="m48.57,95.98c0,.47.38.85.85.85s.85-.38.85-.85-.38-.85-.85-.85-.85.38-.85.85Z"/>
            <path class="cls-5" d="m47.22,98.68c0,.23.19.43.42.43s.43-.19.43-.43-.19-.43-.43-.43-.42.19-.42.43Z"/>
            <path class="cls-5" d="m45.23,94.81c0,.18.14.32.32.32s.32-.14.32-.32-.14-.32-.32-.32-.32.14-.32.32Z"/>
            <path class="cls-5" d="m45.01,96.8c0,.24.19.43.43.43s.43-.19.43-.43-.19-.43-.43-.43-.43.19-.43.43Z"/>
            <path class="cls-5" d="m43.31,99.64c0,.29.24.53.53.53s.54-.24.54-.53-.24-.53-.54-.53-.53.24-.53.53Z"/>
          </g>
          <g class="cls-8">
            <path class="cls-5" d="m98.2,96.32c.19.06.39-.05.44-.24.05-.19-.05-.39-.24-.44s-.39.05-.44.24c-.06.19.05.39.24.44Z"/>
            <path class="cls-5" d="m98.81,101.3c.4.12.81-.11.93-.5.12-.4-.11-.81-.51-.93-.4-.12-.81.11-.93.51-.12.4.11.81.51.93Z"/>
            <path class="cls-5" d="m92.16,95.64c.28.08.58-.08.66-.36s-.08-.58-.36-.66c-.28-.08-.58.08-.66.36-.08.28.08.58.36.66Z"/>
            <path class="cls-5" d="m102.13,107.2c.13.04.27-.04.31-.17.04-.13-.04-.27-.17-.31-.13-.04-.27.04-.31.17-.04.13.04.27.17.31Z"/>
            <path class="cls-5" d="m93.77,105.22c.45.13.93-.13,1.06-.58.13-.45-.13-.93-.58-1.06-.45-.13-.93.13-1.06.58-.13.45.12.93.58,1.06Z"/>
            <path class="cls-5" d="m98.16,106.27c.23.07.46-.06.53-.29.07-.23-.06-.46-.29-.53-.23-.07-.46.06-.53.29-.07.23.06.46.29.53Z"/>
            <path class="cls-5" d="m89.46,105.57c.17.05.35-.05.4-.22.05-.17-.05-.35-.22-.4-.17-.05-.35.05-.4.22-.05.17.05.35.22.4Z"/>
            <path class="cls-5" d="m90.86,111.46c.23.07.46-.07.53-.29.07-.23-.06-.46-.29-.53-.23-.07-.47.06-.53.29-.07.22.06.46.29.53Z"/>
            <path class="cls-5" d="m98.13,112.47c.28.08.58-.08.66-.36.08-.28-.08-.58-.36-.66-.28-.08-.58.08-.66.36-.08.28.08.58.36.66Z"/>
          </g>
          <g class="cls-8">
            <path class="cls-5" d="m87.81,100.95c0,.2.16.36.35.36s.36-.16.36-.36-.16-.35-.36-.35-.35.16-.35.35Z"/>
            <path class="cls-5" d="m87.42,106.71c0,.41.33.75.75.75s.75-.33.75-.75-.34-.75-.75-.75-.75.33-.75.75Z"/>
            <path class="cls-5" d="m83.9,99.57c0,.29.24.53.53.53s.53-.24.53-.53-.24-.53-.53-.53-.53.24-.53.53Z"/>
            <path class="cls-5" d="m82.02,105.58c0,.14.11.25.25.25s.25-.11.25-.25-.11-.25-.25-.25-.25.11-.25.25Z"/>
            <path class="cls-5" d="m79.78,98.32c0,.47.38.85.85.85s.85-.38.85-.85-.38-.85-.85-.85-.85.38-.85.85Z"/>
            <path class="cls-5" d="m78.01,103.58c0,.23.19.43.43.43s.42-.19.42-.43-.19-.43-.42-.43-.43.19-.43.43Z"/>
            <path class="cls-5" d="m72.67,94.81c0,.18.14.32.32.32s.32-.14.32-.32-.14-.32-.32-.32-.32.14-.32.32Z"/>
            <path class="cls-5" d="m75.16,97.79c0,.24.19.43.43.43s.43-.19.43-.43-.19-.43-.43-.43-.43.19-.43.43Z"/>
            <path class="cls-5" d="m71.71,104.83c0,.29.24.53.53.53s.53-.24.53-.53-.24-.53-.53-.53-.53.24-.53.53Z"/>
          </g>
          <g class="cls-8">
            <path class="cls-5" d="m30.22,109.2c0,.2.16.35.35.35s.36-.16.36-.35-.16-.35-.36-.35-.35.16-.35.35Z"/>
            <path class="cls-5" d="m27.38,110.3c0,.41.33.75.75.75s.75-.33.75-.75-.33-.75-.75-.75-.75.34-.75.75Z"/>
            <path class="cls-5" d="m26.31,107.81c0,.29.24.53.53.53s.53-.24.53-.53-.24-.53-.53-.53-.53.24-.53.53Z"/>
            <path class="cls-5" d="m24.67,109.45c0,.14.12.25.25.25s.25-.11.25-.25-.11-.25-.25-.25-.25.11-.25.25Z"/>
            <path class="cls-5" d="m22.19,106.57c0,.47.38.85.85.85s.85-.38.85-.85-.38-.85-.85-.85-.85.38-.85.85Z"/>
            <path class="cls-5" d="m20.84,109.27c0,.24.19.43.43.43s.43-.19.43-.43-.19-.43-.43-.43-.43.19-.43.43Z"/>
            <path class="cls-5" d="m18.85,105.4c0,.18.14.32.32.32s.32-.14.32-.32-.14-.32-.32-.32-.32.14-.32.32Z"/>
            <path class="cls-5" d="m18.63,107.39c0,.24.19.43.43.43s.43-.19.43-.43-.19-.43-.43-.43-.43.19-.43.43Z"/>
            <path class="cls-5" d="m16.93,110.23c0,.29.24.53.53.53s.53-.24.53-.53-.24-.53-.53-.53-.53.24-.53.53Z"/>
          </g>
          <g class="cls-8">
            <path class="cls-5" d="m19.82,106.21c0,.2.16.35.35.35s.36-.16.36-.35-.16-.36-.36-.36-.35.16-.35.36Z"/>
            <path class="cls-5" d="m16.97,107.32c0,.41.33.75.75.75s.75-.33.75-.75-.33-.75-.75-.75-.75.34-.75.75Z"/>
            <path class="cls-5" d="m15.91,104.83c0,.29.24.53.54.53s.53-.24.53-.53-.24-.53-.53-.53-.54.24-.54.53Z"/>
            <path class="cls-5" d="m14.27,106.46c0,.14.11.25.25.25s.25-.11.25-.25-.11-.25-.25-.25-.25.11-.25.25Z"/>
            <path class="cls-5" d="m11.78,103.58c0,.47.38.85.85.85s.85-.38.85-.85-.38-.85-.85-.85-.85.38-.85.85Z"/>
            <path class="cls-5" d="m10.44,106.28c0,.24.19.43.43.43s.43-.19.43-.43-.19-.43-.43-.43-.43.19-.43.43Z"/>
            <path class="cls-5" d="m8.44,102.41c0,.18.14.32.32.32s.32-.14.32-.32-.14-.32-.32-.32-.32.14-.32.32Z"/>
            <path class="cls-5" d="m8.23,104.4c0,.24.19.43.43.43s.43-.19.43-.43-.19-.43-.43-.43-.43.19-.43.43Z"/>
            <path class="cls-5" d="m6.53,107.24c0,.29.24.53.53.53s.53-.24.53-.53-.24-.53-.53-.53-.53.24-.53.53Z"/>
          </g>
          <path class="cls-12" d="m104.14,96.91c-2.91-.68-1.58-5.65-2.99-6.55-2.05-1.3-4.37-2.29-6.74-1.69-2.99.76-4.74,3.7-7.56,4.66-3.57,1.22-5.9-.23-9.03-2.09-2.72-1.62-5.09-2.19-8.1-1.37-2.3.63-4.42,4.07-6.74,4.07-3.95,0-6.76-3.83-10.11-5.73-4.1-2.33-7.97-2.46-11.98.25-2.17,1.48-3.32,4.14-5.04,6.14-2.57,2.98-4.63.23-6.83-1.92-4.35-4.26-8.46-5.27-13.89-2.75-3.96,1.84-6.24,6.65-9.44,5.11-2.2-1.06-2.53-6.46-1.32-9.51,2.16-5.49,7.98-9.52,53.66-9.52s47.57,5.72,48.95,10.98c1.14,4.37,1.24,10.87-2.83,9.92Z"/>
          <path class="cls-7" d="m38.21,84.38c-1.63.26-3,1.15-4.69,1.28-1.71.13-3.51-.14-5.04-.88-.04-.02-.11.03-.08.08,1.12,1.45,2.57,2.86,4.52,2.91,2.07.05,4.65-.42,6.09-2,.59-.65,0-1.51-.8-1.38Z"/>
          <path class="cls-7" d="m63.67,86.44c-.94-.72-1.94-.69-3.08-.95-1.45-.34-2.79-.89-4.06-1.65-1.88-1.12-3.37-2.43-5.55-1.52-.04.02-.04.07,0,.08,2.42.89,4.63,2.59,6.88,3.86,1.68.94,4.02,2.15,5.81.95.3-.2.27-.56,0-.76Z"/>
          <path class="cls-7" d="m91.16,82.86c-2.25-.87-5.44.82-7.66,1.46-1.89.54-3.53.37-5.4-.03-1.04-.22-1.67-.37-2.59.19-.04.03-.05.08-.02.12,1.63,1.83,4.33,2.89,6.76,2.46,1.7-.3,3.26-.85,4.83-1.56,1.46-.66,3.06-.9,4.26-1.97.25-.22.08-.58-.18-.68Z"/>
          <path class="cls-11" d="m104.88,113.82c-6.48,1.6-3.64-3.52-9.41-2.08-5.16,1.29-2.96,7.44-9.06,5.34-3.98-1.37-7.58-5.12-11.7-1.99-2.24,1.7-4.31,4.4-6.92,5.17-3.36.99-5.74-.99-8.56-3.07-4.02-2.97-7.47-1.8-11.67-.34-3.29,1.14-7.06,2.13-10.46,1.04-2.51-.8-4.91-3.58-7.49-3.59-3.72,0-7.44,1.11-11.12,1.62-4.56.64-5.73-3.82-13.06-1.64-7.33,2.17-5.86,10.42,2.16,10.42h98c5.64,0,5.76-12.48-.71-10.88Z"/>
          <path class="cls-7" d="m10.06,115.39c-1.67-.15-4.03-.12-4.63,1.78-.02.08.06.16.14.14,1.57-.53,3.12-.5,4.68.03,1.12.38,3.08,1.75,4.27,1.32.28-.1.56-.36.52-.69-.19-1.91-3.47-2.44-4.99-2.57Z"/>
          <path class="cls-7" d="m39.32,120.16c-.88-.55-1.57-.47-2.61-.49-1.99-.04-3.73-1.38-5.28-2.47-1.65-1.16-3.81-2.2-5.63-.87-.24.17-.2.5.08.6,1.61.61,2.87.73,4.25,1.95,1.12.99,2.27,1.78,3.65,2.38,1.72.75,4.56,1.27,5.68-.58.11-.18.04-.42-.14-.53Z"/>
          <path class="cls-7" d="m59.74,119.94c-2.69-1.08-9.11-5.69-10.9-1.05-.1.26.22.42.42.32.99-.48,1.84-1,2.98-.79,1.03.18,2.03.81,2.94,1.31,1.31.72,2.79,1.8,4.35,1.76.33,0,.7-.23.77-.58.01-.07.03-.14.03-.21-.02-.39-.24-.63-.58-.77Z"/>
          <path class="cls-7" d="m83.3,118.06c-1.12-1.86-4.37-2.09-6.26-1.53-1,.3-1.78,1.17-2.47,1.91-.83.9-2.06,1.65-2.67,2.69-.04.08,0,.17.08.19,1.34.47,2.6-1.2,3.43-2.04,1.44-1.45,2.78-1.89,4.8-1.24,1.06.34,1.73.88,2.84.61.26-.06.38-.38.24-.6Z"/>
          <path class="cls-7" d="m98.29,112.99c-1.25-.25-2.48.33-3.49,1.02-1.16.78-2.15,1.92-3.07,2.96-.61.7-1.81,1.52-2.2,2.36-.15.32-.11.74.24.92,1.35.68,3.52-1.59,4.48-2.31.87-.65,1.77-1.35,2.79-1.76.86-.35,1.13.45,2.05.46.59,0,1.11-.41,1.27-.97.39-1.36-.82-2.43-2.07-2.67Z"/>
          <path class="cls-7" d="m106.33,114.8c-.69-.34-1.51-.37-2.23-.09-.53.2-1.46.77-1.01,1.48.22.34.51.47.88.61.29.1.57.28.8.42.04.02.28.19.31.2.02.02.04.04.06.06,0,0,.02.04.06.11-.19-.33.2.43.24.51.12.23.24.42.42.61.42.43,1.31.51,1.71,0,1.09-1.39.21-3.19-1.24-3.89Z"/>
        </g>
      </g>
    </g>
  </g>
</svg>