<svg xmlns="http://www.w3.org/2000/svg" viewBox="0 0 1242 2208">
  <title>Asset 2</title>
  <g style="isolation: isolate">
    <g id="Layer_2" data-name="Layer 2">
      <g id="Layer_1-2" data-name="Layer 1">
        <g>
          <rect width="1242" height="2208" style="fill: none"/>
          <path id="shadow_cake_5" d="M385.58,898.33a1.36,1.36,0,0,1,0-.2c0-.23-.05-.48-.08-.74h0c0-.18,0-.38-.06-.59a.34.34,0,0,1,0-.1l0-.15c-.07-.56-.14-1.15-.23-1.79v-.07c-.09-.66-.2-1.37-.31-2.11a.13.13,0,0,0,0-.06v-.1c-.07-.45-.14-.91-.22-1.38,0-.27-.08-.54-.13-.82s-.1-.64-.16-1-.1-.65-.16-1c-.08-.5-.17-1-.26-1.54,0-.14-.05-.27-.07-.42-.13-.73-.26-1.48-.4-2.25-.28-1.59-.58-3.26-.9-5,0-.24-.09-.48-.13-.73l-.21-1.11c-.21-1.11-.41-2.24-.63-3.39-1.7-9.15-3.67-19.39-5.36-28.76,3.76,0,5.41-5.35,5.32-11.77-.05-9.15-3.68-20.65-9.81-22-3.71-.8-7.32-1.55-10.88-2.29a1,1,0,0,0,0-.17c0-.39-.1-.8-.16-1.24a2.7,2.7,0,0,0,0-.28c-.05-.39-.11-.79-.17-1.22,0-.08,0-.15,0-.24s0-.22-.05-.32c0-.29-.09-.6-.14-.91l-.06-.33c-.07-.44-.14-.89-.22-1.36a.3.3,0,0,0,0-.1c-.08-.5-.17-1-.26-1.54a.43.43,0,0,0,0-.11c-.09-.56-.19-1.13-.3-1.72-.19-1.09-.4-2.23-.61-3.4l-.12-.69c0-.08,0-.16,0-.24l-.15-.84c-.16-.84-.32-1.69-.48-2.57-1.54-8.28-3.38-17.76-4.79-25.87,1.14-1.38,1.72-3.84,1.82-6.72a2.26,2.26,0,0,1,0-.26v-.62c.05-7.14-2.77-16.3-7.59-17.35-11.82-2.56-22.68-4.65-32.66-6.35A9.31,9.31,0,0,0,316,723a9.1,9.1,0,0,0-6.3-4,8.47,8.47,0,0,0-5.62.78c-.34-.44-.7-.91-1.11-1.38s-1-1.08-1.55-1.58-1.16-1-1.78-1.55-1.3-1-2-1.43-1.36-.89-2.07-1.26-1.41-.72-2.1-1.05-1.38-.56-2-.79a18.6,18.6,0,0,0-1.89-.51A11.13,11.13,0,0,0,288,710a7.43,7.43,0,0,0-1.27-.07l-1.11,0,1.1,0a7.92,7.92,0,0,1,1.26.13,12.85,12.85,0,0,1,1.6.34,18.64,18.64,0,0,1,1.84.6c.63.26,1.3.55,2,.88s1.35.7,2,1.14a23.28,23.28,0,0,1,2,1.33c.64.48,1.26,1,1.84,1.49a22.71,22.71,0,0,1,1.65,1.59c.53.52,1,1.08,1.41,1.59s.63.86.91,1.27l-.05,0a.39.39,0,0,0-.11.06,9.45,9.45,0,0,0-3.65,11.79q-5.91-.84-11.35-1.45a9.06,9.06,0,0,0-1-14.2,8.54,8.54,0,0,0-5.11-1.73c-.09-.55-.2-1.13-.34-1.74s-.37-1.41-.64-2.12-.54-1.46-.86-2.2-.69-1.46-1.07-2.18-.8-1.42-1.26-2.07-.91-1.3-1.37-1.91-1-1.14-1.44-1.64a19.27,19.27,0,0,0-1.44-1.34,10.21,10.21,0,0,0-1.33-1A7.72,7.72,0,0,0,271,698l-1-.48,1,.53a8.44,8.44,0,0,1,1,.71,10,10,0,0,1,1.26,1,17.8,17.8,0,0,1,1.35,1.38c.44.53.9,1.09,1.33,1.7s.87,1.24,1.26,1.93.76,1.39,1.12,2.09.66,1.45.93,2.18a21.29,21.29,0,0,1,.73,2.17c.23.71.35,1.41.5,2.07s.17,1.05.22,1.54h-.19a9.42,9.42,0,0,0-8.72,10.07,9,9,0,0,0,1.66,4.46c-4-.3-7.82-.49-11.39-.61a8.58,8.58,0,0,0-.68-5.23c.46-.32.93-.67,1.42-1.06s1.12-.93,1.65-1.49,1.08-1.12,1.61-1.72,1-1.26,1.5-1.91.94-1.33,1.34-2,.77-1.38,1.12-2.05.62-1.36.87-2a17.08,17.08,0,0,0,.58-1.87,11.37,11.37,0,0,0,.32-1.63,7.89,7.89,0,0,0,.12-1.26V705.4s0,.4,0,1.1a8.69,8.69,0,0,1-.19,1.25,10.27,10.27,0,0,1-.4,1.59,17,17,0,0,1-.67,1.81c-.28.63-.59,1.28-.95,1.94s-.75,1.32-1.21,2-.92,1.28-1.4,1.91-1,1.22-1.56,1.78-1.09,1.11-1.65,1.59-1.12.93-1.65,1.35-.88.6-1.3.86l0,0a.67.67,0,0,1-.06-.12A9.43,9.43,0,0,0,248,718.84,9.26,9.26,0,0,0,243.81,729c-33.64,2.27-40.24,14.56-41.82,21.88-1.11,5.2-5.53,18.75-5.61,27.82,0,.13,0,.26,0,.39s0,.24,0,.36c.05,5.47,1.8,9.17,7,8.1A10.75,10.75,0,0,0,207,781.3c-.1.54-.21,1.09-.31,1.63l-1,5.22c-.07.36-.14.71-.2,1.05-.38,2-.74,4-1.09,5.86,0,.25-.09.5-.14.75s-.07.37-.1.55c-.06.36-.13.71-.19,1.06l-.21,1.16c-.06.33-.12.66-.17,1s-.11.61-.16.92l-.4,2.3,0,.2,0,.16a2.23,2.23,0,0,1,0,.23c-7.32,3.3-11.87,7.26-14.71,11.16h0l0,0a25.25,25.25,0,0,0-4.29,9.63c-1.44,6.72-7.16,24.23-7.25,35.95v1c.05,4.44,1,8,3.31,9.65-.46,2.44-.9,4.82-1.32,7.11l-.06.32c-.06.34-.13.67-.18,1s-.1.49-.14.73c-.08.47-.17.93-.25,1.4s-.19,1-.27,1.52l-.15.82v.08c0,.14-.06.28-.08.42s0,.28-.07.44c-.25,1.37-.47,2.69-.68,3.93l0,.15s0,.08,0,.13c-.34,2-.63,3.89-.86,5.5,0,.11,0,.22,0,.33l-.06.5a.77.77,0,0,0,0,.15c-.08.59-.15,1.15-.21,1.66,0,.21,0,.41-.07.61a.38.38,0,0,1,0,.1l-.06.67c-11.26,1.44-17.74,3.12-17.74,4.93,0,5.26,55,9.53,122.83,9.53s122.83-4.27,122.83-9.53C403.32,901.45,396.84,899.77,385.58,898.33ZM209.43,768.14c-.68,3.87-1.45,8-2.22,12.08C207.89,776.07,207.47,771.59,209.43,768.14Z" style="fill: none"/>
          <path id="shadow_cake_1" d="M1023,1578.83q0-.32,0-.63V1522a61.35,61.35,0,0,0-61.35-61.35H946.14l-.72,0H918.8l.09,0h-9.75a14,14,0,0,0-13-19h0a14,14,0,0,0-13.05,19H830.55A61.35,61.35,0,0,0,769.2,1522v56.19c0,.21,0,.42,0,.63H742.18c0,11.49,43.71,21.23,104.41,24.73,15.54.89,32.18,1.38,49.5,1.38,85,0,153.88-11.68,153.91-26.11Z" style="fill: none"/>
          <path id="shadow_cake_4" d="M1081.13,1308.51l.4-.54c3.15-4.47,4.09-9.55,1.84-13.65,5.13-2.79,3.77-11.46-5.13-16.07-12.1-6.26-35.68-5.13-42.66-4.32-1.69.2-3.21.37-4.79.48-12.71-4.33-32.33-3.36-38.58-2.63-7,.83-11,1.15-28-1.38-8.29-1.23-14.56-.58-19.17,1.4-4.59.08-8.41.36-10.6.62-7,.82-11,1.15-28-1.39s-25.62,2.88-28.56,11.47c-1.47,4.3.33,6.55,2.5,7.73-1.61,3-5.12,12.55,10,18.28H862.62c0,8.89,33.85,16.44,80.86,19.15,12,.69,24.92,1.07,38.33,1.07,65.81,0,119.16-9,119.19-20.22Z" style="fill: none"/>
          <path id="shadow_cake_2" d="M583.58,1576.29v-54.51c0-33.64-23.49-60.9-52.46-60.9H517.9l-.64,0H494.5l.08,0h-8.34a15.67,15.67,0,0,0,.81-5c0-7.67-5.36-13.89-12-13.89h0c-6.61,0-12,6.22-12,13.89a16,16,0,0,0,.81,5H419.05c-29,0-52.46,27.26-52.46,60.9v54.51H343.74c0,9.82,37.37,18.15,89.27,21.14,13.28.77,27.52,1.18,42.32,1.18,72.66,0,131.57-10,131.6-22.32Z" style="fill: none;opacity: 0.4;mix-blend-mode: color-dodge"/>
          <path id="shadow_cake_3" d="M700.15,1288.81c-.25-.34-.48-.7-.71-1-.36-.52-.71-1-1.05-1.58-.24-.38-.47-.78-.7-1.18s-.61-1-.91-1.59-.44-.86-.65-1.29-.54-1.08-.8-1.63-.41-.91-.61-1.37-.47-1.11-.7-1.68-.37-1-.55-1.44-.42-1.15-.62-1.74-.33-1-.49-1.49l-.54-1.8c-.14-.51-.29-1-.43-1.54s-.32-1.24-.47-1.86-.25-1-.37-1.57-.27-1.28-.4-1.93-.21-1-.31-1.59-.23-1.33-.34-2-.17-1.06-.25-1.59c-.1-.7-.19-1.41-.27-2.11-.07-.52-.14-1-.2-1.55-.09-.78-.16-1.57-.23-2.36,0-.45-.09-.9-.13-1.35-.1-1.23-.18-2.47-.25-3.7,0-.47,0-.93,0-1.4,0-.79-.07-1.59-.09-2.39,0-.57,0-1.15,0-1.73s0-1.39,0-2.09,0-1.21,0-1.82l0-2,.06-1.88c0-.65,0-1.3.08-2s.07-1.28.1-1.92l.12-1.9.15-1.93c.05-.63.1-1.26.16-1.89l.18-1.91c.06-.63.13-1.24.2-1.86s.14-1.28.22-1.92.15-1.22.23-1.82.17-1.27.26-1.91.17-1.19.26-1.78.19-1.27.29-1.9.19-1.16.29-1.74.21-1.24.32-1.86.21-1.13.32-1.69.23-1.24.36-1.85.22-1.07.33-1.6.25-1.24.39-1.85.22-1,.33-1.46c.3-1.31.61-2.61.93-3.87.1-.39.19-.78.29-1.16.15-.57.3-1.13.46-1.7l.39-1.44c0-.14.08-.26.11-.4,58.58-1.62,103.7-11.71,103.7-23.92a5,5,0,0,0-.07-.78H781.42l.15-.31c0-.09.09-.18.12-.26s.18-.39.26-.59a21.64,21.64,0,0,0,1.76-8.6,21.89,21.89,0,0,0-7.49-16.51l-.56-.48a21,21,0,0,0-2.36-1.68l-.74-.44c-.31-.18-.62-.34-.93-.5l-.7-.33a21.81,21.81,0,0,0-9.17-2h-.3c-.37,0-.74,0-1.11,0a21.62,21.62,0,0,0-3.13.42c-.49.1-1,.22-1.45.36a22.13,22.13,0,0,0-4.38,1.79c.08-.5.16-1,.21-1.52,0,0,.09,0,.12-.05a2.38,2.38,0,0,0,.2-1.15.56.56,0,0,0,0-.12c0-.21,0-.42,0-.64a.48.48,0,0,0-.26-.4,20.12,20.12,0,0,0-3.35-10.64s.06-.06.07-.1a.63.63,0,0,0-.21-.68,1.3,1.3,0,0,0-.63-.26,19.78,19.78,0,0,0-3.85-3.85l.22.14a.43.43,0,0,0,.54-.19.44.44,0,0,0-.15-.55,3.67,3.67,0,0,0-.56-.38.44.44,0,0,0-.6.07.34.34,0,0,0,0,.2,2.42,2.42,0,0,0-.36-.18,2.12,2.12,0,0,0-.41-.08c-.31-.19-.62-.38-.94-.56a.52.52,0,0,0,.21-.14.48.48,0,0,0-.08-.65s0,0,0,0a.39.39,0,0,0-.1-.08.85.85,0,0,0-.3-.15l-.25-.1a.43.43,0,0,0-.5.1.39.39,0,0,0,0,.52l-.72-.35a.05.05,0,0,1,0,0h-.11a.63.63,0,0,0,0-1.16,3,3,0,0,0-1.61-.06.41.41,0,0,0-.32.49c-.51-.16-1-.29-1.57-.41a.17.17,0,0,0,0-.07s0,0,0,.06a.37.37,0,0,0,0-.18v-.06a.54.54,0,0,0-.16-.26,2.08,2.08,0,0,0-1.9-.31c-.21.05-.2.3-.08.44a22.25,22.25,0,0,0-2.46-.16,20.62,20.62,0,0,0-3,.24,20.33,20.33,0,0,0,4-5.17,20.12,20.12,0,0,0,2.37-7.86s.09,0,.12,0a2.16,2.16,0,0,0,.2-1.15.56.56,0,0,0,0-.12c0-.21,0-.43,0-.64a.48.48,0,0,0-.26-.4,20,20,0,0,0-3.35-10.64s.06-.06.07-.1a.63.63,0,0,0-.21-.68,1.44,1.44,0,0,0-.62-.27,20.64,20.64,0,0,0-3.85-3.85,1.18,1.18,0,0,0,.22.14.41.41,0,0,0,.53-.18.46.46,0,0,0-.15-.56,5.28,5.28,0,0,0-.55-.37.45.45,0,0,0-.6.06.41.41,0,0,0-.05.21,1.66,1.66,0,0,0-.35-.18,1.56,1.56,0,0,0-.42-.08l-.94-.57a.45.45,0,0,0,.22-.13.49.49,0,0,0-.09-.65s0,0-.05,0a.34.34,0,0,0-.09-.08.94.94,0,0,0-.3-.15l-.25-.1a.44.44,0,0,0-.51.1.41.41,0,0,0,0,.52l-.72-.35a.05.05,0,0,1,0,0h-.11a.63.63,0,0,0,0-1.16,3.07,3.07,0,0,0-1.62-.06.41.41,0,0,0-.32.49c-.51-.16-1-.29-1.57-.41a.17.17,0,0,0,0-.07.14.14,0,0,1,0,.06.37.37,0,0,0,0-.18s0,0,0-.06a.43.43,0,0,0-.16-.26,2.06,2.06,0,0,0-1.89-.31c-.21,0-.2.29-.09.44a19.73,19.73,0,0,0-6.51.25.44.44,0,0,0-.35-.24,2.67,2.67,0,0,0-.49,0,.42.42,0,0,0-.47.4.47.47,0,0,0,.06.15q-1,.29-2,.66a.52.52,0,0,0-.59-.62,2.22,2.22,0,0,0-.31.14,20.17,20.17,0,0,0-3.31-9.62.87.87,0,0,1,.08-.1.63.63,0,0,0-.21-.68,1.42,1.42,0,0,0-.63-.27,20.11,20.11,0,0,0-3.86-3.85l.23.14a.42.42,0,0,0,.54-.18.47.47,0,0,0-.15-.56,5.42,5.42,0,0,0-.56-.37.45.45,0,0,0-.6.06.31.31,0,0,0,0,.21,1.73,1.73,0,0,0-.36-.18,1.56,1.56,0,0,0-.42-.08c-.3-.19-.61-.39-.93-.57a.42.42,0,0,0,.21-.13.5.5,0,0,0-.09-.66c0,.05,0,0-.05,0a.24.24,0,0,0-.09-.08.87.87,0,0,0-.3-.16l-.25-.09a.44.44,0,0,0-.51.1.4.4,0,0,0,.06.52l-.73-.35,0,0h-.1a.63.63,0,0,0,0-1.16,3,3,0,0,0-1.61-.06.41.41,0,0,0-.33.49c-.51-.16-1-.29-1.56-.41,0,0,0,0,0-.07l0,.06a.37.37,0,0,0,0-.18v-.06a.54.54,0,0,0-.16-.26,2.08,2.08,0,0,0-1.9-.31c-.21,0-.2.29-.09.44a19.77,19.77,0,0,0-2.45-.16,20.68,20.68,0,0,0-4,.4.51.51,0,0,0-.35-.24,4,4,0,0,0-.49,0,.42.42,0,0,0-.47.4c0,.05,0,.1.06.15q-1,.29-2,.66a.52.52,0,0,0-.59-.62,3.59,3.59,0,0,0-1.45.84.54.54,0,0,0-.09.74,20.65,20.65,0,0,0-2.15,1.32s0-.06,0-.09v0l-.06-.15-.08-.09a.07.07,0,0,0,0,0,.48.48,0,0,0-.32-.46.45.45,0,0,0-.51.15.62.62,0,0,0-.15.21,1.27,1.27,0,0,0-.06.18s0,0,0,0l0,.15a.83.83,0,0,0,.39.73H674c-.35.27-.69.56-1,.85a.38.38,0,0,0-.39-.12,1.77,1.77,0,0,0-1.08,1.42s0,.08,0,.12a20.64,20.64,0,0,0-2.56,3.46,2.64,2.64,0,0,0-.15-.29.53.53,0,0,0-.54-.25.45.45,0,0,0-.34.56c0,.17.06.34.1.51a.65.65,0,0,0,.4.44,20.17,20.17,0,0,0-2.21,8.45,1.14,1.14,0,0,0-.31.44.25.25,0,0,0-.07.25s0,.08,0,.12a20,20,0,0,0-6.43.25.49.49,0,0,0-.35-.24,4,4,0,0,0-.49,0,.37.37,0,0,0-.41.56q-1,.29-2,.66a.51.51,0,0,0-.59-.62,3.45,3.45,0,0,0-1.44.84.52.52,0,0,0-.09.74,18.34,18.34,0,0,0-2.16,1.32.29.29,0,0,0,0-.09l0,0a.61.61,0,0,1-.07-.14l-.08-.09s0,0,0,0a.49.49,0,0,0-.33-.46.46.46,0,0,0-.51.15.62.62,0,0,0-.15.21,1,1,0,0,0-.06.18s0,0,0,0l0,.15a.82.82,0,0,0,.4.73h0c-.35.27-.68.56-1,.85a.37.37,0,0,0-.39-.12,1.74,1.74,0,0,0-1.09,1.41c0,.06,0,.09,0,.13a20.58,20.58,0,0,0-2.55,3.46,2.64,2.64,0,0,0-.15-.29.54.54,0,0,0-.55-.25.46.46,0,0,0-.34.56,4.64,4.64,0,0,0,.11.51.59.59,0,0,0,.39.43,20.26,20.26,0,0,0-2.21,8.46,1.16,1.16,0,0,0-.36,1.15.49.49,0,0,0,.25.31c0,.26,0,.52,0,.78l.12,0h0c0,.53.1,1.06.18,1.58,0-.06-.06-.11-.08-.17a18.9,18.9,0,0,0,.79,3.38.37.37,0,0,0,0,.49c0,.06.13.07.18.1a19.89,19.89,0,0,0,.91,2.12,1.82,1.82,0,0,0-.31-.16,2,2,0,0,0-.41-.07c-.31-.2-.62-.39-.94-.57a.38.38,0,0,0,.21-.14.47.47,0,0,0-.09-.65s0,0,0,0a.28.28,0,0,0-.1-.09.94.94,0,0,0-.3-.15l-.25-.09a.4.4,0,0,0-.5.1.39.39,0,0,0,0,.51l-.72-.35,0,0h-.08l0,0a.62.62,0,0,0,0-1.15,3,3,0,0,0-1.61-.07.42.42,0,0,0-.32.5c-.51-.17-1-.3-1.57-.42a.13.13,0,0,0,0-.06l0,.06a.37.37,0,0,0,0-.18v-.07a.56.56,0,0,0-.16-.25,2.08,2.08,0,0,0-1.9-.32c-.21.06-.2.3-.08.45a19.27,19.27,0,0,0-6.51.24.49.49,0,0,0-.35-.24,4,4,0,0,0-.49,0,.37.37,0,0,0-.41.56,18.9,18.9,0,0,0-2,.66.51.51,0,0,0-.59-.62,3.45,3.45,0,0,0-1.44.84.52.52,0,0,0-.09.74,17.44,17.44,0,0,0-2.15,1.32l0-.09,0,0a.61.61,0,0,1-.07-.14l-.07-.09s0,0-.05,0a.49.49,0,0,0-.32-.46.47.47,0,0,0-.52.15.75.75,0,0,0-.15.2,1.39,1.39,0,0,0-.06.19s0,0,0,0a.77.77,0,0,0,0,.15.79.79,0,0,0,.39.73h0c-.35.27-.68.55-1,.85a.35.35,0,0,0-.39-.12,1.74,1.74,0,0,0-1.09,1.41.5.5,0,0,0,0,.13,20.19,20.19,0,0,0-2.55,3.46,2.64,2.64,0,0,0-.15-.29.54.54,0,0,0-.55-.25.45.45,0,0,0-.34.55,4.36,4.36,0,0,0,.11.52.59.59,0,0,0,.39.43,20.06,20.06,0,0,0-2.2,8.46,1.15,1.15,0,0,0-.37,1.15.49.49,0,0,0,.25.31c0,.26,0,.52,0,.78l.12,0h0c0,.53.1,1.06.18,1.58a1.3,1.3,0,0,0-.08-.17,19.1,19.1,0,0,0,.79,3.38.37.37,0,0,0,0,.49c0,.06.13.06.18.1a20.39,20.39,0,0,0,3,5.48l-.66.1a25.06,25.06,0,0,0-3.08-3.27l-.63-.54a25.14,25.14,0,0,0-2.66-1.9l-.84-.5-1-.56-.79-.37a24.51,24.51,0,0,0-10.34-2.27h-.34c-.42,0-.83,0-1.25,0a24,24,0,0,0-3.52.47c-.55.12-1.1.25-1.64.41a24.75,24.75,0,0,0-18,23.81,25.08,25.08,0,0,0,.28,3.7.83.83,0,0,1-.07-.13,24.76,24.76,0,0,0,2.45,7.74H558.08a4,4,0,0,0-.07.78,4.26,4.26,0,0,0,0,.61c1.4,11.43,42.4,20.9,96.51,23.08,2.34.09,4.75.15,7.14.21,8.75,30.76,12.44,80.45-9.28,102.36-4.86,4.89-20-8.6-23.7-3.51-5.36,7.4,2.44,17.64-2.72,23.86-4.1,4.94-16.16.75-21,4.55-3.82,3-5.44,8.89-5.76,14.61-.07,1.33-.07,2.67,0,3.94h158c.31-6.75-1-14.83-5.76-18.55s-16.88.39-21-4.55c-5.16-6.22,2.64-16.46-2.73-23.86-3.69-5.09-18.83,8.4-23.69,3.51-.72-.73-1.41-1.49-2.08-2.28-.22-.27-.43-.56-.65-.83C701,1289.91,700.56,1289.37,700.15,1288.81Zm-47.71-170a.36.36,0,0,0-.39-.12.18.18,0,0,0-.07,0c-.11-.23-.21-.45-.33-.67l.93.61A.86.86,0,0,1,652.44,1118.83Z" style="fill: none"/>
          <path id="shadow_cake_7" d="M387.82,1325.32c-.27-4.51,2.05-18,4.71-32.35,1.11.25,2.47-.38,4.13-2.31,7.24-8.41,11.94-18.91,12.76-28.18,1.16-5.82,1-11.36-.91-15.86-3.7-8.88-14.8-14.45-24.93-18.55a6.56,6.56,0,0,0,3.13-5.08,6.8,6.8,0,0,0-6.38-7.17h-.15c0-.35.08-.72.15-1.11a15.2,15.2,0,0,1,.34-1.5c.13-.51.31-1,.5-1.57s.42-1.05.65-1.57.5-1,.79-1.52.58-1,.88-1.41.63-.85.94-1.23a13.51,13.51,0,0,1,1-1,8.39,8.39,0,0,1,.89-.77,6.7,6.7,0,0,1,.75-.51l.7-.4-.72.36a6.15,6.15,0,0,0-.78.48,9,9,0,0,0-.94.73,11.32,11.32,0,0,0-1,1c-.34.37-.69.77-1,1.2a16.19,16.19,0,0,0-1,1.39c-.32.48-.6,1-.88,1.5s-.53,1.05-.76,1.58-.43,1.07-.59,1.59-.31,1-.44,1.54-.17.86-.23,1.26a6.1,6.1,0,0,0-3.82,1.43A6.53,6.53,0,0,0,373,1222a6.36,6.36,0,0,0,.21,2l-.75-.29a38.64,38.64,0,0,0-4.22-1.33c.67-4.66,1.75-10.7,2.91-17,.84.19,1.87-.28,3.13-1.75,5.49-6.38,9.06-14.34,9.69-21.39.87-4.41.73-8.62-.7-12-2.24-5.37-8-9.14-14.19-12a6.78,6.78,0,0,0,.62-9.08l-.06-.07,0,0c.28-.21.58-.42.92-.63s.86-.52,1.35-.74a15.81,15.81,0,0,1,1.5-.67c.52-.21,1.07-.39,1.61-.57s1.1-.31,1.66-.42,1.1-.2,1.63-.28,1.06-.1,1.55-.12a12.37,12.37,0,0,1,1.39.05,7.52,7.52,0,0,1,1.17.16,5,5,0,0,1,.88.21l.75.26-.74-.3a6.65,6.65,0,0,0-.87-.26,7.18,7.18,0,0,0-1.17-.22,12.16,12.16,0,0,0-1.41-.12c-.5,0-1,0-1.58,0a16.49,16.49,0,0,0-1.67.2c-.58.08-1.14.22-1.72.34s-1.13.31-1.68.5a15.67,15.67,0,0,0-1.58.61c-.52.2-1,.47-1.44.69s-.75.45-1.09.67a6,6,0,0,0-3.6-1.9,6.52,6.52,0,0,0-7.8,7.06l-1.81-.71a33.16,33.16,0,0,0-4.43-1.31c.3-3.12,1.14-8.1,2.13-13.52.41-.08.82-.14,1.21-.19s1.06-.1,1.55-.12a12.46,12.46,0,0,1,1.39,0,7.52,7.52,0,0,1,1.17.16,6,6,0,0,1,.88.21l.75.26-.74-.3a6.65,6.65,0,0,0-.87-.26,10.23,10.23,0,0,0-1.17-.22c-.44-.08-.91-.07-1.41-.11s-1,0-1.58,0l-1.11.11c.12-.69.25-1.38.38-2.08.63.14,1.4-.2,2.35-1.3,4.12-4.8,6.8-10.78,7.27-16.07a15.71,15.71,0,0,0-.53-9c-2.95-7.08-14.16-10.47-20.55-13-3.14-1.25-11.25-2.69-21.5-3.72.19-1.31.38-2.65.56-4l.09-.74c.16-1.3.31-2.62.42-3.93,0-.4.08-.81.11-1.21.05-.72.1-1.45.14-2.16,0-.31,0-.62,0-.93,0-1,0-2,0-2.92l0-.86a24.39,24.39,0,0,0-.34-3.25,11.07,11.07,0,0,0-1.36-4h0v0c-.09-.14-.18-.27-.28-.4a4.22,4.22,0,0,0-2.5-1.65,4.46,4.46,0,0,0-1.13-.11,2.84,2.84,0,0,0-.66.08,1.94,1.94,0,0,0-.33.07l-.45.16c-1.43.62-2.53,2.09-3.38,4-.08.19-.16.38-.23.58a23.9,23.9,0,0,0-.82,2.59q-.19.74-.36,1.5c-.06.26-.11.52-.16.79a56.41,56.41,0,0,0-.81,6.41,8.84,8.84,0,0,0-1.06-1v-.15c0-.75-.08-1.51-.13-2.29,0-.29,0-.59-.05-.89-.13-2.12-.28-4.3-.5-6.48,0-.26-.05-.52-.08-.78v0a19.46,19.46,0,0,1,1.14-1.62c.41-.52.83-1,1.25-1.45a15,15,0,0,1,1.25-1.18,11.31,11.31,0,0,1,1.16-.89,7.9,7.9,0,0,1,1-.58l.89-.43-.91.38a9.46,9.46,0,0,0-1,.54,10.53,10.53,0,0,0-1.21.83c-.46.31-.86.73-1.34,1.13s-.9.91-1.34,1.42-.62.77-.92,1.16c0-.11,0-.23,0-.34-.06-.56-.12-1.12-.2-1.68-.23-1.88-.52-3.75-.87-5.58,0-.24-.09-.47-.13-.71-.15-.74-.31-1.47-.49-2.19-.05-.2-.09-.4-.14-.6-.28-1.11-.59-2.19-.94-3.25,0-.17-.1-.35-.16-.51a33.38,33.38,0,0,0-2.75-6.18l-.26-.45a22.24,22.24,0,0,0-1.55-2.24c-.31-.41-.64-.8-1-1.18a16,16,0,0,0-1.23-1.24l-.35-.32a17,17,0,0,0-2.56-1.88,11.53,11.53,0,0,0-1.23-.66l-.46-.2a7.74,7.74,0,0,0-1-.34,4.09,4.09,0,0,0-.56-.13,4.93,4.93,0,0,0-4.47,1.3h0a8.65,8.65,0,0,0-1.54,2.07,18.87,18.87,0,0,0-1.85,6c0,.31-.09.63-.13.94a28.8,28.8,0,0,0-.19,4.54c0,.14,0,.28,0,.41s0,.29,0,.44a28.71,28.71,0,0,0,.67,4.45,31.88,31.88,0,0,0,.87,3.12h0a47.85,47.85,0,0,0,2.22,5.4l.28.57c.46,1,.95,1.9,1.46,2.84.1.19.19.38.3.56.57,1.08,1.17,2.17,1.76,3.27l.3.54.32.6-.44-.3-.4-.26c-.68-.44-1.5-1-2.43-1.53l-.41-.25-.77-.45-.8-.46-.64-.35-.42-.23a40,40,0,0,0-4.1-1.93l-.45-.17a8.62,8.62,0,0,0-.93-.33c-.22-.08-.45-.14-.67-.21a10.1,10.1,0,0,0-2.76-.44,4,4,0,0,0-.71.06c-2,.31-3.09,2-2.19,6,0,0,0,0,0,.07.06.27.14.54.22.8a17.44,17.44,0,0,0,3,5.62l.36.47a33.3,33.3,0,0,0,3.23,3.42l.39.36c.72.64,1.46,1.27,2.23,1.88l.39.31c.68.53,1.4,1,2.1,1.52-9.95.32-19.39,1.34-26.6,3.42-9.64,2.79-16.54,13.71-17.37,22.81-1.62,8.41,1.43,16,11.61,15.52l-.06.1c-.27.52-.53,1-.75,1.59s-.44,1.06-.6,1.59-.3,1-.43,1.53-.17.86-.23,1.26a6.13,6.13,0,0,0-3.83,1.43,6.47,6.47,0,0,0-.75,9.75c-.73.19-1.47.37-2.17.57-12.86,3.72-22.06,18.29-23.17,30.43-2.3,11.91,2.45,22.59,18.15,20.43.16.89.33,1.78.5,2.66l-.87.25c-.47.16-1,.35-1.47.57s-1,.46-1.51.75-1,.59-1.49.91-1,.67-1.42,1-.88.73-1.28,1.11a14.72,14.72,0,0,0-1.11,1.14c-.3.35-.56.68-.81,1a6.07,6.07,0,0,0-4-.56,6.52,6.52,0,0,0-4.54,2.91,6.72,6.72,0,0,0,1.25,8.59c-15.32,6.18-26.07,24-27.44,39-3,15.68,3.23,29.74,23.89,26.91l.16.81c.11.62.23,1.23.34,1.85.09.45.17.89.25,1.33l.6,3.22c0,.29.11.58.16.88,1.3,7.08,2.48,13.82,3.25,19.19v0c.07.5.14,1,.2,1.45s.09.7.14,1l.09.71,0,.22q.17,1.37.27,2.55c0,.13,0,.27,0,.4,0,.39.06.75.09,1.1,0,.09,0,.18,0,.27,0,.29,0,.57.05.84v.33c0,.2,0,.4,0,.58a2.44,2.44,0,0,1,0,.27c-22.34,1-36.34,2.41-36.34,4,0,3,51,5.43,113.9,5.43s113.9-2.43,113.9-5.43C416.17,1327.53,405.45,1326.28,387.82,1325.32Zm-135.41-189c.14-.52.32-1,.51-1.57s.41-1,.65-1.57l.18-.37c.47,0,.95-.07,1.45-.14.27,1.44.54,2.89.8,4.31,0,.07,0,.15,0,.22.23,1.27.46,2.52.67,3.73a2.93,2.93,0,0,1,.05.29,6.93,6.93,0,0,0-4.69-2.28h-.14c0-.36.08-.72.14-1.11S252.26,1136.87,252.41,1136.36Zm-21.14,74.12a14.85,14.85,0,0,1,1-1.15,16.29,16.29,0,0,1,1.19-1.15c.41-.37.87-.72,1.32-1.07s.93-.68,1.42-1,1-.56,1.44-.82,1-.45,1.41-.63c.29-.1.56-.2.83-.28.85,4.55,1.66,9,2.31,13-2.93.44-5.77.94-8.48,1.5a6.84,6.84,0,0,0-3-7.43l-.09,0,0,0C230.81,1211.09,231,1210.79,231.27,1210.48Z" style="fill: none;opacity: 0.6000000000000001;mix-blend-mode: color-dodge"/>
          <path id="shadow_cake_6" d="M757.76,899.2c0-.21,0-.43-.07-.65v-.06c0-.2,0-.41-.07-.62s-.08-.7-.13-1.09h0c0-.21,0-.42-.08-.64l0-.13c0-.17,0-.34-.07-.52s-.05-.37-.08-.56c-.38-2.65-.92-5.92-1.57-9.6,0-.22-.07-.42-.11-.64s-.1-.54-.14-.81c-.13-.7-.25-1.4-.39-2.12-.08-.48-.17-1-.25-1.44,0-.25-.1-.51-.14-.76s-.13-.68-.19-1-.11-.59-.16-.88c-.38-2.06-.78-4.19-1.19-6.37l-.08-.42c2.43-1.71,3.36-5.35,3.41-9.92,0-.19,0-.37,0-.57V860c-.08-12.09-6-30.19-7.48-37.12a26,26,0,0,0-4.43-9.93l0,0h0c-2.93-4-7.61-8.11-15.17-11.52q-.45-2.79-1.07-6.14c-.9-5-2-10.76-3.09-16.59a11.07,11.07,0,0,0,3.71,6.44c5.4,1.1,7.2-2.73,7.25-8.4v-.29c0-.16,0-.33,0-.5-.1-9.36-4.64-23.28-5.79-28.63-1.26-5.87-5.67-14.85-23.92-19.65a7.11,7.11,0,0,0,.64-.79A7.87,7.87,0,0,0,704.51,716l-.1-.05,0,0c.23-.35.48-.69.76-1.06s.74-.9,1.18-1.33.89-.89,1.38-1.33,1-.84,1.53-1.25,1.08-.78,1.65-1.11,1.12-.65,1.67-1,1.12-.52,1.65-.73a12.33,12.33,0,0,1,1.53-.5,8.81,8.81,0,0,1,1.34-.29,6.25,6.25,0,0,1,1.05-.11l.92,0-.92,0a7,7,0,0,0-1.06.06,9.67,9.67,0,0,0-1.37.22,12.57,12.57,0,0,0-1.58.43q-.83.27-1.71.66a19,19,0,0,0-1.75.87c-.59.31-1.16.68-1.73,1.05s-1.12.78-1.64,1.2a17.26,17.26,0,0,0-1.49,1.29c-.49.42-.89.9-1.3,1.32s-.64.79-.93,1.16a7.05,7.05,0,0,0-4.68-.66A7.53,7.53,0,0,0,693,725.22c-1.66-.19-3.38-.35-5.19-.47a7.72,7.72,0,0,0-14-6.34l0,.1,0,0c-.35-.23-.71-.46-1.08-.73s-.93-.69-1.38-1.12-.92-.86-1.38-1.33-.88-1-1.3-1.49-.82-1-1.17-1.6a19.22,19.22,0,0,1-1-1.64c-.3-.54-.56-1.09-.79-1.61a15.13,15.13,0,0,1-.56-1.52c-.06-.2-.12-.39-.17-.57l.59,0-.6,0a5.44,5.44,0,0,1-.16-.71,8.5,8.5,0,0,1-.15-1.05c0-.58,0-.92,0-.92v.93a7.48,7.48,0,0,0,.1,1.05,4.67,4.67,0,0,0,.12.7h-.19a7,7,0,0,0-1.06.06,9.78,9.78,0,0,0-1.36.22c-.5.08-1,.28-1.58.43s-1.13.41-1.71.66-1.18.54-1.75.88-1.16.68-1.74,1-1.11.78-1.64,1.2-1,.84-1.49,1.29-.88.9-1.29,1.33-.65.78-.93,1.16a7,7,0,0,0-4.69-.66,7.59,7.59,0,0,0-5.27,3.38,7.73,7.73,0,0,0,.34,8.74q-4.92.58-10.22,1.32a7.14,7.14,0,0,0,1-1.24,7.88,7.88,0,0,0-2.55-10.84l-.09,0,0,0c.23-.34.48-.69.76-1a17.7,17.7,0,0,1,1.18-1.34c.42-.46.89-.89,1.37-1.32s1-.85,1.54-1.25a18.91,18.91,0,0,1,1.64-1.11,17.84,17.84,0,0,1,1.68-1c.56-.28,1.11-.52,1.64-.74a13.71,13.71,0,0,1,1.54-.5,9.88,9.88,0,0,1,1.34-.29,9.5,9.5,0,0,1,1-.11h.92l-.92,0a7,7,0,0,0-1.06.06,9.55,9.55,0,0,0-1.36.22c-.51.08-1,.28-1.58.43s-1.13.41-1.71.66a19.09,19.09,0,0,0-1.75.88c-.6.3-1.16.68-1.74,1s-1.12.78-1.64,1.2-1,.84-1.49,1.29-.89.9-1.29,1.33-.65.78-.93,1.15a7.1,7.1,0,0,0-4.7-.65,7.59,7.59,0,0,0-5.26,3.38,7.88,7.88,0,0,0,2.54,10.84,8.52,8.52,0,0,0,.8.4c-2.36.38-4.76.77-7.23,1.19a7.33,7.33,0,0,0,.43-2.39,7.88,7.88,0,0,0-8-7.75H606c0-.41,0-.84.07-1.3s.13-1.16.27-1.76.27-1.23.44-1.86.39-1.26.62-1.88.48-1.24.78-1.82.59-1.16.9-1.71.65-1,1-1.5a15.49,15.49,0,0,1,1-1.26,10.88,10.88,0,0,1,1-1,6.77,6.77,0,0,1,.82-.66l.77-.51-.8.47a8,8,0,0,0-.86.63,8.25,8.25,0,0,0-1,.92,14.88,14.88,0,0,0-1.1,1.21c-.36.46-.73,1-1.08,1.48s-.7,1.09-1,1.68-.61,1.2-.89,1.82-.53,1.26-.74,1.89-.41,1.27-.55,1.9a18.29,18.29,0,0,0-.38,1.81c-.07.52-.12,1-.15,1.48a7,7,0,0,0-4.31,2A7.47,7.47,0,0,0,600,733c-6.23,1.19-12.74,2.51-19.58,4-5,1.08-7.89,10.55-7.83,17.91,0,.2,0,.41,0,.61a2.81,2.81,0,0,0,0,.29c.09,3,.7,5.5,1.87,6.92-1.45,8.36-3.34,18.14-4.94,26.68-.16.9-.33,1.78-.49,2.65-.05.29-.1.58-.16.86s0,.28-.08.42-.05.29-.07.43c-.23,1.25-.45,2.46-.66,3.62-.1.58-.2,1.14-.29,1.7,0,.2-.07.39-.1.59s-.12.67-.17,1-.1.56-.14.84-.07.41-.1.61-.11.68-.16,1l-.06.33c0,.18-.05.36-.08.53s0,.24,0,.36c-.05.34-.1.67-.14,1s-.06.37-.08.55c-.06.41-.1.8-.15,1.16a1.5,1.5,0,0,0,0,.2c-3.67.76-7.39,1.53-11.21,2.36-6.31,1.37-10.05,13.16-10.12,22.58-.11,6.66,1.59,12.2,5.48,12.22C549,854,546.94,864.59,545.18,874c-.22,1.19-.43,2.36-.65,3.51l-.21,1.13c-.21,1.15-.41,2.27-.61,3.36-.16.87-.31,1.72-.46,2.55s-.27,1.54-.4,2.29l-.09.51c-.09.55-.18,1.09-.27,1.61,0,.26-.08.51-.13.77-.06.42-.13.83-.2,1.23s-.09.54-.13.81-.11.74-.17,1.1l-.06.4a2.19,2.19,0,0,0,0,.27c-.09.6-.18,1.17-.25,1.72,0,.12,0,.26-.06.37-.08.59-.14,1.13-.21,1.65l0,.3s0,.07,0,.11c0,.21-.05.41-.07.61h0c0,.27-.06.53-.08.77a.41.41,0,0,1,0,.11c-9.23,1.33-14.47,2.86-14.47,4.48,0,5.26,55,9.53,122.83,9.53s122.83-4.27,122.83-9.53C772.23,902.06,767,900.53,757.76,899.2Zm-34-128.41c0-.16-.05-.32-.08-.47-.11-.58-.21-1.15-.32-1.72-.14-.77-.27-1.53-.41-2.28-.07-.39-.14-.77-.2-1.15l0-.13c2,3.51,1.6,8.07,2.26,12.3C724.52,775.14,724.11,773,723.71,770.79Zm-72.18-56.23c.37-.43.73-.91,1.17-1.34a17.52,17.52,0,0,1,1.39-1.32c.48-.44,1-.85,1.53-1.25s1.08-.79,1.64-1.12,1.13-.65,1.68-.94,1.11-.52,1.64-.74a15.17,15.17,0,0,1,1.54-.5,9.88,9.88,0,0,1,1.34-.29,7.51,7.51,0,0,1,1-.11h.19c0,.2.09.4.14.62a14.53,14.53,0,0,0,.49,1.56c.21.54.45,1.11.72,1.68a19.48,19.48,0,0,0,1,1.72,18.33,18.33,0,0,0,1.11,1.7c.4.54.82,1.08,1.25,1.59s.89,1,1.35,1.44a15.59,15.59,0,0,0,1.38,1.24c.4.33.8.62,1.18.89a7.07,7.07,0,0,0-.47,4.72,1.6,1.6,0,0,0,0,.23c-5.66.07-11.89.37-18.73.92a7.94,7.94,0,0,0-3.19-9.57l-.1-.05,0,0C651,715.27,651.25,714.92,651.53,714.56Z" style="fill: none"/>
          <path id="shadow_cake_8" d="M1093.35,894.16a.13.13,0,0,1,0-.06v-.24c0-.55.06-1.18.12-1.88a.28.28,0,0,0,0-.09c.08-.89.2-1.88.34-3,.09-.72.19-1.49.31-2.29.88-6.08,2.38-14.26,3.91-22.4,17,2.34,22.21-9.26,19.71-22.2-1.19-13-10.86-28.46-24.47-32.82a22.56,22.56,0,0,0,1.51-2.45c.19-.35.37-.71.52-1.06a7.2,7.2,0,0,0,.71-3.38,3.48,3.48,0,0,0-.3-1.16c-.74-1.62-2.85-2.73-7.08-2.93-.47,0-.94,0-1.43,0s-.91.07-1.36.14c-4.51.64-9.3,3.14-13.13,5.93l0-.08c0-.14,0-.28.07-.42a50.61,50.61,0,0,0,7.37-8.65c8.33-1.25,10.78-8.72,9.2-16.89a32.27,32.27,0,0,0-8-17.78,25.64,25.64,0,0,0,4.28-3.92,10.75,10.75,0,0,0,.66-.89c1.22-1.86,1.56-3.79.22-5.72a1.82,1.82,0,0,0-.51-.36,3.58,3.58,0,0,0-1-.29c-3-.47-8.33,2.15-10.3,3.74,2-2.4,5.52-6.19,7.31-9.59q.24-.47.45-.93a6.32,6.32,0,0,0,.62-2.95,3.08,3.08,0,0,0-.27-1c-.64-1.41-2.48-2.38-6.18-2.56-.4,0-.82,0-1.24,0s-.79.06-1.19.12c-4.34.62-9,3.21-12.47,5.94h-.11c4.73-4.66,9.61-9.66,9.24-14a4.67,4.67,0,0,0-.15-.91,5.71,5.71,0,0,0-.88-1.83,5.38,5.38,0,0,0-.58-.7,9.6,9.6,0,0,0-1.08-1,12.27,12.27,0,0,0-8.47-.75c-.39.1-.77.21-1.16.34a24.15,24.15,0,0,0-7.09,3.94c-.4.31-.79.63-1.18,1s-1,.89-1.52,1.36c-2.5-1.24-4.9-2.18-4.83-5.2a7.56,7.56,0,0,1,.18-1.41c.66-3,4.84-3.7,5.16-7.42.63-7.26-9-9.47-17.35-11.8a.56.56,0,0,1,0-.12c-1.11-.84-2.32-1.72-3.35-2.48a3.48,3.48,0,0,0-.13,1.47l.19.15c-6.31-2-10.84-4.49-7.61-10.24l-.54.36c-6.8,4.8,1.32,9.06-2.77,14.22a5.77,5.77,0,0,1-.94.91l-2.11-1.56a3.48,3.48,0,0,0-.13,1.47l1.05.85c-4.08,2-10.53.9-13.76,5a8,8,0,0,0-1.64,5.25,5.41,5.41,0,0,0-.43.58c0,.16.37,1.51.66,2.71.29,2.82.54,5.76-1.26,8.67-.22.37-.6.9-1.07,1.54a61.39,61.39,0,0,0-3.32-6.53c-.16-.27-.33-.55-.51-.82-1.91-3-4.08-5.47-6.52-6.67a8,8,0,0,0-1-.39,7.12,7.12,0,0,0-2.43-.4,5.47,5.47,0,0,0-4.92,2.87,8.29,8.29,0,0,0-.56,1.16c-1,2.6-1.22,6.16-.93,9.91,0,.33.05.66.08,1a73,73,0,0,0,1.66,9.64c.07.31.14.61.22.92a58.55,58.55,0,0,0,2,6.57c-.61-.6-1.49-1.52-2.55-2.61l-1.73-1.74-.86-.83-.72-.69a44.25,44.25,0,0,0-7.82-6.12l-.94-.51c-.35-.17-.69-.33-1-.47s-.71-.29-1.06-.4c-2.49-.81-4.8-.63-6.61,1.25a7.59,7.59,0,0,0-.61.73l-.3.43a6.81,6.81,0,0,0-.92,5.61,8.37,8.37,0,0,0,.3.93,18.8,18.8,0,0,0,4.48,6.28c.22.23.45.44.68.67,1.73,1.65,3.66,3.25,5.54,4.74.65.53,1.29,1,1.91,1.52-5.83,2.5-11.78,5.84-13.89,10.91a17.37,17.37,0,0,0-.57,9.93c.52,5.81,3.46,12.39,8,17.65,1.05,1.21,1.89,1.6,2.59,1.44.18,1,.37,2,.55,3-.64-.43-1.28-.86-1.92-1.22-.37-.21-.73-.41-1.08-.59s-.79-.38-1.18-.54a12.12,12.12,0,0,0-1.22-.46c-2.84-.92-5.5-.72-7.57,1.44a6.46,6.46,0,0,0-.69.83c-.12.16-.23.32-.35.5a7.83,7.83,0,0,0-1.06,6.42c.1.36.21.71.34,1.06a21.81,21.81,0,0,0,5.14,7.2c.26.26.51.51.78.76l.22.2c-6.88,3.17-13.47,7.33-16,13.32-1.55,3.72-1.71,8.28-.76,13.07.68,7.66,4.56,16.32,10.53,23.26,1.37,1.6,2.49,2.1,3.4,1.89,2.1,11.31,3.94,21.95,3.91,26.15-16.57,1.18-26.75,2.79-26.75,4.56,0,3.66,43.57,6.63,97.31,6.63s97.3-3,97.3-6.63C1126.68,897.16,1113.77,895.37,1093.35,894.16Z" style="fill: none;opacity: 0.6000000000000001;mix-blend-mode: color-dodge"/>
        </g>
      </g>
    </g>
  </g>
</svg>
