<?xml version="1.0" encoding="UTF-8"?>
<svg xmlns="http://www.w3.org/2000/svg" viewBox="0 0 160.81 151.51">
  <defs>
    <style>
      .cls-1 {
        fill: #4d3c24;
      }

      .cls-1, .cls-2, .cls-3, .cls-4 {
        stroke-width: 0px;
      }

      .cls-2, .cls-4 {
        fill: #fcdeda;
      }

      .cls-2, .cls-5 {
        mix-blend-mode: multiply;
      }

      .cls-6 {
        isolation: isolate;
      }

      .cls-7 {
        fill: #fee079;
      }

      .cls-7, .cls-8, .cls-9 {
        stroke: #4d3c24;
        stroke-miterlimit: 10;
        stroke-width: 1.35px;
      }

      .cls-3 {
        fill: #f9be89;
      }

      .cls-8 {
        fill: #fddfc1;
      }

      .cls-9 {
        fill: #f0a3b7;
      }
    </style>
  </defs>
  <g class="cls-6">
    <g id="Capa_2" data-name="Capa 2">
      <g id="Capa_1-2" data-name="Capa 1">
        <g>
          <g>
            <path class="cls-9" d="m157.38,81.51c0-6.63-34.62-12-77.32-12S2.75,74.88,2.75,81.51v57.32c0,6.63,34.62,12,77.32,12s77.32-5.37,77.32-12v-57.32Z"/>
            <path class="cls-2" d="m153.43,106.25c-4.63,1.4-9.14,3.25-13.89,4.23-4.09.84-7.66,3.67-12.03,3.4-2.48-.15-4.82-.7-7.26-1.08-2.11-.33-4.33,1.16-6.49,1.24-3.75.14-8-.38-11.75-.68-2.65-.21-2.8-.36-5.26.49-2.28.79-4.49.87-6.79.14-1.12-.36-1.86-.91-2.73-1.48-.13.05-.28.11-.45.18-1.76.77-3.55,1.67-5.54,1.64-2.36-.04-4.35-.64-6.6-1.19-1.21-.3-3.65.9-5.34.74-1.68-.16-3.83-.94-5.41-.91-1.29.02-2.58.81-3.75,1.28-1.87.74-4.02.85-5.98.38-1.04-.26-4.37-2.12-4.68-2.1-1.82.14-3.45,1.09-5.33,1.12-2.02.03-3.84-.44-5.79-.84-2.32-.47-4.8-.64-7.06-1.38-2.52-.83-4.54-2.14-6.88-3.29-3.3-1.63-6.79.15-10.15.63-4.2.59-8.06.56-11.54-1.94v32.02c0,6.63,34.62,12,77.32,12s77.32-5.37,77.32-12v-34.05c-1.27.56-2.59,1.05-3.96,1.46Z"/>
            <path class="cls-8" d="m80.07,122.17c-42.7,0-77.32-5.37-77.32-12v28.66c0,6.63,34.62,12,77.32,12s77.32-5.37,77.32-12v-28.66c0,6.63-34.62,12-77.32,12Z"/>
            <path class="cls-9" d="m157.38,81.51c0,6.63-34.62,12-77.32,12S2.75,88.14,2.75,81.51s34.62-12,77.32-12,77.32,5.37,77.32,12Z"/>
            <path class="cls-8" d="m133.79,37.77c0-4.69-24.08-8.49-53.8-8.49s-53.8,3.8-53.8,8.49v40.58c0,4.69,24.09,8.49,53.8,8.49s53.8-3.8,53.8-8.49v-40.58Z"/>
            <path class="cls-9" d="m35.82,52.84c5.55-.13,5.71,4.99,10.81,7.66,2.36,1.23,5.18-3.98,9.53-4.05,3.18-.05,9.35,6,12.42,5.1,4.8-1.4,9.8-4.9,15-4.17,2.85.4,5.12,2.07,7.71,3.17,3.41,1.45,6.85,1.56,10.32.14,3.17-1.3,5.83-3.26,8.56-5.29,1.37-1.02,3.13-2.1,4.89-1.34,3.17,1.36,5.33,4.23,9.05,2.23,2.45-1.32,2.11-4.66,4.84-4.98,3.21-.38,2.18,3.34,4.85,2.82,2.66-.53.94-16.35.94-16.35,0-4.69-24.51-8.49-54.74-8.49s-54.74,3.8-54.74,8.49c0,0-2.55,18.68.94,19.28,3.48.6,6.12-4.12,9.63-4.2Z"/>
            <path class="cls-2" d="m128.36,47.61c-2.14-.02-4.76,3.52-7.96,4.08-2.48.43-4.65.03-6.95-.9-1.45-.58-1.44-1.02-2.78-.04-2.73,1.99-6.24,4.84-9.89,4.46-1.93-.2-3.52-1.04-5.17-1.64-.86.44-1.64,1.05-2.57,1.5-1.8.86-3.55,1.18-5.54,1.07-3.94-.21-5.67-2.72-8.84-4.39,1,.52-1.36.75-1.87.91-.85.29-1.71.54-2.58.75-2.02.38-3.94.65-5.99.48-1.97-.16-4.25-.72-5.89-1.9-1.18-.84-.9-.93-2.14-.32-7.42,3.67-13.59,3.03-20.37-1.69-1.4-.98-4.77-4.12-6.7-3.43-2.52.9-4.59,3.51-6.85,4.92-.62.39-1.23.65-1.83.82.17,2.61.67,4.57,1.76,4.76,3.48.6,6.12-4.12,9.63-4.2,5.55-.13,5.71,4.99,10.81,7.66,2.36,1.23,5.18-3.98,9.53-4.05,3.18-.05,9.35,6,12.42,5.1,4.8-1.4,9.8-4.9,15-4.17,2.85.4,5.12,2.07,7.71,3.17,3.41,1.45,6.85,1.56,10.32.14,3.17-1.3,5.83-3.26,8.56-5.29,1.37-1.02,3.13-2.1,4.89-1.34,3.17,1.36,5.33,4.23,9.05,2.23,2.45-1.32,2.11-4.66,4.84-4.98,3.21-.38,2.18,3.34,4.85,2.82,1.24-.25,1.53-3.81,1.48-7.56-2.09.87-4.38,1.07-6.91,1.04Z"/>
            <path class="cls-9" d="m134.73,37.77c0,4.69-24.51,8.49-54.74,8.49s-54.74-3.8-54.74-8.49,24.51-8.49,54.74-8.49,54.74,3.8,54.74,8.49Z"/>
            <path class="cls-9" d="m134.14,32.5c-2.85-.75-5.02-.7-7.29-2.83-1.68-1.58-3.64-1.93-5.86-1.68-.93.1-1.56.43-2.39.85-1.49.74-2.53.1-4.02-.51-2.4-.98-4.92-1.34-7.35-.29-2.93,1.28-4.96-1.5-7.75-2.17-2.51-.6-4.8,1.05-7.21.46-2.21-.54-3.78-2.47-6.35-1.52-1.06.39-2.66,1.28-3.8.75-1.13-.53-2-1.43-3.19-1.88-2.29-.85-4.13-.73-6.31.27-.99.45-1.57,1.46-2.75,1.58-1.05.11-2.92-1.13-3.95-1.48-2.08-.7-4.61.11-6.37,1.22-.87.55-2.04-.09-2.98-.24-1.45-.23-2.83.05-4.2.53-1.07.37-1.99,1.05-3.04,1.47-1.32.53-2.86-.22-4.19-.31-2.38-.17-4.25.99-6.17,2.25-1.88,1.23-4.88-.38-7.26.22-2.59.65-5.23,2.45-7.8,3.38-1.91.69-1.4,5.44-1.46,5.55-.82,1.63-.16,3.73,1.72,4.22,2.85.75,5.02.7,7.29,2.83,1.68,1.58,3.64,1.93,5.86,1.68.93-.1,1.56-.43,2.39-.85,1.49-.74,2.53-.1,4.02.5,2.4.98,4.92,1.35,7.35.29,2.93-1.28,4.96,1.5,7.75,2.17,2.51.6,4.8-1.05,7.21-.46,2.21.54,3.78,2.47,6.35,1.52,1.06-.39,2.66-1.28,3.8-.75,1.13.53,2,1.43,3.19,1.88,2.29.85,4.13.73,6.31-.27.99-.45,1.57-1.46,2.75-1.58,1.05-.11,2.92,1.13,3.95,1.48,2.08.7,4.61-.1,6.37-1.22.87-.55,2.04.09,2.98.24,1.45.23,2.83-.05,4.2-.53,1.07-.37,1.99-1.05,3.04-1.47,1.32-.53,2.86.22,4.19.31,2.38.17,4.25-.99,6.18-2.25,1.88-1.23,4.88.38,7.26-.22,2.59-.65,5.23-2.45,7.8-3.38,1.48-.53,2.04-2.05,1.72-3.28.46-.29.9-.68,1.28-1.21,1.05-1.49-1.37-4.78-3.25-5.27Zm-10.8,6.44c-1.25-.52-2.66-.91-4.03-.58-1.63.38-4.6,3.21-5.95,2.94-2.52-.5-4.86-.57-7.28.41-1.04.42-2.55,1.58-3.69,1.4-1.12-.17-2.21-.62-3.37-.62-2.66,0-3.99,2.34-6.66,1.24-2.25-.93-4.56-1.14-6.85-.19-.83.34-1.48.78-2.18,1.33-1.5,1.17-2.75,0-4.11-.83-1.5-.91-3.85-1.34-5.54-.83-.85.26-2.74,1.2-3.57.73-1.24-.71-2.35-1.13-3.75-1.48-2.38-.59-5.02,1.43-7.2.33-2.31-1.17-3.6-2.42-6.31-2.62-3.24-.24-5.18,1.96-8.56,0-1.71-.99-4.34-1.33-6.12-.33-2.6,1.47-2.23.87-4.56-.78-.2-.15-1.64,2.52-4.24-1.69-2.6-4.21,1.12-.53,1.67-.78,1.43-.65,2.3-1.38,3.91-.71,1.25.52,2.66.91,4.03.58,1.63-.38,4.6-3.21,5.95-2.94,2.52.5,4.86.57,7.28-.41,1.04-.42,2.55-1.58,3.69-1.4,1.12.17,2.21.62,3.37.62,2.66,0,3.99-2.34,6.66-1.24,2.25.93,4.56,1.14,6.85.19.83-.34,1.48-.78,2.19-1.33,1.5-1.17,2.75,0,4.11.83,1.5.91,3.85,1.34,5.54.83.85-.26,2.74-1.2,3.57-.73,1.24.71,2.35,1.13,3.75,1.48,2.38.59,5.02-1.43,7.2-.33,2.31,1.17,3.6,2.42,6.31,2.62,3.24.24,5.18-1.96,8.56,0,1.71.99,4.34,1.33,6.12.33,2.6-1.47,2.23-.87,4.56.78.22.15,4.36-2.02,4.6,1.81.24,3.82-1.35.36-2.03.67-1.43.65-2.3,1.38-3.91.71Z"/>
            <g>
              <g class="cls-5">
                <path class="cls-4" d="m60.45,66.59c0,.24.17.43.38.43s.38-.19.38-.43-.17-.43-.38-.43-.38.19-.38.43Z"/>
                <path class="cls-4" d="m56.48,75.01c0,.5.35.91.8.91s.8-.41.8-.91-.36-.91-.8-.91-.8.41-.8.91Z"/>
                <path class="cls-4" d="m55.91,69.67c0,.36.25.65.57.65s.57-.29.57-.65-.25-.65-.57-.65-.57.29-.57.65Z"/>
                <path class="cls-4" d="m69.56,73.02c0,.17.12.3.27.3s.26-.14.26-.3-.11-.3-.26-.3-.27.14-.27.3Z"/>
                <path class="cls-4" d="m48.51,64.99c0,.58.41,1.04.91,1.04s.91-.47.91-1.04-.41-1.04-.91-1.04-.91.47-.91,1.04Z"/>
                <path class="cls-4" d="m51.2,73.01c0,.29.21.52.46.52s.46-.23.46-.52-.2-.52-.46-.52-.46.23-.46.52Z"/>
                <path class="cls-4" d="m56.13,81.07c0,.22.15.39.34.39s.34-.18.34-.39-.15-.39-.34-.39-.34.17-.34.39Z"/>
                <path class="cls-4" d="m65.19,78.44c0,.29.21.52.46.52s.46-.23.46-.52-.2-.52-.46-.52-.46.23-.46.52Z"/>
                <path class="cls-4" d="m63.41,72.36c0,.36.26.65.57.65s.57-.29.57-.65-.25-.65-.57-.65-.57.29-.57.65Z"/>
              </g>
              <g class="cls-5">
                <path class="cls-4" d="m45.78,65.42c0,.24.17.43.38.43s.38-.19.38-.43-.17-.43-.38-.43-.38.19-.38.43Z"/>
                <path class="cls-4" d="m42.75,66.77c0,.5.35.91.8.91s.8-.41.8-.91-.36-.91-.8-.91-.8.41-.8.91Z"/>
                <path class="cls-4" d="m41.61,63.73c0,.36.25.65.57.65s.57-.29.57-.65-.25-.65-.57-.65-.57.29-.57.65Z"/>
                <path class="cls-4" d="m39.86,65.73c0,.17.12.3.27.3s.27-.14.27-.3-.12-.31-.27-.31-.27.14-.27.31Z"/>
                <path class="cls-4" d="m37.2,62.21c0,.58.41,1.04.91,1.04s.91-.47.91-1.04-.41-1.04-.91-1.04-.91.47-.91,1.04Z"/>
                <path class="cls-4" d="m35.76,65.51c0,.29.2.52.46.52s.46-.23.46-.52-.2-.52-.46-.52-.46.23-.46.52Z"/>
                <path class="cls-4" d="m33.63,60.78c0,.22.15.39.34.39s.34-.18.34-.39-.15-.39-.34-.39-.34.18-.34.39Z"/>
                <path class="cls-4" d="m33.4,63.21c0,.29.21.52.46.52s.45-.23.45-.52-.2-.52-.45-.52-.46.23-.46.52Z"/>
                <path class="cls-4" d="m31.58,66.68c0,.36.26.65.57.65s.57-.29.57-.65-.26-.65-.57-.65-.57.29-.57.65Z"/>
              </g>
              <g class="cls-5">
                <path class="cls-4" d="m95.63,65.42c0,.24.17.43.38.43s.38-.19.38-.43-.17-.43-.38-.43-.38.19-.38.43Z"/>
                <path class="cls-4" d="m90.56,70.46c0,.5.35.91.79.91s.8-.41.8-.91-.36-.91-.8-.91-.79.41-.79.91Z"/>
                <path class="cls-4" d="m91.8,64.38c0,.36.26.65.57.65s.57-.29.57-.65-.26-.65-.57-.65-.57.29-.57.65Z"/>
                <path class="cls-4" d="m87.26,66.33c0,.17.12.3.27.3s.27-.14.27-.3-.12-.3-.27-.3-.27.14-.27.3Z"/>
                <path class="cls-4" d="m85.44,72.36c0,.58.41,1.04.91,1.04s.91-.47.91-1.04-.41-1.04-.91-1.04-.91.47-.91,1.04Z"/>
                <path class="cls-4" d="m80.49,77.92c0,.29.2.52.46.52s.45-.23.45-.52-.21-.52-.45-.52-.46.23-.46.52Z"/>
                <path class="cls-4" d="m78.07,61.17c0,.22.15.39.34.39s.34-.18.34-.39-.15-.39-.34-.39-.34.17-.34.39Z"/>
                <path class="cls-4" d="m82.67,68.74c0,.29.2.52.46.52s.46-.23.46-.52-.2-.52-.46-.52-.46.23-.46.52Z"/>
                <path class="cls-4" d="m75.11,72.02c0,.36.25.65.57.65s.57-.29.57-.65-.25-.65-.57-.65-.57.29-.57.65Z"/>
              </g>
              <g class="cls-5">
                <path class="cls-4" d="m91.36,81.14c0-.24-.17-.43-.38-.43s-.38.2-.38.43.17.43.38.43.38-.19.38-.43Z"/>
                <path class="cls-4" d="m97.87,75.77c0-.5-.36-.91-.79-.91s-.8.41-.8.91.36.91.8.91.79-.41.79-.91Z"/>
                <path class="cls-4" d="m97.15,80.7c0-.36-.25-.65-.57-.65s-.57.29-.57.65.26.65.57.65.57-.29.57-.65Z"/>
                <path class="cls-4" d="m100.76,76.82c0-.17-.12-.3-.27-.3s-.27.14-.27.3.12.3.27.3.27-.14.27-.3Z"/>
                <path class="cls-4" d="m102.51,81.13c0-.58-.41-1.04-.91-1.04s-.91.47-.91,1.04.41,1.04.91,1.04.91-.47.91-1.04Z"/>
                <path class="cls-4" d="m104.86,77.03c0-.29-.2-.52-.46-.52s-.45.23-.45.52.2.52.45.52.46-.23.46-.52Z"/>
                <path class="cls-4" d="m111.92,82.37c0-.22-.15-.39-.34-.39s-.34.17-.34.39.15.39.34.39.34-.18.34-.39Z"/>
                <path class="cls-4" d="m108.36,80.61c0-.29-.21-.52-.46-.52s-.46.23-.46.52.2.52.46.52.46-.23.46-.52Z"/>
                <path class="cls-4" d="m109.04,75.86c0-.36-.25-.65-.57-.65s-.57.29-.57.65.26.65.57.65.57-.29.57-.65Z"/>
              </g>
              <g class="cls-5">
                <path class="cls-4" d="m79.86,65.42c0,.24.17.43.38.43s.38-.19.38-.43-.17-.43-.38-.43-.38.19-.38.43Z"/>
                <path class="cls-4" d="m76.82,66.77c0,.5.36.91.8.91s.8-.41.8-.91-.36-.91-.8-.91-.8.41-.8.91Z"/>
                <path class="cls-4" d="m75.68,63.73c0,.36.26.65.57.65s.57-.29.57-.65-.25-.65-.57-.65-.57.29-.57.65Z"/>
                <path class="cls-4" d="m73.93,65.73c0,.17.12.3.27.3s.27-.14.27-.3-.12-.31-.27-.31-.27.14-.27.31Z"/>
                <path class="cls-4" d="m71.27,62.21c0,.58.41,1.04.91,1.04s.91-.47.91-1.04-.41-1.04-.91-1.04-.91.47-.91,1.04Z"/>
                <path class="cls-4" d="m69.83,65.51c0,.29.2.52.45.52s.46-.23.46-.52-.2-.52-.46-.52-.45.23-.45.52Z"/>
                <path class="cls-4" d="m67.7,60.78c0,.22.15.39.34.39s.34-.18.34-.39-.15-.39-.34-.39-.34.18-.34.39Z"/>
                <path class="cls-4" d="m67.47,63.21c0,.29.21.52.46.52s.46-.23.46-.52-.2-.52-.46-.52-.46.23-.46.52Z"/>
                <path class="cls-4" d="m65.65,66.68c0,.36.25.65.57.65s.57-.29.57-.65-.26-.65-.57-.65-.57.29-.57.65Z"/>
              </g>
              <g class="cls-5">
                <path class="cls-4" d="m124.33,62.63c.2.07.41-.07.47-.3.06-.23-.06-.47-.26-.54-.2-.07-.41.07-.47.29-.06.23.06.47.26.54Z"/>
                <path class="cls-4" d="m124.98,68.71c.42.14.87-.13.99-.62.12-.48-.12-.99-.54-1.13-.42-.14-.87.14-.99.62-.12.48.12.99.54,1.13Z"/>
                <path class="cls-4" d="m117.86,61.79c.3.1.62-.09.71-.44.09-.35-.08-.7-.39-.81-.3-.1-.62.1-.71.44-.09.34.08.7.39.81Z"/>
                <path class="cls-4" d="m128.53,75.91c.14.05.29-.04.33-.21.04-.16-.04-.33-.18-.38-.14-.05-.29.04-.33.21-.04.16.04.33.18.38Z"/>
                <path class="cls-4" d="m119.59,73.5c.48.16.99-.16,1.13-.71.14-.55-.13-1.13-.62-1.29-.48-.16-.99.16-1.13.71-.14.55.13,1.13.62,1.3Z"/>
                <path class="cls-4" d="m124.28,74.77c.24.08.5-.08.57-.35.07-.28-.07-.56-.31-.65-.24-.08-.49.08-.56.35-.07.28.07.57.31.65Z"/>
                <path class="cls-4" d="m114.99,73.92c.18.06.37-.06.43-.27.05-.21-.05-.42-.23-.49-.18-.06-.37.06-.42.27-.05.21.05.42.23.49Z"/>
                <path class="cls-4" d="m116.48,81.11c.24.08.5-.08.57-.35.07-.28-.07-.57-.31-.65-.24-.08-.5.08-.57.35-.07.27.07.57.31.65Z"/>
                <path class="cls-4" d="m124.25,82.34c.3.1.62-.09.71-.44.09-.34-.08-.71-.39-.81-.3-.1-.62.1-.71.44-.09.35.08.71.39.81Z"/>
              </g>
              <g class="cls-5">
                <path class="cls-4" d="m113.22,68.28c0,.24.17.43.38.43s.38-.19.38-.43-.17-.43-.38-.43-.38.19-.38.43Z"/>
                <path class="cls-4" d="m112.8,75.31c0,.5.36.91.8.91s.8-.41.8-.91-.36-.91-.8-.91-.8.41-.8.91Z"/>
                <path class="cls-4" d="m109.04,66.59c0,.36.26.65.57.65s.57-.29.57-.65-.25-.65-.57-.65-.57.29-.57.65Z"/>
                <path class="cls-4" d="m107.03,73.94c0,.17.12.3.27.3s.27-.14.27-.3-.12-.31-.27-.31-.27.14-.27.31Z"/>
                <path class="cls-4" d="m104.63,65.07c0,.58.41,1.04.91,1.04s.91-.47.91-1.04-.41-1.04-.91-1.04-.91.47-.91,1.04Z"/>
                <path class="cls-4" d="m102.74,71.5c0,.29.2.52.46.52s.45-.23.45-.52-.2-.52-.45-.52-.46.23-.46.52Z"/>
                <path class="cls-4" d="m97.04,60.78c0,.22.15.39.34.39s.34-.18.34-.39-.15-.39-.34-.39-.34.18-.34.39Z"/>
                <path class="cls-4" d="m99.7,64.42c0,.29.21.52.46.52s.46-.23.46-.52-.2-.52-.46-.52-.46.23-.46.52Z"/>
                <path class="cls-4" d="m96.01,73.02c0,.36.25.65.57.65s.57-.29.57-.65-.26-.65-.57-.65-.57.29-.57.65Z"/>
              </g>
              <g class="cls-5">
                <path class="cls-4" d="m51.66,78.35c0,.24.17.43.38.43s.38-.19.38-.43-.17-.43-.38-.43-.38.19-.38.43Z"/>
                <path class="cls-4" d="m48.62,79.7c0,.5.36.91.8.91s.8-.41.8-.91-.36-.91-.8-.91-.8.41-.8.91Z"/>
                <path class="cls-4" d="m47.48,76.66c0,.36.26.65.57.65s.57-.29.57-.65-.25-.65-.57-.65-.57.29-.57.65Z"/>
                <path class="cls-4" d="m45.73,78.66c0,.17.12.3.27.3s.27-.14.27-.3-.12-.3-.27-.3-.27.14-.27.3Z"/>
                <path class="cls-4" d="m43.08,75.14c0,.58.41,1.04.91,1.04s.91-.47.91-1.04-.41-1.04-.91-1.04-.91.47-.91,1.04Z"/>
                <path class="cls-4" d="m41.63,78.44c0,.29.2.52.46.52s.46-.23.46-.52-.2-.52-.46-.52-.46.23-.46.52Z"/>
                <path class="cls-4" d="m39.51,73.71c0,.22.15.39.34.39s.34-.17.34-.39-.15-.39-.34-.39-.34.17-.34.39Z"/>
                <path class="cls-4" d="m39.28,76.14c0,.29.21.52.46.52s.46-.23.46-.52-.2-.52-.46-.52-.46.23-.46.52Z"/>
                <path class="cls-4" d="m37.45,79.61c0,.36.26.65.57.65s.57-.29.57-.65-.26-.65-.57-.65-.57.29-.57.65Z"/>
              </g>
              <g class="cls-5">
                <path class="cls-4" d="m40.54,74.71c0,.24.17.43.38.43s.38-.19.38-.43-.17-.44-.38-.44-.38.2-.38.44Z"/>
                <path class="cls-4" d="m37.5,76.05c0,.5.36.91.8.91s.8-.41.8-.91-.36-.91-.8-.91-.8.41-.8.91Z"/>
                <path class="cls-4" d="m36.36,73.02c0,.36.26.65.57.65s.57-.29.57-.65-.26-.65-.57-.65-.57.29-.57.65Z"/>
                <path class="cls-4" d="m34.62,75.01c0,.17.12.3.27.3s.27-.14.27-.3-.12-.3-.27-.3-.27.13-.27.3Z"/>
                <path class="cls-4" d="m31.96,71.5c0,.58.41,1.04.91,1.04s.91-.47.91-1.04-.41-1.04-.91-1.04-.91.47-.91,1.04Z"/>
                <path class="cls-4" d="m30.51,74.8c0,.29.2.52.46.52s.46-.23.46-.52-.2-.52-.46-.52-.46.23-.46.52Z"/>
                <path class="cls-4" d="m28.39,70.06c0,.22.15.39.34.39s.34-.18.34-.39-.15-.39-.34-.39-.34.17-.34.39Z"/>
                <path class="cls-4" d="m28.16,72.49c0,.29.21.52.46.52s.46-.23.46-.52-.21-.52-.46-.52-.46.23-.46.52Z"/>
                <path class="cls-4" d="m26.33,75.97c0,.36.26.65.57.65s.57-.29.57-.65-.26-.65-.57-.65-.57.29-.57.65Z"/>
              </g>
            </g>
            <g>
              <g class="cls-5">
                <path class="cls-4" d="m39.33,129.72c0,.24.17.43.38.43s.38-.19.38-.43-.17-.43-.38-.43-.38.19-.38.43Z"/>
                <path class="cls-4" d="m35.35,138.14c0,.5.35.91.8.91s.8-.41.8-.91-.36-.91-.8-.91-.8.41-.8.91Z"/>
                <path class="cls-4" d="m34.78,132.8c0,.36.25.65.57.65s.57-.29.57-.65-.25-.65-.57-.65-.57.29-.57.65Z"/>
                <path class="cls-4" d="m48.44,136.14c0,.17.12.31.27.31s.26-.14.26-.31-.11-.3-.26-.3-.27.14-.27.3Z"/>
                <path class="cls-4" d="m27.38,128.11c0,.57.41,1.04.91,1.04s.91-.47.91-1.04-.41-1.04-.91-1.04-.91.47-.91,1.04Z"/>
                <path class="cls-4" d="m30.08,136.14c0,.29.21.52.46.52s.46-.23.46-.52-.2-.52-.46-.52-.46.23-.46.52Z"/>
                <path class="cls-4" d="m35.01,144.2c0,.22.15.39.34.39s.34-.18.34-.39-.15-.39-.34-.39-.34.17-.34.39Z"/>
                <path class="cls-4" d="m44.07,141.57c0,.29.21.52.46.52s.46-.23.46-.52-.2-.52-.46-.52-.46.23-.46.52Z"/>
                <path class="cls-4" d="m42.28,135.49c0,.36.26.65.57.65s.57-.29.57-.65-.25-.65-.57-.65-.57.29-.57.65Z"/>
              </g>
              <g class="cls-5">
                <path class="cls-4" d="m24.66,128.55c0,.24.17.43.38.43s.38-.19.38-.43-.17-.43-.38-.43-.38.19-.38.43Z"/>
                <path class="cls-4" d="m21.62,129.89c0,.5.35.91.8.91s.8-.41.8-.91-.36-.91-.8-.91-.8.41-.8.91Z"/>
                <path class="cls-4" d="m20.48,126.86c0,.36.25.65.57.65s.57-.29.57-.65-.25-.65-.57-.65-.57.29-.57.65Z"/>
                <path class="cls-4" d="m18.73,128.85c0,.17.12.3.27.3s.27-.14.27-.3-.12-.31-.27-.31-.27.14-.27.31Z"/>
                <path class="cls-4" d="m16.07,125.34c0,.58.41,1.04.91,1.04s.91-.47.91-1.04-.41-1.04-.91-1.04-.91.47-.91,1.04Z"/>
                <path class="cls-4" d="m14.63,128.64c0,.29.2.52.46.52s.46-.23.46-.52-.2-.52-.46-.52-.46.23-.46.52Z"/>
                <path class="cls-4" d="m12.5,123.9c0,.22.15.39.34.39s.34-.17.34-.39-.15-.39-.34-.39-.34.18-.34.39Z"/>
                <path class="cls-4" d="m12.27,126.33c0,.29.21.52.46.52s.45-.23.45-.52-.21-.52-.45-.52-.46.23-.46.52Z"/>
                <path class="cls-4" d="m10.45,129.81c0,.36.26.65.57.65s.57-.29.57-.65-.26-.65-.57-.65-.57.29-.57.65Z"/>
              </g>
              <g class="cls-5">
                <path class="cls-4" d="m74.51,128.55c0,.24.17.43.38.43s.38-.19.38-.43-.17-.43-.38-.43-.38.19-.38.43Z"/>
                <path class="cls-4" d="m69.43,133.58c0,.5.35.91.79.91s.8-.41.8-.91-.36-.91-.8-.91-.79.41-.79.91Z"/>
                <path class="cls-4" d="m70.67,127.51c0,.36.26.65.57.65s.57-.29.57-.65-.26-.65-.57-.65-.57.29-.57.65Z"/>
                <path class="cls-4" d="m66.14,129.46c0,.17.12.3.27.3s.27-.14.27-.3-.12-.3-.27-.3-.27.14-.27.3Z"/>
                <path class="cls-4" d="m64.32,135.49c0,.58.41,1.04.91,1.04s.91-.47.91-1.04-.41-1.04-.91-1.04-.91.47-.91,1.04Z"/>
                <path class="cls-4" d="m59.37,141.05c0,.29.2.52.46.52s.45-.23.45-.52-.21-.52-.45-.52-.46.23-.46.52Z"/>
                <path class="cls-4" d="m56.95,124.29c0,.22.15.39.34.39s.34-.18.34-.39-.15-.39-.34-.39-.34.17-.34.39Z"/>
                <path class="cls-4" d="m61.55,131.87c0,.29.2.52.46.52s.46-.23.46-.52-.2-.52-.46-.52-.46.23-.46.52Z"/>
                <path class="cls-4" d="m53.98,135.15c0,.36.25.65.57.65s.57-.29.57-.65-.25-.65-.57-.65-.57.29-.57.65Z"/>
              </g>
              <g class="cls-5">
                <path class="cls-4" d="m70.23,144.26c0-.24-.17-.44-.38-.44s-.38.2-.38.44.17.43.38.43.38-.19.38-.43Z"/>
                <path class="cls-4" d="m76.75,138.9c0-.5-.36-.91-.79-.91s-.8.41-.8.91.36.91.8.91.79-.41.79-.91Z"/>
                <path class="cls-4" d="m76.03,143.83c0-.36-.25-.65-.57-.65s-.57.29-.57.65.26.65.57.65.57-.29.57-.65Z"/>
                <path class="cls-4" d="m79.64,139.94c0-.17-.12-.3-.27-.3s-.27.14-.27.3.12.3.27.3.27-.14.27-.3Z"/>
                <path class="cls-4" d="m81.38,144.26c0-.58-.41-1.04-.91-1.04s-.91.47-.91,1.04.41,1.04.91,1.04.91-.47.91-1.04Z"/>
                <path class="cls-4" d="m83.74,140.16c0-.29-.2-.52-.46-.52s-.45.23-.45.52.2.52.45.52.46-.23.46-.52Z"/>
                <path class="cls-4" d="m90.79,145.5c0-.22-.15-.39-.34-.39s-.34.17-.34.39.15.39.34.39.34-.18.34-.39Z"/>
                <path class="cls-4" d="m87.23,143.74c0-.29-.21-.52-.46-.52s-.46.23-.46.52.2.52.46.52.46-.23.46-.52Z"/>
                <path class="cls-4" d="m87.91,138.99c0-.36-.25-.65-.57-.65s-.57.29-.57.65.26.65.57.65.57-.29.57-.65Z"/>
              </g>
              <g class="cls-5">
                <path class="cls-4" d="m58.73,128.55c0,.24.17.43.38.43s.38-.19.38-.43-.17-.43-.38-.43-.38.19-.38.43Z"/>
                <path class="cls-4" d="m55.69,129.89c0,.5.36.91.8.91s.8-.41.8-.91-.36-.91-.8-.91-.8.41-.8.91Z"/>
                <path class="cls-4" d="m54.55,126.86c0,.36.26.65.57.65s.57-.29.57-.65-.25-.65-.57-.65-.57.29-.57.65Z"/>
                <path class="cls-4" d="m52.81,128.85c0,.17.12.3.27.3s.27-.14.27-.3-.12-.31-.27-.31-.27.14-.27.31Z"/>
                <path class="cls-4" d="m50.15,125.34c0,.58.41,1.04.91,1.04s.91-.47.91-1.04-.41-1.04-.91-1.04-.91.47-.91,1.04Z"/>
                <path class="cls-4" d="m48.7,128.64c0,.29.2.52.45.52s.46-.23.46-.52-.2-.52-.46-.52-.45.23-.45.52Z"/>
                <path class="cls-4" d="m46.58,123.9c0,.22.15.39.34.39s.34-.17.34-.39-.15-.39-.34-.39-.34.18-.34.39Z"/>
                <path class="cls-4" d="m46.35,126.33c0,.29.21.52.46.52s.46-.23.46-.52-.2-.52-.46-.52-.46.23-.46.52Z"/>
                <path class="cls-4" d="m44.53,129.81c0,.36.25.65.57.65s.57-.29.57-.65-.26-.65-.57-.65-.57.29-.57.65Z"/>
              </g>
              <g class="cls-5">
                <path class="cls-4" d="m103.2,125.75c.2.07.41-.07.47-.3.06-.23-.06-.47-.26-.54-.2-.07-.41.07-.47.29-.06.23.06.47.26.54Z"/>
                <path class="cls-4" d="m103.85,131.83c.42.14.87-.13.99-.62.12-.48-.12-.99-.54-1.13-.42-.14-.87.14-.99.62-.12.48.12.99.54,1.13Z"/>
                <path class="cls-4" d="m96.74,124.92c.3.1.62-.09.71-.44.09-.35-.08-.7-.39-.81-.3-.1-.62.09-.71.44-.09.34.08.7.39.8Z"/>
                <path class="cls-4" d="m107.4,139.04c.14.05.29-.04.33-.21.04-.16-.04-.33-.18-.38-.14-.05-.29.04-.33.21-.04.16.04.33.18.38Z"/>
                <path class="cls-4" d="m98.46,136.63c.48.16.99-.16,1.13-.71.14-.55-.13-1.13-.62-1.29-.48-.16-.99.16-1.13.71-.14.55.13,1.13.62,1.3Z"/>
                <path class="cls-4" d="m103.15,137.9c.24.08.5-.08.57-.35.07-.28-.07-.56-.31-.65-.24-.08-.49.08-.56.35-.07.28.07.57.31.65Z"/>
                <path class="cls-4" d="m93.86,137.05c.18.06.37-.06.42-.27.05-.21-.05-.42-.23-.49-.18-.06-.37.06-.42.27-.05.21.05.42.23.49Z"/>
                <path class="cls-4" d="m95.36,144.24c.24.08.5-.08.57-.35.07-.28-.07-.57-.31-.65-.24-.08-.5.08-.57.36-.07.27.07.57.31.65Z"/>
                <path class="cls-4" d="m103.12,145.47c.3.1.62-.09.71-.44.09-.34-.08-.71-.39-.81-.3-.1-.62.1-.71.44-.09.35.08.71.39.81Z"/>
              </g>
              <g class="cls-5">
                <path class="cls-4" d="m119.97,125.81c.2.07.41-.07.47-.3.06-.23-.06-.47-.26-.54-.2-.07-.41.07-.47.29-.06.23.06.47.26.54Z"/>
                <path class="cls-4" d="m120.63,131.89c.42.14.87-.13.99-.62.12-.48-.12-.99-.54-1.13-.42-.14-.87.14-.99.62-.12.48.12.99.54,1.13Z"/>
                <path class="cls-4" d="m113.51,124.97c.3.1.62-.09.71-.44.09-.35-.08-.7-.39-.81-.3-.1-.62.1-.71.44-.09.34.08.7.39.8Z"/>
                <path class="cls-4" d="m124.18,139.09c.14.05.29-.04.33-.21.04-.16-.04-.33-.18-.38-.14-.05-.29.04-.33.21-.04.16.04.33.18.38Z"/>
                <path class="cls-4" d="m115.24,136.68c.48.16.99-.16,1.13-.71.14-.55-.13-1.13-.62-1.29-.48-.16-.99.16-1.13.71-.14.55.13,1.13.62,1.3Z"/>
                <path class="cls-4" d="m119.92,137.95c.24.08.5-.08.57-.35.07-.28-.07-.56-.31-.65-.24-.08-.49.08-.56.35-.07.28.07.56.31.65Z"/>
                <path class="cls-4" d="m110.63,137.1c.18.06.37-.06.42-.27.05-.21-.05-.42-.23-.49-.18-.06-.37.06-.42.27-.05.21.05.42.23.49Z"/>
                <path class="cls-4" d="m112.13,144.29c.24.08.5-.08.57-.35.07-.28-.07-.57-.31-.65-.24-.08-.5.08-.57.35-.07.27.07.57.31.65Z"/>
                <path class="cls-4" d="m119.89,145.52c.3.1.62-.09.71-.44.09-.34-.08-.71-.39-.81-.3-.1-.62.1-.71.44-.09.35.08.71.39.81Z"/>
              </g>
              <g class="cls-5">
                <path class="cls-4" d="m137.25,123.03c.2.07.41-.07.47-.3.06-.23-.06-.47-.26-.54-.2-.07-.41.07-.47.29-.06.23.06.47.26.54Z"/>
                <path class="cls-4" d="m137.9,129.11c.42.14.87-.13.99-.62.12-.48-.12-.99-.54-1.13-.42-.14-.87.14-.99.62-.12.48.12.99.54,1.13Z"/>
                <path class="cls-4" d="m130.78,122.19c.3.1.62-.09.71-.44.09-.35-.08-.7-.39-.81-.3-.1-.62.1-.71.44-.09.34.08.7.39.8Z"/>
                <path class="cls-4" d="m141.45,136.31c.14.05.29-.04.33-.21.04-.16-.04-.33-.18-.38-.14-.05-.29.04-.33.21-.04.16.04.33.18.38Z"/>
                <path class="cls-4" d="m132.51,133.9c.48.16.99-.16,1.13-.71.14-.55-.13-1.13-.62-1.29-.48-.16-.99.16-1.13.71-.14.55.13,1.13.62,1.3Z"/>
                <path class="cls-4" d="m137.2,135.18c.24.08.5-.08.57-.35.07-.28-.07-.56-.31-.65-.24-.08-.49.08-.56.35-.07.28.07.56.31.65Z"/>
                <path class="cls-4" d="m127.91,134.32c.18.06.37-.06.42-.27.05-.21-.05-.42-.23-.49-.18-.06-.37.06-.42.27-.05.21.05.42.23.49Z"/>
                <path class="cls-4" d="m129.4,141.52c.24.08.5-.08.57-.35.07-.28-.07-.57-.31-.65-.24-.08-.5.08-.57.35-.07.27.07.57.31.65Z"/>
                <path class="cls-4" d="m137.17,142.75c.3.1.62-.09.71-.44.09-.34-.08-.71-.39-.81-.3-.1-.62.1-.71.44-.09.35.08.71.39.81Z"/>
              </g>
              <g class="cls-5">
                <path class="cls-4" d="m152.84,121.99c.2.07.41-.07.47-.3.06-.23-.06-.47-.26-.54-.2-.07-.41.07-.47.29-.06.23.06.47.26.54Z"/>
                <path class="cls-4" d="m153.49,128.07c.42.14.87-.13.99-.62.12-.48-.12-.99-.54-1.13-.42-.14-.87.14-.99.62-.12.48.12.99.54,1.13Z"/>
                <path class="cls-4" d="m146.38,121.15c.3.1.62-.09.71-.44.09-.35-.08-.7-.39-.81-.3-.1-.62.09-.71.44-.09.35.08.7.39.81Z"/>
                <path class="cls-4" d="m157.04,135.27c.14.05.29-.04.33-.21.04-.16-.04-.33-.18-.38-.14-.05-.29.04-.33.21-.04.16.04.33.18.38Z"/>
                <path class="cls-4" d="m148.1,132.86c.48.16.99-.16,1.13-.71.14-.55-.13-1.13-.62-1.29-.48-.16-.99.16-1.13.71-.14.55.13,1.13.62,1.3Z"/>
                <path class="cls-4" d="m152.79,134.13c.24.08.5-.08.57-.35.07-.28-.07-.56-.31-.65-.24-.08-.49.08-.56.35-.07.28.07.56.31.65Z"/>
                <path class="cls-4" d="m143.5,133.28c.18.06.37-.06.43-.27.05-.21-.05-.43-.23-.49-.18-.06-.37.06-.42.27-.05.21.05.42.23.49Z"/>
                <path class="cls-4" d="m145,140.47c.24.08.5-.08.57-.35.07-.28-.07-.57-.31-.65-.24-.08-.5.08-.57.35-.07.27.07.57.31.65Z"/>
                <path class="cls-4" d="m152.76,141.71c.3.1.62-.09.71-.44.09-.34-.08-.71-.39-.81-.3-.1-.62.1-.71.44-.09.35.08.71.39.81Z"/>
              </g>
              <g class="cls-5">
                <path class="cls-4" d="m92.09,131.41c0,.24.17.43.38.43s.38-.19.38-.43-.17-.43-.38-.43-.38.19-.38.43Z"/>
                <path class="cls-4" d="m91.68,138.44c0,.5.36.91.8.91s.8-.41.8-.91-.36-.91-.8-.91-.8.41-.8.91Z"/>
                <path class="cls-4" d="m87.91,129.72c0,.36.26.65.57.65s.57-.29.57-.65-.25-.65-.57-.65-.57.29-.57.65Z"/>
                <path class="cls-4" d="m85.9,137.06c0,.17.12.3.27.3s.27-.14.27-.3-.12-.31-.27-.31-.27.14-.27.31Z"/>
                <path class="cls-4" d="m83.51,128.2c0,.58.41,1.04.91,1.04s.91-.47.91-1.04-.41-1.04-.91-1.04-.91.47-.91,1.04Z"/>
                <path class="cls-4" d="m81.61,134.63c0,.29.2.52.46.52s.45-.23.45-.52-.2-.52-.45-.52-.46.23-.46.52Z"/>
                <path class="cls-4" d="m75.91,123.9c0,.22.15.39.34.39s.34-.17.34-.39-.15-.39-.34-.39-.34.18-.34.39Z"/>
                <path class="cls-4" d="m78.57,127.55c0,.29.21.52.46.52s.46-.23.46-.52-.2-.52-.46-.52-.46.23-.46.52Z"/>
                <path class="cls-4" d="m74.89,136.15c0,.36.25.65.57.65s.57-.29.57-.65-.26-.65-.57-.65-.57.29-.57.65Z"/>
              </g>
              <g class="cls-5">
                <path class="cls-4" d="m30.53,141.48c0,.24.17.43.38.43s.38-.19.38-.43-.17-.43-.38-.43-.38.19-.38.43Z"/>
                <path class="cls-4" d="m27.5,142.83c0,.5.36.91.8.91s.8-.41.8-.91-.36-.91-.8-.91-.8.41-.8.91Z"/>
                <path class="cls-4" d="m26.36,139.79c0,.36.25.65.57.65s.57-.29.57-.65-.25-.65-.57-.65-.57.29-.57.65Z"/>
                <path class="cls-4" d="m24.61,141.79c0,.17.12.3.27.3s.27-.14.27-.3-.12-.31-.27-.31-.27.14-.27.31Z"/>
                <path class="cls-4" d="m21.95,138.27c0,.58.41,1.04.91,1.04s.91-.47.91-1.04-.41-1.04-.91-1.04-.91.47-.91,1.04Z"/>
                <path class="cls-4" d="m20.51,141.57c0,.29.2.52.46.52s.46-.23.46-.52-.2-.52-.46-.52-.46.23-.46.52Z"/>
                <path class="cls-4" d="m18.38,136.84c0,.22.15.39.34.39s.34-.18.34-.39-.15-.39-.34-.39-.34.17-.34.39Z"/>
                <path class="cls-4" d="m18.15,139.27c0,.29.21.52.46.52s.46-.23.46-.52-.2-.52-.46-.52-.46.23-.46.52Z"/>
                <path class="cls-4" d="m16.33,142.74c0,.36.26.65.57.65s.57-.29.57-.65-.26-.65-.57-.65-.57.29-.57.65Z"/>
              </g>
              <g class="cls-5">
                <path class="cls-4" d="m19.42,137.84c0,.24.17.43.38.43s.38-.19.38-.43-.17-.44-.38-.44-.38.2-.38.44Z"/>
                <path class="cls-4" d="m16.38,139.18c0,.5.36.91.8.91s.8-.41.8-.91-.36-.91-.8-.91-.8.41-.8.91Z"/>
                <path class="cls-4" d="m15.24,136.14c0,.36.26.65.57.65s.57-.29.57-.65-.26-.65-.57-.65-.57.29-.57.65Z"/>
                <path class="cls-4" d="m13.49,138.14c0,.17.12.3.27.3s.27-.14.27-.3-.12-.3-.27-.3-.27.13-.27.3Z"/>
                <path class="cls-4" d="m10.83,134.63c0,.58.41,1.04.91,1.04s.91-.47.91-1.04-.41-1.04-.91-1.04-.91.47-.91,1.04Z"/>
                <path class="cls-4" d="m9.39,137.92c0,.29.2.52.46.52s.46-.23.46-.52-.2-.52-.46-.52-.46.23-.46.52Z"/>
                <path class="cls-4" d="m7.26,133.19c0,.22.15.39.34.39s.34-.17.34-.39-.15-.39-.34-.39-.34.17-.34.39Z"/>
                <path class="cls-4" d="m7.03,135.62c0,.29.21.52.46.52s.46-.23.46-.52-.2-.52-.46-.52-.46.23-.46.52Z"/>
                <path class="cls-4" d="m5.21,139.1c0,.36.26.65.57.65s.57-.29.57-.65-.26-.65-.57-.65-.57.29-.57.65Z"/>
              </g>
            </g>
            <path class="cls-9" d="m159.61,80.32c-.05-1.72-1.44-4.27-2.96-4.99-1.38-.64-2.54-.9-4.06-.86-2.41.05-1.87-.49-3.52-1.46-1.14-.67-2.03-.72-3.26-.48-1.72.33-.45,1.21-1.87.18-2.89-2.09-6.9-.52-6.9-.52,0,0-1.52-1.98-3.26-2.28v4.99c.08.09.16.18.28.28.52.46,1.35.83,2.06.54,1.17-.47,4.36-1.08,5.22.35.37.62.93,1.16,1.62,1.39,1.03.34,4.42-.54,4.31-.65.68.7,1.17,1.38,2.19,1.66,1.75.48,4.49-1.61,5.94.3.43.56.73,1.11,1.05,1.58-.32.37-.65.74-.96,1.11-1.2.26-2.13,1.03-2.83,2.05-.25,0-.5,0-.74.06-.49-.5-1.21-.78-2.1-.56-2.58.64-4.73,2.01-7.21,2.94-1.45.54-5.26,3.09-6.61,1.93-1.29-1.11-3.19-.69-3.73.99.04-.18.08-.35.13-.53-.9-.97-2.93-.85-3.5.45-.23.52-.3.45-.73.45-.77-.11-1.54-.16-2.32-.18-.07,0-.13-.01-.2-.01-.01,0-.02,0-.04,0-.69.02-1.2.28-1.56.67-.9.83-1.67-.56-3.19-.17-1.02.26-1.67.42-2.31,1.28-.15.2-.24.49-.33.79-.86-.47-1.71-1.06-2.57-1.36-1.01-.35-2.14.78-2.72.46-2.87-1.58-7.85,3.68-10.28.57-.69-.89-2.42-.85-3.12,0-.29.35-.57.69-.86,1.03-2.3-.83-4.39-.28-7.14-.9-1.78-.4-3.98,1.69-5.66.75-.89-.5-2.47-1.24-3.44-.49-1.5,1.16-1.07.4-3.2.4-.68,0-1.28.39-1.86.68-1.58.79-3.22.42-4.86.23-3.33-.37-6.71.23-10.01-.42-2.46-.49-4.41-1.39-6.98-.94-4.31.75-7.72-2.25-12.09-1.71-4.55.55-7.68-3.42-12.43-1.72-3.58,1.28-5.19.8-8.11-1.22-1.27-.87-3.17-1.41-4.68-.98-1.05.3-2.04.69-3.07,1.06-.92.33-3.5-1.54-4.63-2.21-2.49-1.46-6.66-.71-7.43-4.47.93-.5,1.97-.36,3.17-.62,1.6-.35,2.28-2.41,3.68-2.84,1.35-.41,4.02-1,4.57-.59.57.42,1.43.31,2.01,0,2.97-1.57,4.96-4.43,8.29-1.33.46.43,1.01.61,1.55.6v-5.94c-1.39-.38-3.4-.82-5.34-.64-2.5.23-6.14,2.75-7.24,2.38-1.06-.36-1.7.28-2.49.87-.72.41-1.46.77-2.2,1.14-1.1.55-1.84,1.2-2.69,2.14-2.23,2.46-5.25.89-5.67,4.66-.02.15.01.28.06.4-.63,3.17,1.91,5,4.82,6.2,4.74,1.96,7.32,4.88,12.52,2.94,2.95-1.11,4.73,2.52,7.2,3.09,2.49.58,4.38.11,6.74-.81,2.93-1.14,5.57,1.27,8.32,1.95,2.76.68,5.15-.5,7.91.7,1.86.81,3.69,1.4,5.72,1.35,1.11-.02,2.28-.36,3.39-.43,1.99-.13,4.07,1.23,6.08,1.37,3.02.21,6.02-.08,9.04.25,2.48.27,4.84.65,7.01-.78.56-.37,2.45.89,3.5.29.43-.25,1.4-.47.68-.83.83.41,1.61.53,2.52.74,2.15.48,3.92-.88,6-.31,2.22.61,3.97-.64,5.95.69,1.05.7,2.37.15,3.01-.79.09-.11.18-.22.27-.34,2.31.95,5.29.19,7.74.08,1.22-.05,1.68-1.06,2.81-.76,1.39.37,2.54.38,3.7-.62-.78.67,2.56,1.9,3.04,1.98,1.23.21,2.33-.39,2.97-1.47.18-.3.27-.5.32-.64.36.17.75.29,1.16.32,1.47.12,2.36-.41,3.31-1.27.05,0,.11,0,.16.01.31.17.65.25,1,.2,1.58-.21,2.7-.12,3.61-.71,1.45.65,2.9.42,3.99-.67,4.97,1.31,11.18-3.85,15.74-4.98.23-.06.42-.14.6-.24.36-.09.7-.11,1.02.12.82.59,2.06.14,2.53-.66.25-.42.48-.78.82-1.14.2-.21,1.16-.09,1.53-.31.87-.51,1.75-1.69,2.32-2.51.55-.8.33-1.67-.2-2.28Z"/>
            <path class="cls-9" d="m155.84,109.5c-1.03,1.79-2.66,1.62-4.34,2.1-1.97.57-3.75,1.82-5.65,2.55-2.57.99-6.85-.78-8.42,2.1-.16.43-.41.81-.72,1.15-1.19.85.15.64-1.4-.38-1.27-.84-2.57-.89-4.03-.51-4.66,1.22-9.4.23-13.9,2.11-1.33.56-2.08,1.17-3.04,2.19-1.26,1.33-3.15-.22-4.7-.6-1.28-.31-2.76.4-3.93.83-2.24.84-3.59-1.74-5.34-2.32-2.85-.95-4.49.24-6.24,2.43-.64.8-5.05-3.08-6.81-2.5-1.49.49-2.4,1.29-3.65,2.23-1.52,1.15-3.75-.8-5.2-1.4-1.03-.42-2.47-.19-3.35.44-2.46,1.76-4.41,1-6.86.09-3.13-1.17-6.36,2.2-8.72-.35-1.59-1.73-3.78-1.96-5.65-.43-2.17,1.77-4.71.13-7-.52-1.55-.44-3.36-.23-4.92.05-2.54.44-7.03,1.8-9.22-.41-1.15-1.16-2.23-1.79-3.81-2.21-1.41-.37-3.08.22-4.39.65-3.05,1.01-5.43.86-8.16-.92-1.56-1.01-2.99-1.87-4.8-2.29-3.16-.73-7.22-.12-7.74-4.74-.07-.61-.81-.7-1.04-.14-.99,2.43.47,5.65,2.96,6.74,1.4.61,2.66.84,4.17,1.03,3.09.39,5.25,2.87,8,4.09,4.68,2.08,9.09-3.21,13.23.99,2.93,2.98,9.02.83,12.55.38,3.77-.48,7.44,3.79,11.01.98,1.91-1.51,2.41.02,3.78.92,1.3.85,2.49.94,3.98.66.38-.15.74-.33,1.09-.54,1.78-.95,3.35-.84,5.18-.06,1.34.57,3.13,1.18,4.61.8,1.21-.31,1.46-.42,2.52-1.1,1.84-1.18,2.25-.52,3.87.41,1.43.82,2.8.79,4.33.52,1.08-.19,3.64-3.02,4.8-2.12,1.04.8,1.61,2.2,3,2.55.96.24,2.1.47,3.02-.06,1.79-1.02,2.82-4.15,5.35-2.11,1.06.85,1.97,1.47,3.26,1.93,2.35.85,4.45-1.78,6.88-.51,3.17,1.67,4.65.98,7.04-1.52,2.03-2.13,5.88-1.8,8.51-1.75,2.73.06,6.3-1.61,8.59-.09,1.74,1.16,4.24.34,5.24-1.42.89-1.56,2.34-1.24,4.02-1.25,1.99-.02,3.81-.82,5.57-1.65,3.49-1.65,7.49-1.65,9.53-5.21,1.15-2-1.93-3.79-3.08-1.8Z"/>
          </g>
          <g>
            <path class="cls-7" d="m75.45,10.75c0,1.88-2.1,3.39-2.1,3.39,0,0-2.26-1.05-2.26-3.39,0-1.88,2.26-8.57,2.26-8.57,0,0,2.1,6.69,2.1,8.57Z"/>
            <path class="cls-3" d="m74.62,11.06c0,1.16-1.31,2.09-1.31,2.09,0,0-1.4-.65-1.4-2.09,0-1.16,1.4-5.28,1.4-5.28,0,0,1.31,4.13,1.31,5.28Z"/>
            <polygon class="cls-1" points="73.57 16.72 72.96 16.72 73.26 10 73.57 16.72"/>
            <path class="cls-9" d="m75.74,37.12h-4.95v-19.45c0-1.74,4.95-1.75,4.95,0v19.45Z"/>
            <path class="cls-2" d="m72.85,16.85c-.65.05-1.38.24-1.45.82-.12.92,0,19.45,0,19.45h1.45v-20.27Z"/>
          </g>
          <g>
            <path class="cls-7" d="m95.97,10.75c0,1.88-2.1,3.39-2.1,3.39,0,0-2.26-1.05-2.26-3.39,0-1.88,2.26-8.57,2.26-8.57,0,0,2.1,6.69,2.1,8.57Z"/>
            <path class="cls-3" d="m95.14,11.06c0,1.16-1.31,2.09-1.31,2.09,0,0-1.4-.65-1.4-2.09,0-1.16,1.4-5.28,1.4-5.28,0,0,1.31,4.13,1.31,5.28Z"/>
            <polygon class="cls-1" points="94.09 16.72 93.48 16.72 93.78 10 94.09 16.72"/>
            <path class="cls-9" d="m96.26,37.12h-4.95v-19.45c0-1.74,4.95-1.75,4.95,0v19.45Z"/>
            <path class="cls-2" d="m93.37,16.85c-.65.05-1.38.24-1.45.82-.12.92,0,19.45,0,19.45h1.45v-20.27Z"/>
          </g>
          <g>
            <path class="cls-7" d="m112.74,10.75c0,1.88-2.1,3.39-2.1,3.39,0,0-2.26-1.05-2.26-3.39,0-1.88,2.26-8.57,2.26-8.57,0,0,2.1,6.69,2.1,8.57Z"/>
            <path class="cls-3" d="m111.91,11.06c0,1.16-1.31,2.09-1.31,2.09,0,0-1.4-.65-1.4-2.09,0-1.16,1.4-5.28,1.4-5.28,0,0,1.31,4.13,1.31,5.28Z"/>
            <polygon class="cls-1" points="110.86 16.72 110.26 16.72 110.56 10 110.86 16.72"/>
            <path class="cls-9" d="m113.03,37.12h-4.95v-19.45c0-1.74,4.95-1.75,4.95,0v19.45Z"/>
            <path class="cls-2" d="m110.14,16.85c-.65.05-1.38.24-1.45.82-.12.92,0,19.45,0,19.45h1.45v-20.27Z"/>
          </g>
          <g>
            <path class="cls-7" d="m54.39,10.75c0,1.88-2.1,3.39-2.1,3.39,0,0-2.26-1.05-2.26-3.39,0-1.88,2.26-8.57,2.26-8.57,0,0,2.1,6.69,2.1,8.57Z"/>
            <path class="cls-3" d="m53.56,11.06c0,1.16-1.31,2.09-1.31,2.09,0,0-1.4-.65-1.4-2.09,0-1.16,1.4-5.28,1.4-5.28,0,0,1.31,4.13,1.31,5.28Z"/>
            <polygon class="cls-1" points="52.51 16.72 51.91 16.72 52.21 10 52.51 16.72"/>
            <path class="cls-9" d="m54.68,37.12h-4.95v-19.45c0-1.74,4.95-1.75,4.95,0v19.45Z"/>
            <path class="cls-2" d="m51.79,16.85c-.65.05-1.38.24-1.45.82-.12.92,0,19.45,0,19.45h1.45v-20.27Z"/>
          </g>
        </g>
      </g>
    </g>
  </g>
</svg>