<?xml version="1.0" encoding="UTF-8"?>
<svg xmlns="http://www.w3.org/2000/svg" viewBox="0 0 72.3 104.46">
  <defs>
    <style>
      .cls-1 {
        fill: #4d3c24;
      }

      .cls-1, .cls-2, .cls-3 {
        stroke-width: 0px;
      }

      .cls-2 {
        fill: #fcdeda;
      }

      .cls-2, .cls-3 {
        mix-blend-mode: multiply;
      }

      .cls-4 {
        isolation: isolate;
      }

      .cls-5 {
        fill: #f9be89;
      }

      .cls-5, .cls-6, .cls-7 {
        stroke: #4d3c24;
        stroke-linecap: round;
        stroke-linejoin: round;
        stroke-width: 1.35px;
      }

      .cls-6 {
        fill: #f0a3b7;
      }

      .cls-3, .cls-7 {
        fill: #fddfc1;
      }
    </style>
  </defs>
  <g class="cls-4">
    <g id="Capa_2" data-name="Capa 2">
      <g id="Capa_1-2" data-name="Capa 1">
        <g>
          <path class="cls-7" d="m59.17,98.28s-6.66,5.5-24.9,5.5-23.74-5.5-23.74-5.5L1.26,54.28l2.99,2.12,1.83-2.12,2.41,2.12,2.65-2.12,2.75,2.32,2.51-2.32,2.32,2.32,2.6-2.32,2.22,2.32,2.8-2.32,2.8,2.7,2.85-2.7,2.46,2.51,2.41-2.51,2.32,2.22,2.41-2.22,1.83,2.03,3.09-2.03,1.74,2.12,2.32-2.12,1.93,1.93,2.22-1.93,2.31,2.03,1.93-2.03,2.22,2.12,2.03-1.83,1.93,2.12,1.93-2.12,1.74,1.74,2.22-2.03-11.87,44.01Z"/>
          <path class="cls-2" d="m36.8,99.09c-10.85-.44-22.25-3.32-28.69-12.29l2.42,11.48s5.5,5.5,23.74,5.5,24.9-5.5,24.9-5.5l1-3.7c-7.11,3.27-14.63,4.87-23.36,4.51Z"/>
          <path class="cls-2" d="m2.89,62.01c.05,1.62.93,3.93,2.21,5.06,1.89,1.67,4.37,1.88,6.44.73,2.14-1.19,3.68-3.1,5.15-4.97,1.53-1.95,3.02-4.05,5.68-2.6,1.95,1.06,3.1,3.04,4.08,4.92,1.28,2.46,3.53,3.15,6.22,2.57,5.31-1.14,6.97-7.04,11.95-8.1,2.74-.58,4.96-.09,7.42,1.31,2.68,1.52,4.48,4.15,7.23,5.63,1.94,1.04,4.78,2.37,6.55.33,1.1-1.26,2.83-3.41,3.01-5.07.13-1.17.12-2.32-.62-3.22-.9-1.1-2.81-1.96-4.01-2.68-2.71-1.61-5.74-2.92-8.88-3.38-4.73-.7-9.81.07-14.44,1.03-4.1.85-8.15.97-12.32,1.3-2.98.23-5.95-.04-8.93-.14-3.12-.11-5.98.56-9.05.72-3.09.16-5.98,1.64-7.77,4.06l.06,2.5Z"/>
          <path class="cls-6" d="m5.56,74.68l2.2,10.44c6.53,1.5,16.43,3.18,28.11,3.18,10.56,0,19.96-1.37,26.73-2.75l2.86-10.59c-6.04,1.43-15.72,2.92-29.88,2.92-15.09,0-24.56-1.69-30.02-3.2Z"/>
          <path class="cls-5" d="m71.61,52.45c-.58,16.87-13.18,5.83-23.45,4.71-4.56-.5-8.29,3.72-13.03,6.08-8.07,4.01-12.66-10.35-18.24-4.92-10.53,10.25-15.48.15-16.21-5.87,0-18.5,15.88-33.5,35.46-33.5s36.1,15.01,35.46,33.5Z"/>
          <path class="cls-3" d="m16.43,29.39c-.47,1.32-1.28,7.98,3.95,8.78,5.23.8,10.93-5.05,10.58-4.92,6.05-2.34,6.95,6.48,14.03,6.58,7.08.1,4.66-9.47,9.56-8.83,4.9.64,7.97,2.75,9.69,1.35-6.5-8.33-18.81-13.4-28.11-13.4-8.71,0-18.22,4.27-24.39,9.19,1.24,1.57,5.61-1.31,4.68,1.25Z"/>
          <path class="cls-3" d="m61.7,57.75c-5.65.76-10.28-6.35-15.62-6.03-9.2.56-8.41,8-13.96,7.22-7.11-1-3.18-10.01-10.58-9.16-7.4.85-7.4,6.85-12.63,6.59-4.88-.24-6.8-5.69-7.19-12.02-.68,2.59-1.05,5.3-1.05,8.09.73,6.02,5.68,16.12,16.21,5.87,5.58-5.43,10.17,8.94,18.24,4.92,4.74-2.36,8.47-6.58,13.03-6.08,10.27,1.12,22.87,12.16,23.45-4.71.05-1.52-.02-3.01-.19-4.48-1.42,5.52-5.17,9.16-9.71,9.78Z"/>
          <path class="cls-6" d="m10.45,27.59c-1.39-2.32,7.28-8.2,13.32-10.57,6.66-2.61,13.8-2.18,16.01-3.45,2.21-1.28,2.79-5.46.81-7.56-1.86,1.74-6.12-1.51-4.08-3.97,2.79-3.37,10.49-.36,13.5,7.58,2.95,7.8,13.05,16.63,14.44,19.42,1.39,2.79.22,6.49-2.12,3.71-4.1-4.87-8.25-7-11.34-5.88-3.52,1.27-2.14,9.95-8.07,8.67-5.93-1.28-6.71-5.31-10.89-5.77-4.18-.46-6.56,5.45-11.44,4.63-4.88-.81,3.08-8.22.87-9.27-2.21-1.05-9.61,4.79-11,2.46Z"/>
          <path class="cls-1" d="m38.95,3.91c-.26-.14-.83-.2-.82-.58,0-.23-.31-.37-.47-.19-.71.77.21,1.65,1.05,1.66.46,0,.66-.66.24-.88Z"/>
          <path class="cls-1" d="m28.55,27.25c-1.07.02-1.85.74-2.71,1.32-1.01.68-1.87,1.56-2.88,2.24-.19.13-.07.49.17.39,1-.41,2.15-.68,3.08-1.22.97-.56,2.2-1.03,2.71-2.09.14-.28-.02-.66-.37-.65Z"/>
          <path class="cls-1" d="m45.51,30.74c-.74.07-1.18.61-1.81.97-.89.51-2.08.31-2.86-.29-.08-.06-.19.06-.13.13.72.95,1.31,1.57,2.57,1.55.97-.01,2.51-.71,2.73-1.72.06-.3-.14-.68-.5-.65Z"/>
          <path class="cls-1" d="m59.08,26.93c-1.43-1.05-2.86-1.8-4.64-1.77-.11,0-.12.15-.03.19,1.45.59,2.88,1.54,4.16,2.45,1.14.81,2.14,2.33,3.44,2.84.22.09.39-.16.35-.35-.26-1.41-2.2-2.56-3.28-3.35Z"/>
          <path class="cls-1" d="m64.63,41.91c-.89,0-.89,1.39,0,1.39s.89-1.39,0-1.39Z"/>
          <path class="cls-1" d="m62.87,38.09s-.04-.01-.06-.02c-.95-.29-.95,1.43,0,1.14.02,0,.04-.01.06-.02.55-.17.55-.94,0-1.11Z"/>
          <path class="cls-1" d="m61.23,45.49s-.07-.05-.1-.08c-.5-.4-1.31-.18-1.31.54,0,.77,1.04,1.04,1.43.39.02-.04.05-.08.07-.12.13-.21.11-.56-.09-.72Z"/>
          <path class="cls-1" d="m64.25,50.34c-.71,0-.71,1.1,0,1.1s.71-1.1,0-1.1Z"/>
          <path class="cls-1" d="m61.99,43.76s-.03-.03-.05-.04c-.12-.09-.36-.09-.48,0-.02.01-.03.03-.05.04-.21.16-.33.38-.27.66,0,.04.02.08.03.12.13.53.93.53,1.06,0,0-.04.02-.08.03-.12.07-.28-.05-.49-.27-.66Z"/>
          <path class="cls-1" d="m56.63,40.76c-.33.33-.17.83.2,1.01.21.13.51.14.67-.06.13-.15.22-.29.21-.5-.02-.54-.67-.85-1.08-.45Z"/>
          <path class="cls-1" d="m22.55,47.9c-.73,0-.73,1.12,0,1.12s.72-1.12,0-1.12Z"/>
          <path class="cls-1" d="m18.28,44.97l.14.1c-.7-.54-1.61.3-.99.99.09.1.18.17.29.22.98.44,1.53-1.06.55-1.31Z"/>
          <path class="cls-1" d="m13.7,48.56s-.05.01-.07.02c-1.27-.02-.74,2.09.39,1.44.14-.08.25-.17.36-.3.4-.48.04-1.42-.67-1.16Z"/>
          <path class="cls-1" d="m12.26,52.8c-.09-.86-1.25-.86-1.34,0,0,.04,0,.08-.01.13-.09.88,1.45.88,1.36,0,0-.04,0-.08-.01-.13Z"/>
          <path class="cls-1" d="m10.32,44.76c-.08-.08-.17-.17-.25-.26-.5-.5-1.28.28-.78.78.08.08.17.17.26.25.5.5,1.28-.28.78-.78Z"/>
          <path class="cls-1" d="m17.07,48.52c-.76,0-.76,1.17,0,1.17s.76-1.17,0-1.17Z"/>
          <path class="cls-1" d="m15.51,40.91s-.02-.02-.03-.04c-.03-.04-.07-.06-.1-.07,0,0-.02-.01-.02-.02-.25-.21-.56.11-.35.35,0,0,.01.02.02.02.01.04.04.07.07.1.01.01.03.02.04.03.22.27.6-.12.38-.38Z"/>
          <path class="cls-1" d="m60.3,78.38c-.55,0-.55.86,0,.86s.56-.86,0-.86Z"/>
          <path class="cls-1" d="m58.97,81.68c-.18-.54-1.04-.8-1.34-.2-.26.29-.24.81.03,1.08.33.33,1.03.32,1.24-.16.11-.25.16-.45.07-.72Z"/>
          <path class="cls-1" d="m58.73,83.39c-.05-.02-.12-.02-.17,0,0,0-.01,0-.02,0-.15.05-.26.17-.26.34,0,.02,0,.04,0,.06,0,.45.69.45.69,0,0-.02,0-.04,0-.06,0-.16-.11-.29-.26-.34Z"/>
          <path class="cls-1" d="m52.64,79.65s0,0,0,0c-.02-.01-.03-.03-.05-.04,0,0-.02,0-.03-.02-.02-.01-.04,0-.05-.01-.05-.02-.1-.03-.15-.04-.25-.04-.49.08-.6.3-.1.16-.1.36,0,.52.12.22.36.34.6.3.05,0,.1-.02.15-.04.02,0,.04,0,.05-.01,0,0,.02-.01.03-.02.02-.01.03-.03.05-.04,0,0,0,0,0,0,.15-.12.22-.28.21-.44,0-.16-.05-.32-.21-.44Z"/>
          <path class="cls-1" d="m48.25,82.62c-.01-.07-.13-.07-.14,0,0,.04-.02.08-.02.12-.03.15.21.15.18,0,0-.04-.02-.08-.02-.12Z"/>
          <path class="cls-1" d="m46.9,85.15s0,.04,0,.06c.11.76,1.41.76,1.53,0,0-.02,0-.04,0-.06.19-1.29-1.74-1.29-1.54,0Z"/>
          <path class="cls-1" d="m43.83,80.26s0-.06-.02-.1c-.04-.27-.31-.48-.56-.56-.03,0-.06-.02-.1-.03-.91-.28-1.28.92-.62,1.41.55.52,1.43.1,1.29-.72Z"/>
          <path class="cls-1" d="m38.34,79.9s-.08-.02-.12-.02c-.56-.11-1.12.25-1.12.85s.56.96,1.12.85c.04,0,.08-.02.12-.02.82-.16.82-1.5,0-1.66Z"/>
          <path class="cls-1" d="m34.48,83.74s-.07-.03-.1-.04c-.47-.2-1.05.03-1.05.6s.58.81,1.05.6c.03-.02.07-.03.1-.04.42-.19.42-.93,0-1.11Z"/>
          <path class="cls-1" d="m29.77,81.42c-.07-.06-.15-.12-.23-.17-.51-.33-.97.48-.47.81.01,0,.02.01.04.02.45.39,1.11-.26.66-.66Z"/>
          <path class="cls-1" d="m26.38,78.38c-.07,0-.07.1,0,.1s.07-.1,0-.1Z"/>
          <path class="cls-1" d="m23.86,80.16c-.26-.15-.53-.12-.75.02v-.02s-.04.02-.05.03c-.04.03-.05.06-.08.08-.06.05-.11.1-.16.16-.04.05-.08.1-.11.16-.33.65.33,1.32.98.98.06-.03.11-.07.16-.11,0,0,0,0,0,0,.09-.06.17-.12.25-.22,0-.01.02-.03.03-.04.25-.33.05-.85-.27-1.04Z"/>
          <path class="cls-1" d="m22.71,84.13s-.03.02-.04.03c-.11.09-.16.2-.2.31-.29.6.32,1.22.92.92.11-.03.21-.09.3-.2.01-.01.02-.03.03-.04.6-.71-.42-1.74-1.03-1.02Z"/>
          <path class="cls-1" d="m18.22,81.72s.01,0,.02,0c-.3-.15-.68.16-.48.48.07.12.15.19.26.27.51.36.93-.72.21-.76Z"/>
          <path class="cls-1" d="m15.84,81.31s-.06-.08-.09-.12c-.34-.52-1.31-.19-1.06.45.06.14.11.28.19.41.45.75,1.56-.08.96-.74Z"/>
          <path class="cls-1" d="m10.89,78.11c-.18-.16-.35-.27-.58-.34-.24-.07-.45.08-.53.3-.13.36.28.48.47.68.4.43,1.08-.25.64-.64Z"/>
          <path class="cls-1" d="m9.05,79.55c-.13.03-.24.08-.36.13-.51.22-.07,1.03.44.76.05-.02.1-.04.15-.06.53-.16.31-.95-.23-.83Z"/>
          <path class="cls-1" d="m12.18,83.53s-.04-.07-.07-.11c-.4-.66-1.29.24-.64.64.04.02.07.04.11.07.37.23.82-.22.59-.59Z"/>
        </g>
      </g>
    </g>
  </g>
</svg>