<svg id="Object" xmlns="http://www.w3.org/2000/svg" viewBox="0 0 640.75 547.08"><defs><style>.cls-1{fill:none;}.cls-2{fill:#fbf1e2;}.cls-3{fill:#c5948c;}.cls-4{fill:#70534b;}.cls-5{fill:#fff;}</style></defs><title>cart</title><path class="cls-1" d="M352.24,661.51a12.74,12.74,0,0,1,1.46-.42l0,0L300,366l-.22,0Z" transform="translate(-200.63 -294.46)"/><polygon class="cls-2" points="153.11 366.61 607.29 283.46 607.29 102.61 99.41 71.53 153.11 366.61"/><path class="cls-3" d="M353.74,661.07l0,0a12.74,12.74,0,0,0-1.46.42L358,694.12a14.21,14.21,0,0,0,1.71-.13l467.92-85.67a16.72,16.72,0,0,0,13.71-16.45V381.34a16.74,16.74,0,0,0-15.71-16.71L298,332.35a16.52,16.52,0,0,0-4.06.3l5.9,33.32.22,0,507.88,31.08V577.92Z" transform="translate(-200.63 -294.46)"/><path class="cls-4" d="M426.11,776.93H699.26a52,52,0,0,1,26.55-33.46H399.58A52.1,52.1,0,0,1,426.11,776.93Z" transform="translate(-200.63 -294.46)"/><path class="cls-4" d="M773.34,743.47a52.1,52.1,0,0,1,26.55,33.46H815a16.73,16.73,0,1,0,0-33.46Z" transform="translate(-200.63 -294.46)"/><path class="cls-4" d="M352.24,661.51,299.82,366l-5.9-33.32-3.39-19a16.7,16.7,0,0,0-14.89-13.73l-56.71-5.35a16.72,16.72,0,1,0-3.13,33.3l44,4.16,75.44,425.23a51.78,51.78,0,0,1,30.65-18.6L358,694.12Z" transform="translate(-200.63 -294.46)"/><path class="cls-4" d="M706.22,789.6a43.35,43.35,0,1,0,43.33-43.36A43.35,43.35,0,0,0,706.22,789.6Zm64.22,0a20.88,20.88,0,1,1-20.89-20.87A20.9,20.9,0,0,1,770.44,789.6Z" transform="translate(-200.63 -294.46)"/><path class="cls-5" d="M773.34,743.47a52.25,52.25,0,1,0,26.55,33.46A51.74,51.74,0,0,0,773.34,743.47ZM749.55,833a43.36,43.36,0,1,1,43.37-43.35A43.35,43.35,0,0,1,749.55,833Z" transform="translate(-200.63 -294.46)"/><path class="cls-2" d="M728.69,789.6a20.88,20.88,0,1,0,20.86-20.87A20.9,20.9,0,0,0,728.69,789.6Z" transform="translate(-200.63 -294.46)"/><path class="cls-4" d="M332.45,789.6a43.36,43.36,0,1,0,43.36-43.36A43.36,43.36,0,0,0,332.45,789.6Zm64.23,0a20.88,20.88,0,1,1-20.87-20.87A20.89,20.89,0,0,1,396.68,789.6Z" transform="translate(-200.63 -294.46)"/><path class="cls-5" d="M399.58,743.47a51.91,51.91,0,1,0,28.17,46.13,50.86,50.86,0,0,0-1.64-12.67A52.1,52.1,0,0,0,399.58,743.47ZM375.81,833a43.36,43.36,0,1,1,43.35-43.35A43.36,43.36,0,0,1,375.81,833Z" transform="translate(-200.63 -294.46)"/><path class="cls-2" d="M354.92,789.6a20.88,20.88,0,1,0,20.89-20.87A20.91,20.91,0,0,0,354.92,789.6Z" transform="translate(-200.63 -294.46)"/></svg>